<?xml version="1.0" encoding="utf-8"?>
<!-- Generator: Adobe Illustrator 23.1.0, SVG Export Plug-In . SVG Version: 6.00 Build 0)  -->
<svg version="1.1" xmlns="http://www.w3.org/2000/svg" xmlns:xlink="http://www.w3.org/1999/xlink" x="0px" y="0px"
	 viewBox="0 0 67.91 25.05" style="enable-background:new 0 0 67.91 25.05;" xml:space="preserve">
<style type="text/css">
	.st0{fill:#FFFFFF;}
	.st1{fill:#3D3D3D;}
	.st2{fill:#1135EA;}
</style>
<g id="폰트_레이어">
</g>
<g id="백그라운드_1">
</g>
<g id="메인_1">
	<g>
		<path d="M4.72,22.94v0.35C4.45,23.5,4.11,23.6,3.69,23.6c-0.94,0-1.5-0.62-1.5-1.55c0-0.96,0.65-1.55,1.55-1.55
			c0.38,0,0.69,0.07,0.95,0.26v0.37c0,0.04-0.03,0.04-0.06,0.02c-0.23-0.23-0.52-0.34-0.87-0.34c-0.65,0-1.17,0.43-1.17,1.23
			c0,0.83,0.41,1.26,1.16,1.26c0.35,0,0.65-0.12,0.91-0.37C4.71,22.89,4.72,22.9,4.72,22.94z"/>
		<path d="M9.68,20.54h0.4l-1.1,1.68v1.35h-0.4v-1.3l-1.1-1.72H7.9l0.88,1.4h0.01L9.68,20.54z"/>
		<path d="M15.47,20.54v3.03h-0.38v-1.52h-1.61v1.52H13.1v-3.03h0.38v1.21h1.61v-1.21H15.47z"/>
		<path d="M20.7,20.54h0.4l-1.09,1.68v1.35h-0.4v-1.3l-1.1-1.72h0.42l0.88,1.4h0.01L20.7,20.54z"/>
		<path d="M23.85,22.06c0-0.88,0.53-1.55,1.45-1.55c0.92,0,1.45,0.67,1.45,1.55c0,0.88-0.53,1.54-1.45,1.54
			C24.38,23.6,23.85,22.94,23.85,22.06z M26.34,22.05c0-0.72-0.35-1.25-1.04-1.25c-0.69,0-1.04,0.53-1.04,1.25s0.35,1.24,1.04,1.24
			C25.98,23.3,26.34,22.77,26.34,22.05z"/>
		<path d="M31.07,23.6c-0.45,0-0.79-0.16-0.98-0.42c-0.16-0.21-0.21-0.47-0.21-0.85v-1.79h0.38v1.77c0,0.33,0.03,0.57,0.17,0.73
			c0.13,0.16,0.34,0.26,0.64,0.26c0.29,0,0.51-0.1,0.63-0.26c0.14-0.16,0.17-0.4,0.17-0.73v-1.77h0.38v1.79
			c0,0.38-0.04,0.64-0.21,0.85C31.87,23.44,31.53,23.6,31.07,23.6L31.07,23.6z"/>
		<path d="M36.17,20.54l1.26,2.34l0.14,0.31l0-0.32v-2.33h0.36v3.03h-0.54l-1.31-2.46l-0.14-0.29l0,0.32v2.43h-0.36v-3.03H36.17z"/>
		<path d="M42.77,20.79c-0.71,0-1.26,0.46-1.26,1.24c0,0.79,0.42,1.28,1.27,1.28c0.28,0,0.46-0.07,0.58-0.19v-0.8H42.6v-0.3h1.15
			v1.32c-0.36,0.18-0.71,0.26-1.04,0.26c-1.05,0-1.61-0.63-1.61-1.56c0-0.96,0.69-1.54,1.63-1.54c0.4,0,0.72,0.07,1,0.26v0.37
			c0,0.04-0.03,0.04-0.06,0.02C43.45,20.92,43.13,20.79,42.77,20.79z"/>
		<path d="M49.38,20.54v3.03h-0.38v-1.52h-1.61v1.52H47v-3.03h0.38v1.21h1.61v-1.21H49.38z"/>
		<path d="M54.6,20.54h0.4l-1.1,1.68v1.35h-0.4v-1.3l-1.1-1.72h0.42l0.88,1.4h0.01L54.6,20.54z"/>
		<path d="M59.17,23.6c-0.45,0-0.79-0.16-0.98-0.42c-0.16-0.21-0.21-0.47-0.21-0.85v-1.79h0.38v1.77c0,0.33,0.03,0.57,0.17,0.73
			c0.13,0.16,0.34,0.26,0.64,0.26c0.29,0,0.51-0.1,0.63-0.26c0.14-0.16,0.17-0.4,0.17-0.73v-1.77h0.38v1.79
			c0,0.38-0.04,0.64-0.21,0.85C59.96,23.44,59.63,23.6,59.17,23.6L59.17,23.6z"/>
		<path d="M64.26,20.54l1.26,2.34l0.14,0.31l0-0.32v-2.33h0.36v3.03h-0.54l-1.31-2.46l-0.14-0.29l0,0.32v2.43h-0.36v-3.03H64.26z"/>
		<path d="M13.14,8.85c0,3.22,2.88,5.59,7.06,6.46l-1.08,1.54c-3.43-0.77-6.15-2.5-7.31-5.06c-1.14,2.57-3.85,4.3-7.31,5.06
			l-1.05-1.54c4.18-0.87,7.06-3.24,7.06-6.46V8.23H4.09V6.62h6.59V3.47h2.27v3.14h6.56v1.61h-6.37V8.85z"/>
		<path d="M55.69,6.22V3.46h2.14v2.76h7.2v1.73H48.44V6.22H55.69z M56.74,17.84c-4.51,0-6.6-1.99-6.6-4.2c0-2.23,2.09-4.18,6.6-4.18
			s6.6,1.94,6.6,4.18C63.34,15.85,61.26,17.84,56.74,17.84z M56.72,11.12c-3.36,0-4.51,1.3-4.51,2.54c0,1.18,1.15,2.5,4.51,2.5
			s4.56-1.32,4.56-2.5C61.28,12.41,60.08,11.12,56.72,11.12z"/>
		<circle class="st0" cx="34.04" cy="10.42" r="7.11"/>
		<path class="st1" d="M34.04,18.28c-4.33,0-7.86-3.53-7.86-7.86c0-4.34,3.53-7.86,7.86-7.86s7.86,3.53,7.86,7.86
			C41.9,14.76,38.38,18.28,34.04,18.28z M34.04,4.06c-3.51,0-6.36,2.85-6.36,6.36c0,3.51,2.85,6.36,6.36,6.36s6.36-2.85,6.36-6.36
			C40.4,6.91,37.55,4.06,34.04,4.06z"/>
		<path class="st0" d="M34.04,15.62c-2.87,0-5.2-2.33-5.2-5.2c0-2.87,2.33-5.2,5.2-5.2c2.87,0,5.2,2.33,5.2,5.2
			C39.24,13.29,36.91,15.62,34.04,15.62z"/>
		<path class="st1" d="M34.04,16.12c-3.14,0-5.7-2.56-5.7-5.7s2.56-5.7,5.7-5.7s5.7,2.56,5.7,5.7S37.18,16.12,34.04,16.12z
			 M34.04,5.72c-2.59,0-4.7,2.11-4.7,4.7s2.11,4.7,4.7,4.7s4.7-2.11,4.7-4.7S36.63,5.72,34.04,5.72z"/>
		<path class="st0" d="M34.13,13.04c-1.4,0-2.54-1.14-2.54-2.54c0-1.4,1.14-2.54,2.54-2.54c1.4,0,2.54,1.14,2.54,2.54
			C36.66,11.9,35.52,13.04,34.13,13.04z"/>
		<path class="st1" d="M34.13,13.47c-1.64,0-2.97-1.33-2.97-2.97s1.33-2.97,2.97-2.97s2.97,1.33,2.97,2.97S35.76,13.47,34.13,13.47z
			 M34.13,8.4c-1.16,0-2.1,0.94-2.1,2.1s0.94,2.1,2.1,2.1s2.1-0.94,2.1-2.1S35.29,8.4,34.13,8.4z"/>
	</g>
</g>
</svg>
