<?xml version="1.0" encoding="utf-8"?>
<!-- Generator: Adobe Illustrator 23.1.0, SVG Export Plug-In . SVG Version: 6.00 Build 0)  -->
<svg version="1.1" id="Layer_1" xmlns="http://www.w3.org/2000/svg" xmlns:xlink="http://www.w3.org/1999/xlink" x="0px" y="0px"
	 viewBox="0 0 214.1 67" style="enable-background:new 0 0 214.1 67;" xml:space="preserve">
<style type="text/css">
	.st0{fill:#10097A;}
	.st1{fill:#FFFFFF;}
</style>
<g id="폰트_레이어">
</g>
<g id="백그라운드_1">
</g>
<g>
	<path d="M71.1,51.4c1.7,0,2.9,0.4,3.6,0.8l0.7-2.4c-0.9-0.4-2.5-0.9-4.4-0.9c-5.6,0-9.3,3.9-9.3,9.2c0,5.3,3.4,8.8,8.6,8.8
		c2.3,0,4.1-0.6,5-1l-0.5-2.4c-0.9,0.4-2.1,0.9-3.9,0.9c-3.4,0-6-2.5-6-6.5C65,54.4,67.1,51.4,71.1,51.4z"/>
	<path d="M87.7,48.9c-1.2,0-2.3,0.4-3.2,0.9c-1,0.5-1.8,1.3-2.3,2.2h-0.1V41.2H79v25.4h3.1V56.2c0-0.6,0-1.1,0.2-1.5
		c0.6-1.7,2.2-3.1,4.2-3.1c3,0,4,2.4,4,5.1v9.9h3.1V56.3C93.8,50.3,90.1,48.9,87.7,48.9z"/>
	<path d="M111,56c0-3.5-1.3-7.1-6.6-7.1c-2.2,0-4.3,0.6-5.7,1.5l0.7,2.1c1.2-0.8,2.9-1.3,4.5-1.3c3.5,0,3.9,2.6,3.9,4v0.4
		c-6.7,0-10.4,2.3-10.4,6.4c0,2.5,1.8,5,5.3,5c2.5,0,4.3-1.2,5.3-2.6h0.1l0.3,2.2h2.9c-0.2-1.2-0.3-2.6-0.3-4.1V56z M108,60.8
		c0,0.3-0.1,0.7-0.2,1c-0.5,1.5-1.9,2.9-4.2,2.9c-1.6,0-3-1-3-3c0-3.4,3.9-4,7.3-3.9V60.8z"/>
	<path d="M125.6,57.6c-0.2,0.6-0.3,1.1-0.5,1.6h0c-0.1-0.5-0.3-1.1-0.5-1.6l-1.7-4.5h-1.5l2.8,7c0.1,0.2,0.1,0.3,0.1,0.4
		s0,0.2-0.1,0.3c-0.3,0.7-0.8,1.2-1.2,1.5c-0.4,0.3-0.9,0.6-1.2,0.7l0.3,1.2c0.3-0.1,1-0.3,1.7-0.9c0.9-0.8,1.6-2.2,2.6-4.8l2.1-5.4
		h-1.5L125.6,57.6z"/>
	<path d="M132.9,52.9c-2.1,0-3.8,1.5-3.8,4c0,2.4,1.6,3.9,3.7,3.9c1.8,0,3.8-1.2,3.8-4C136.6,54.5,135.1,52.9,132.9,52.9z
		 M132.8,59.9c-1.4,0-2.3-1.3-2.3-2.9c0-1.4,0.7-3,2.3-3c1.6,0,2.3,1.6,2.3,2.9C135.2,58.6,134.2,59.9,132.8,59.9z"/>
	<path d="M144.7,53.1h-1.4v4.7c0,0.3,0,0.5-0.1,0.7c-0.3,0.6-0.9,1.3-1.8,1.3c-1.3,0-1.7-1-1.7-2.4v-4.2h-1.4v4.5
		c0,2.7,1.4,3.3,2.6,3.3c1.4,0,2.2-0.8,2.5-1.4h0l0.1,1.2h1.2c0-0.6-0.1-1.3-0.1-2.1V53.1z"/>
	<path d="M150.8,52.9c-1.3,0-2.1,0.7-2.5,1.4h0l-0.1-1.3h-1.2c0,0.6,0.1,1.3,0.1,2.1v5.6h1.4v-4.6c0-0.2,0-0.5,0.1-0.6
		c0.2-0.8,0.9-1.4,1.9-1.4c1.3,0,1.8,1,1.8,2.3v4.4h1.4v-4.6C153.5,53.6,151.8,52.9,150.8,52.9z"/>
	<path d="M161,54.3L161,54.3c-0.4-0.6-1.1-1.3-2.4-1.3c-1.7,0-3.4,1.5-3.4,4c0,2.1,1.4,3.7,3.2,3.7c1.2,0,2-0.6,2.4-1.3h0v0.9
		c0,1.9-1,2.7-2.5,2.7c-0.9,0-1.7-0.3-2.2-0.6l-0.3,1.1c0.6,0.4,1.6,0.6,2.5,0.6c1,0,2-0.2,2.8-0.9c0.7-0.7,1.1-1.7,1.1-3.5v-4.4
		c0-0.9,0-1.5,0.1-2.1h-1.2L161,54.3z M160.9,57.5c0,0.2,0,0.5-0.1,0.7c-0.3,0.9-1.1,1.4-1.9,1.4c-1.5,0-2.3-1.2-2.3-2.7
		c0-1.8,0.9-2.9,2.3-2.9c1,0,1.7,0.7,1.9,1.5c0.1,0.2,0.1,0.4,0.1,0.6V57.5z"/>
	<path d="M177.4,51.8c-0.7,0-1.4,0.2-1.9,0.5c-0.6,0.3-1,0.8-1.3,1.3h0v-6.4h-1.9v15h1.9v-6.2c0-0.4,0-0.6,0.1-0.9
		c0.3-1,1.3-1.9,2.5-1.9c1.8,0,2.4,1.4,2.4,3v5.9h1.9v-6.1C181,52.7,178.8,51.8,177.4,51.8z"/>
	<path d="M188,58.1c-0.3,0.7-0.5,1.5-0.7,2.1h0c-0.2-0.6-0.4-1.4-0.7-2.1l-2.2-6.1h-2l3.8,9.4c0.1,0.2,0.1,0.4,0.1,0.5
		c0,0.1-0.1,0.3-0.1,0.4c-0.4,1-1.1,1.7-1.6,2.1c-0.6,0.5-1.2,0.8-1.6,0.9l0.5,1.6c0.5-0.1,1.4-0.4,2.3-1.2c1.3-1.1,2.2-2.9,3.5-6.4
		l2.8-7.3h-2L188,58.1z"/>
	<path d="M202.3,52.1h-1.9v6.3c0,0.3-0.1,0.7-0.2,1c-0.3,0.8-1.2,1.7-2.5,1.7c-1.7,0-2.3-1.3-2.3-3.3v-5.7h-1.9v6
		c0,3.6,1.9,4.5,3.5,4.5c1.8,0,2.9-1.1,3.4-1.9h0l0.1,1.7h1.7c-0.1-0.8-0.1-1.7-0.1-2.8V52.1z"/>
	<path d="M210.5,51.8c-1.7,0-2.9,1-3.4,1.9h0l-0.1-1.7h-1.7c0.1,0.8,0.1,1.7,0.1,2.8v7.5h1.9v-6.2c0-0.3,0-0.6,0.1-0.9
		c0.3-1,1.3-1.9,2.5-1.9c1.8,0,2.4,1.4,2.4,3v5.9h1.9v-6.1C214.1,52.7,211.9,51.8,210.5,51.8z"/>
	<polygon points="107.4,18.8 107.4,9.7 92,9.7 92,0 80.8,0 80.8,9.7 65.3,9.7 65.3,18.8 78.2,18.8 61,34.3 68.5,41.5 86.3,24.2 
		104.2,41.5 111.7,34.3 94.4,18.8 	"/>
	<path d="M127.2,35c1.8,1.8,4,3.2,6.4,4.2c2.5,1.1,5.1,1.5,7.9,1.5c2.8,0,5.4-0.5,8-1.5c2.5-1,4.6-2.4,6.4-4.2
		c1.8-1.7,3.3-3.8,4.4-6.1c1.1-2.3,1.7-4.8,1.7-7.6c0-2.6-0.6-5.1-1.7-7.5c-1.1-2.3-2.6-4.3-4.4-6.1c-1.8-1.7-4-3.1-6.4-4.1
		c-2.5-1-5.2-1.5-8-1.5c-2.8,0-5.4,0.5-7.9,1.5c-2.5,1.1-4.6,2.5-6.4,4.1c-1.8,1.8-3.3,3.8-4.4,6.1c-1.2,2.4-1.7,4.9-1.7,7.5
		c0,2.8,0.5,5.3,1.7,7.6C123.9,31.3,125.4,33.3,127.2,35z M133,17.9c0.5-1.1,1.1-2.1,2-2.9c0.8-0.8,1.8-1.5,3-2
		c1.1-0.5,2.3-0.7,3.6-0.7c1.2,0,2.5,0.2,3.7,0.7c1.1,0.5,2.1,1.1,3,2c0.8,0.8,1.5,1.8,2,2.9c0.5,1.1,0.7,2.3,0.7,3.4
		c0,2.6-0.9,4.8-2.7,6.5c-1.8,1.8-4.1,2.7-6.7,2.7c-1.3,0-2.5-0.2-3.6-0.7c-1.2-0.5-2.2-1.1-3-2c-0.9-0.8-1.5-1.8-2-2.9
		c-0.5-1.1-0.8-2.3-0.8-3.6C132.2,20.2,132.4,19,133,17.9z"/>
	<path d="M205.6,37.8c1.6-1.4,2.9-3.1,3.9-5.1c0.9-1.9,1.5-4,1.5-6.2c0-2.5-0.7-4.9-1.9-7.2h4.5V9.7h-15.3V0H187v9.7h-15.4v9.6h4.5
		c-1.3,2.3-1.9,4.7-1.9,7.2c0,2.2,0.5,4.3,1.5,6.2c0.9,2,2.2,3.8,3.9,5.1c1.6,1.5,3.5,2.7,5.8,3.5c2.2,0.9,4.6,1.3,7.2,1.3
		c2.5,0,4.9-0.4,7.2-1.3C201.9,40.5,203.9,39.3,205.6,37.8z M198.4,31.4c-0.8,0.6-1.7,1.1-2.6,1.5c-1.1,0.5-2.1,0.6-3.2,0.6
		c-2.3,0-4.3-0.7-5.8-2.1c-1.7-1.4-2.5-3-2.5-4.9s0.8-3.6,2.5-5c1.5-1.4,3.5-2.1,5.8-2.1c2.2,0,4.1,0.7,5.8,2.1
		c1.5,1.4,2.4,3.1,2.4,5c0,0.9-0.2,1.8-0.6,2.7C199.7,30.1,199.1,30.8,198.4,31.4z"/>
	<path d="M47.1,33.7c-0.4,0.3-0.4,0.9-0.4,1c0,0.2,0,0.4,0.1,0.6c0,0.1,0.1,0.2,0.1,0.3c0.1,3.3,0,6.2-0.3,9.1
		c-0.2,1.4-0.4,2.9-0.7,4.2l0,0.2c-0.3,1.4-0.6,2.8-0.8,3.8c-0.3,1.1-0.8,2.2-1.7,3.2c-1.6,1.9-3.5,3.6-6,5.1
		c-1.5,0.9-3.2,1.8-4.8,2.6L32,64c-0.9,0.5-1.7,0.6-2.4,0.6c-0.5-0.1-1-0.1-1.5-0.2l-0.3-0.1c-0.5-0.1-1-0.2-1.4-0.3
		c-0.5-0.1-1-0.2-1.4-0.4c-0.4-0.1-0.9-0.2-1.3-0.3c-0.3-0.1-0.7-0.1-1-0.2C22,63,21.5,62.9,21,62.7c-1.4-0.5-2.8-1.1-4.4-1.8
		c-2.5-1.1-4.4-3-5.9-5.8c-0.8-1.5-1.5-3.1-1.9-4.7c-0.2-0.9-0.5-1.7-0.7-2.6l-0.4-1.3c-0.1-0.4-0.2-0.9-0.4-1.3L7.3,45
		c-0.1-0.5-0.2-1-0.3-1.5c-0.1-0.3-0.1-0.7-0.2-1c0-0.3-0.1-0.6-0.2-0.9c-0.2-0.8-0.3-1.6-0.5-2.5c-0.1-0.3-0.3-0.8-0.8-0.8
		c0,0,0,0,0,0c-0.3,0-0.8,0.2-0.9,0.6c0,0,0,0-0.1,0l-0.1,0c0-0.2-0.1-0.4-0.2-0.6c-0.1-0.3-0.2-0.5-0.4-0.8
		c-0.3-0.6-0.5-1.1-0.7-1.7c-0.2-0.6-0.3-1.2-0.4-1.8c-0.1-0.4-0.1-0.8-0.2-1.2C2,31.6,2,30.3,2.3,29l0.1-0.3c0.1-0.5,0.2-1,0.3-1.5
		c0.1-1,0.1-2,0-3c-0.1-1.7,0.2-3,0.8-4.2c0.3-0.5,0.6-1,1-1.6c0.3-0.4,0.5-0.8,0.8-1.2c0.2-0.4,0.4-0.8,0.6-1.3
		c0.1-0.2,0.2-0.4,0.2-0.5l0.1-0.2l-0.6-1.3c0.8-0.4,1.5-1,2.1-1.7c0.2-0.3,0.4-0.7,0.5-1L8,11c0.1-0.2,0.1-0.5,0.2-0.7
		c0-0.2,0.1-0.3,0.2-0.5c0.3-1,1-1.8,2.1-2.5c0.4-0.3,0.8-0.4,1.3-0.6c0.3-0.1,0.6-0.3,1-0.4c1.2-0.6,2.4-0.8,3.8-0.9
		c0.4,0,0.9,0,1.4,0.1c0.2,0,0.4,0.1,0.6,0.1c0.2,0,0.4,0.1,0.7,0.1c0.2,0,0.5,0.1,0.7,0.1c0.2,0,0.4,0,0.7,0l0.9,0l0-0.6
		c0-0.3-0.1-1.1-1-1.3c-0.3-0.1-0.6-0.1-0.9-0.2c-0.7-0.1-1.3-0.3-2-0.3c-1.1-0.1-2.2-0.1-3.2,0.1c-1.2,0.3-2.4,0.8-3.5,1.3
		c-2.5,1.1-4,2.8-4.5,5.2c-0.1,0.6-0.3,1-0.7,1.3l-0.1,0.1c-0.4,0.3-0.9,0.6-1.3,0.8c-0.1,0.1-0.3,0.1-0.4,0.2
		c-0.2,0.1-0.3,0.2-0.5,0.3c-0.3,0.2-0.5,0.5-0.4,0.9c0.1,0.3,0.3,0.5,0.7,0.6c0.2,0,0.5,0.1,0.8,0.1c0.3,0,0.5,0,0.8-0.1l-0.2,0.3
		c-0.1,0.1-0.2,0.2-0.3,0.4c-0.7,1-1.4,2.1-2,3.1L2.2,18c-0.3,0.5-0.6,1-0.8,1.5C1.2,20,1.1,20.4,1,20.9c-0.1,0.3-0.1,0.5-0.2,0.8
		c-0.3,1.1-0.4,2.2-0.1,3.4c0.1,0.6,0,1.1-0.1,1.7c0,0.2-0.1,0.5-0.1,0.7c0,0.3-0.1,0.7-0.2,1C0.2,29,0.1,29.4,0,29.9
		c-0.1,1.5,0,3.2,0.5,5.1c0.3,1.2,0.6,2.4,1.2,3.6c0.2,0.4,0.4,0.6,0.6,0.8c-0.9,0.4-1.6,1-2,1.9c-0.4,1-0.4,2.1,0,3.1
		C1,45.9,2.1,47,3.6,47.7c0.8,0.4,1.3,0.9,1.5,1.7c0.3,1.2,1.1,2.1,1.6,2.7c0.3,0.3,0.5,0.6,0.7,1C8,54.4,8.6,55.7,9.3,57
		c1.3,2.2,3,3.9,5,5.1c1.1,0.6,2.2,1.2,3.5,1.7c1.1,0.4,2.2,0.8,3.3,1.1l0.8,0.2c0.3,0.1,0.6,0.2,0.9,0.2c0.2,0,0.4,0.1,0.6,0.1
		c0.3,0.1,0.6,0.2,1,0.3c0.6,0.2,1.2,0.3,1.8,0.4c0.9,0.2,1.9,0.3,2.8,0.4l0.7,0.1c0.1,0,0.2,0,0.4,0c0.2,0,0.4,0,0.5-0.1l0.5-0.1
		c0.6-0.2,1.2-0.3,1.8-0.6c1.5-0.7,2.9-1.3,4.2-2.1c1.3-0.7,2.5-1.6,3.6-2.5L41,61c1.6-1.2,3.7-2.9,5.1-5.4c0.8-1.4,1.2-2.8,1.5-4.2
		c0.1-0.5,0.2-1,0.3-1.6c0-0.2,0.1-0.4,0.1-0.7l0.5-3.3l0-0.2c0-0.3,0-0.4,0.1-0.4l0,0l0,0c0,0,0,0,0,0c0.4-0.1,0.5-0.4,0.6-0.6
		c0.2-0.4,0.3-0.8,0.5-1.1l0.3-0.8c0.2-0.4,0.3-0.8,0.2-1.1c0-0.1-0.1-0.2-0.2-0.3c0,0,0,0,0,0c0.3-0.4,0.7-0.8,0.9-1.2
		c0.2-0.4,0.4-0.8,0.5-1.2c0.1-0.4,0.3-0.7,0.4-1c0.6-1.1-0.1-3.2-0.8-3.9C50.2,33.1,48,33,47.1,33.7z M2.4,41.9
		C2.8,41.3,3.4,41,4,41c0,0,0,0,0,0c0.2,0,0.3,0,0.5,0c0,0,0.1,0,0.1,0c0,0.1,0,0.3,0,0.6c0,0.6,0.2,1.1,0.3,1.6
		C5,43.4,5,43.6,5.1,43.9l0.1,0.6c0.1,0.4,0.2,0.8,0.2,1.2c0,0.1,0.1,0.3,0.1,0.4c0,0.1,0.1,0.2,0.1,0.4c-1.3-0.6-2.5-1.4-3.2-2.7
		C2.1,43.1,2.1,42.5,2.4,41.9z M49.5,38.7c-0.1,0.3-0.3,0.5-0.5,0.8l0-0.7c0-0.7,0-1.5,0-2.2c0-0.4-0.1-0.8-0.2-1.3
		c0.4-0.1,0.7,0,0.9,0.1c0.2,0.2,0.4,0.5,0.5,1c0.1,0.7-0.2,1.4-0.5,2.1L49.5,38.7z"/>
	<path d="M37.2,7.2c-0.1,0.1-0.1,0.3,0,0.6c0.2,0.3,0.6,0.7,1,0.7c0.6,0,1.3-0.1,1.9-0.3c0.8-0.3,1.5,0,2.4,0.5
		c0.8,0.4,1.4,1.2,2.1,1.9l0.3,0.3c0.4,0.5,0.8,1,1,1.5c0.3,0.6,0.5,1.2,0.7,1.8c0.1,0.4,0.3,0.7,0.4,1.1c0.4,0.9,0.8,2.1,0.7,3.4
		c0,0.2,0,0.3,0,0.5c0,0.2,0,0.3,0,0.5c-0.1,1,0.3,1.8,0.6,2.5l0.4,1c0.2,0.6,0.5,1.2,0.7,1.8c0.1,0.5,0.2,0.9,0.3,1.4
		c0.1,0.4,0.2,0.9,0.3,1.3c0.2,0.9,0.2,1.7,0,2.6c-0.1,0.3-0.1,0.7-0.1,1c0,0.4,0.6,0.6,0.6,0.7l0.3,0.1l0.4-0.3
		c0.3-0.2,0.6-0.4,0.7-0.8c0.2-0.7,0.3-1.3,0.3-1.8c-0.1-1.3-0.3-2.4-0.5-3.4c-0.2-1.1-0.6-2.1-1-3.3c-0.1-0.2-0.2-0.5-0.3-0.7
		c-0.4-1-0.8-1.9-0.6-3l0-0.1c0.1-1.2-0.1-2.3-0.5-3.4c-0.2-0.5-0.4-1-0.5-1.6c-0.4-1.5-0.9-2.5-1.6-3.4c-0.9-1.1-1.8-2.2-2.8-3
		c-0.8-0.7-1.8-1.2-2.9-1.2c-1.1-0.1-2.3,0.1-3.6,0.6C37.6,6.8,37.3,6.9,37.2,7.2z"/>
	<path d="M42.2,40.2c0.3,0,0.7-0.1,1-0.3c0.4-0.3,0.4-0.8,0.3-1c0-0.3-0.4-0.8-0.8-0.8c0,0,0,0,0,0c-0.2,0-0.4,0-0.6,0c0,0,0,0,0,0
		c0-0.3-0.1-0.5-0.2-0.6c-0.3-0.3-0.6-0.2-0.8-0.2c-0.1,0-0.3,0-0.4,0.1c-0.2,0-0.3,0.1-0.5,0.1c-0.4,0.1-0.9,0.2-1.3,0.4
		c-0.1,0.1-0.2,0.1-0.4,0.1c-0.4,0.1-1.1,0.4-1.3,1.1c0,0,0,0-0.1,0c-0.1,0.1-0.3,0.1-0.4,0.2c-0.3,0.1-0.7,0.2-1,0.5
		c-0.8,0.6-1.5,1.2-2.2,1.8c-0.3,0.2-0.2,0.5-0.2,0.8c0,0.1,0,0.1,0,0.2l0,0.6l0.6-0.1c0.1,0,0.1,0,0.2,0c0.2,0,0.4,0,0.6-0.1
		c0,0,0,0,0,0c0,0.2,0,0.3,0,0.5c0,0.5,0.3,1.1,0.9,1.5c0.4,0.2,0.9,0.4,1.4,0.4c0.2,0,0.4,0,0.5-0.1c0.9-0.4,1.5-1.2,1.7-2.1
		c0.1-0.8-0.1-1.6-0.6-2.2l0,0C40,40.5,41.1,40.2,42.2,40.2z M37,42.8l0-0.5c0,0,0,0,0-0.1c0,0,0-0.1,0-0.1c0.1,0,0.3,0.2,0.3,0.3
		c0.1,0.2-0.1,0.7-0.4,0.7C37,43,37,42.9,37,42.8z M36.5,42.6L36.5,42.6L36.5,42.6L36.5,42.6z"/>
	<path d="M14.3,43.6c0,0.5,0.1,1.1,0.4,1.5c0.4,0.6,1,0.9,1.7,0.9c0.2,0,0.4,0,0.7-0.1c0.8-0.2,1.3-0.8,1.5-1.7l0.2-0.6
		c0.6,0.2,0.9-0.1,1.1-0.4c0.5-0.6,0-1.2-0.1-1.4c-0.2-0.2-0.5-0.4-0.6-0.4c-0.5-0.2-1.1-0.4-1.6-0.6l-2-0.8
		c-0.1-0.1-0.3-0.1-0.4-0.2c-0.4-0.2-0.8-0.4-1.3-0.4c-0.2,0-0.4,0-0.6,0c-0.9-0.1-1.9-0.1-2.8,0.3c-0.2,0.1-0.3,0.3-0.4,0.5
		l-0.3,0.6l0.6,0.2c-0.1,0.1-0.1,0.2-0.2,0.3c-0.1,0.2-0.1,0.5,0.1,0.7c0.2,0.3,0.6,0.5,1,0.5c0.2,0,0.4-0.1,0.5-0.2
		c0,0,0.1,0,0.1,0c0.9,0,1.9,0,2.9,0c0,0.1,0,0.2-0.1,0.3C14.4,42.9,14.3,43.2,14.3,43.6z M16.2,43.4L16.2,43.4
		c0.1-0.2,0.1-0.3,0.1-0.4c0.2,0.1,0.3,0.2,0.4,0.3c0,0,0,0.1-0.1,0.4c0,0.1-0.1,0.1-0.1,0.2c0,0-0.1,0-0.1,0
		C16.4,43.8,16.3,43.8,16.2,43.4z"/>
	<path d="M22.5,4.9c0.1,0,0.4,0.1,0.6,0c0.3-0.1,0.5-0.3,0.7-0.4c1.4-1,3-1.3,4.5-1.4c0.8-0.1,1.5,0,2.3,0c0.3,0,0.6,0,0.9,0
		c0.2,0,0.3,0,0.4,0.1c0.9,0.3,1.7,0.8,2.5,1.6c1,0.9,2.1,1.4,3.4,1.4c0.4,0,0.7,0,1.1-0.1c0.4-0.1,0.7-0.5,0.8-0.8
		c0.1-0.3,0-0.5-0.1-0.7c-0.2-0.3-0.6-0.3-0.8-0.3c-0.1,0-0.2,0-0.3,0c-1,0-1.9-0.3-2.7-1c-1.2-1.1-3.1-2.5-5-2.2
		c-2.5,0.1-4.3,0.3-6,0.9c-1,0.4-1.9,1-2.6,1.8C22,3.9,22,4.1,22,4.3l0,0.5L22.5,4.9z"/>
	<path d="M33.4,39.3l0.1-0.2l-0.1-0.2c-0.2-0.5-0.6-0.7-0.9-0.9l-0.3-0.2c-0.3-0.2-0.6-0.3-0.8-0.5c-0.4-0.5-0.4-1.2-0.4-1.9
		c0-1.4,0-2.7,0-4.1l0-0.3c0-1.4,0-2.9-0.6-4.4c-0.3-0.9-0.7-1.7-1.4-2.4c-0.3-0.3-1.1-1-2.2-0.8c-0.3,0.1-0.5,0.3-0.6,0.5
		c0,0.1-0.1,0.1-0.1,0.1l-0.5,0.5l0.7,0.3c0,0,0.1,0,0.1,0.1c0.2,0.1,0.4,0.2,0.7,0.2c0.3,0,0.5,0.1,0.7,0.3
		c0.6,0.6,0.9,1.4,1.1,2.5c0.2,1.1,0.2,2.3,0.2,3.4l0,0.9c0,0.5,0,0.9,0,1.4c0,0.5,0,1,0,1.5l0,0.4c0,0.7,0,1.5,0.3,2.3
		c0.4,1.3,1.9,1.9,3,1.9c0.2,0,0.3,0,0.5,0l0.2-0.1L33.4,39.3L33,39c0,0,0,0,0,0L33.4,39.3z"/>
	<path d="M23.9,25c0.2-0.2,0.3-0.4,0.5-0.6c0.2-0.2,0.2-0.4,0.2-0.6c0,0,0-0.1,0-0.1l0.2-0.6l-0.6,0c0,0-0.1,0-0.1,0
		c-0.2,0-0.4-0.1-0.7,0.1c-1.2,0.6-1.9,1.6-2.2,2.9c-0.3,1.4-0.2,2.7,0.3,3.9c0.4,1,0.8,2.2,1,3.3c0.1,0.9,0.2,1.8,0.2,2.7
		c0,0.4,0,0.8,0.1,1.2c0,0.5-0.1,0.9-0.3,1.2c-0.2,0.3-0.2,0.6-0.1,0.9c0.1,0.3,0.4,0.5,0.8,0.5c0,0,0,0,0,0c0.7,0,1.4-0.9,1.4-1.6
		c0.1-1.9,0.1-4.1-0.5-6.3c-0.3-1-0.6-2-0.9-3c-0.4-1.1-0.3-2.1,0.2-3C23.5,25.5,23.7,25.2,23.9,25z"/>
</g>
<path d="M71.1,270.1c1.7,0,2.9,0.4,3.6,0.8l0.7-2.4c-0.9-0.4-2.5-0.9-4.4-0.9c-5.6,0-9.3,3.9-9.3,9.2c0,5.3,3.4,8.8,8.6,8.8
	c2.3,0,4.1-0.6,5-1l-0.5-2.4c-0.9,0.4-2.1,0.9-3.9,0.9c-3.4,0-6-2.5-6-6.5C65,273,67.2,270.1,71.1,270.1z"/>
<path d="M87.8,267.5c-1.2,0-2.3,0.4-3.2,0.9c-1,0.5-1.7,1.3-2.2,2.2l-0.1,0l0-10.8l-3.1,0l0.1,25.4l3.1,0l0-10.4
	c0-0.6,0-1.1,0.2-1.5c0.6-1.7,2.2-3.1,4.2-3.2c3,0,4,2.3,4,5.1l0,9.9l3.1,0l0-10.3C93.8,268.9,90.1,267.5,87.8,267.5z"/>
<path d="M111.1,274.5c0-3.5-1.3-7.1-6.6-7.1c-2.2,0-4.3,0.6-5.7,1.5l0.7,2.1c1.2-0.8,2.9-1.3,4.5-1.3c3.5,0,3.9,2.6,3.9,4l0,0.4
	c-6.7,0-10.4,2.3-10.4,6.5c0,2.5,1.8,5,5.3,5c2.5,0,4.3-1.2,5.3-2.6l0.1,0l0.3,2.2l2.9,0c-0.2-1.2-0.3-2.6-0.3-4.1L111.1,274.5z
	 M108.1,279.3c0,0.3-0.1,0.7-0.2,1c-0.5,1.5-1.9,2.9-4.2,2.9c-1.6,0-3-1-3-3c0-3.4,3.9-4,7.3-3.9L108.1,279.3z"/>
<path d="M125.7,276.1c-0.2,0.6-0.3,1.1-0.5,1.6l0,0c-0.1-0.5-0.3-1.1-0.5-1.6l-1.7-4.5l-1.5,0l2.8,7c0.1,0.2,0.1,0.3,0.1,0.4
	c0,0.1,0,0.2-0.1,0.3c-0.3,0.7-0.8,1.2-1.2,1.5c-0.4,0.3-0.9,0.6-1.2,0.7l0.3,1.2c0.3-0.1,1-0.3,1.7-0.9c0.9-0.8,1.6-2.2,2.6-4.8
	l2.1-5.4l-1.5,0L125.7,276.1z"/>
<path d="M133,271.4c-2.1,0-3.8,1.5-3.8,4.1c0,2.4,1.6,3.9,3.7,3.9c1.8,0,3.8-1.2,3.8-4.1C136.6,273,135.1,271.4,133,271.4z
	 M132.9,278.4c-1.4,0-2.3-1.3-2.3-2.9c0-1.4,0.7-3,2.3-3c1.6,0,2.3,1.6,2.3,2.9C135.2,277.1,134.2,278.4,132.9,278.4z"/>
<path d="M144.7,271.6l-1.4,0l0,4.7c0,0.3,0,0.5-0.1,0.7c-0.3,0.6-0.9,1.3-1.8,1.3c-1.3,0-1.7-1-1.7-2.4l0-4.2l-1.4,0l0,4.5
	c0,2.7,1.4,3.3,2.6,3.3c1.4,0,2.2-0.8,2.5-1.4l0,0l0.1,1.2l1.2,0c0-0.6-0.1-1.3-0.1-2.1L144.7,271.6z"/>
<path d="M150.8,271.4c-1.3,0-2.1,0.7-2.5,1.4l0,0l-0.1-1.3l-1.2,0c0,0.6,0.1,1.3,0.1,2.1l0,5.6l1.4,0l0-4.6c0-0.2,0-0.5,0.1-0.6
	c0.2-0.8,0.9-1.4,1.9-1.4c1.3,0,1.8,1,1.8,2.2l0,4.4l1.4,0l0-4.6C153.5,272,151.9,271.4,150.8,271.4z"/>
<path d="M161.1,272.7L161.1,272.7c-0.4-0.6-1.1-1.3-2.4-1.3c-1.7,0-3.4,1.5-3.4,4.1c0,2.1,1.4,3.7,3.3,3.7c1.2,0,2-0.6,2.4-1.3l0,0
	l0,0.9c0,1.9-1,2.7-2.5,2.7c-0.9,0-1.7-0.3-2.2-0.6l-0.3,1.1c0.6,0.4,1.6,0.6,2.5,0.6c1,0,2-0.2,2.8-0.9c0.7-0.7,1.1-1.7,1.1-3.5
	l0-4.4c0-0.9,0-1.5,0.1-2.1l-1.2,0L161.1,272.7z M160.9,275.9c0,0.2,0,0.5-0.1,0.7c-0.3,0.9-1.1,1.4-1.9,1.4c-1.5,0-2.3-1.2-2.3-2.7
	c0-1.8,0.9-2.9,2.3-2.9c1,0,1.7,0.7,1.9,1.5c0.1,0.2,0.1,0.4,0.1,0.6L160.9,275.9z"/>
<path d="M177.5,270.2c-0.7,0-1.4,0.2-1.9,0.5c-0.6,0.3-1,0.8-1.3,1.3l0,0l0-6.4l-1.9,0l0,15l1.9,0l0-6.2c0-0.4,0-0.6,0.1-0.9
	c0.3-1,1.3-1.9,2.5-1.9c1.8,0,2.4,1.4,2.4,3l0,5.9l1.9,0l0-6.1C181,271.1,178.8,270.2,177.5,270.2z"/>
<path d="M188.1,276.5c-0.3,0.7-0.5,1.5-0.7,2.1l0,0c-0.2-0.6-0.4-1.4-0.7-2.1l-2.3-6.1l-2,0l3.8,9.4c0.1,0.2,0.1,0.4,0.1,0.5
	c0,0.1-0.1,0.3-0.1,0.4c-0.4,1-1.1,1.7-1.6,2.1c-0.5,0.5-1.2,0.8-1.6,0.9l0.5,1.6c0.5-0.1,1.4-0.4,2.3-1.2c1.3-1.1,2.2-2.9,3.5-6.4
	l2.8-7.3l-2,0L188.1,276.5z"/>
<path d="M202.4,270.4l-1.9,0l0,6.3c0,0.3-0.1,0.7-0.2,1c-0.3,0.8-1.2,1.7-2.5,1.7c-1.7,0-2.3-1.3-2.3-3.3l0-5.7l-1.9,0l0,6
	c0,3.6,1.9,4.5,3.5,4.5c1.8,0,2.9-1.1,3.4-1.9l0,0l0.1,1.7l1.7,0c-0.1-0.8-0.1-1.7-0.1-2.8L202.4,270.4z"/>
<path d="M210.6,270.2c-1.7,0-2.9,1-3.4,1.9l0,0l-0.1-1.7l-1.7,0c0.1,0.8,0.1,1.7,0.1,2.8l0,7.5l1.9,0l0-6.2c0-0.3,0-0.6,0.1-0.9
	c0.3-1,1.3-1.9,2.5-1.9c1.8,0,2.4,1.4,2.4,3l0,5.9l1.9,0l0-6.1C214.2,271,212,270.2,210.6,270.2z"/>
<polygon points="107.3,237.3 107.3,228.2 91.9,228.2 91.9,218.6 80.7,218.6 80.7,228.3 65.2,228.3 65.3,237.4 78.2,237.4 61,252.9 
	68.5,260.1 86.3,242.8 104.3,260 111.7,252.8 94.4,237.4 "/>
<path d="M127.2,253.5c1.8,1.8,4,3.2,6.4,4.2c2.5,1.1,5.1,1.5,7.9,1.5c2.8,0,5.4-0.5,8-1.6c2.5-1,4.6-2.4,6.4-4.2
	c1.8-1.7,3.3-3.8,4.4-6.1c1.1-2.3,1.7-4.8,1.7-7.6c0-2.6-0.6-5.1-1.7-7.5c-1.2-2.3-2.6-4.3-4.5-6.1c-1.8-1.7-4-3.1-6.4-4.1
	c-2.5-1-5.2-1.5-8-1.5c-2.8,0-5.4,0.5-7.9,1.6c-2.5,1.1-4.6,2.5-6.4,4.2c-1.8,1.8-3.3,3.8-4.4,6.1c-1.1,2.4-1.7,4.9-1.7,7.5
	c0,2.8,0.5,5.3,1.7,7.6C123.9,249.8,125.4,251.9,127.2,253.5z M132.9,236.4c0.5-1.1,1.1-2.1,2-2.9c0.8-0.8,1.8-1.5,3-2
	c1.1-0.5,2.3-0.7,3.6-0.7c1.2,0,2.5,0.2,3.7,0.7c1.1,0.5,2.1,1.1,3,2c0.8,0.8,1.5,1.8,2,2.9c0.5,1.1,0.7,2.3,0.7,3.4
	c0,2.6-0.9,4.8-2.7,6.5c-1.8,1.8-4.1,2.7-6.7,2.7c-1.3,0-2.5-0.2-3.6-0.7c-1.2-0.5-2.2-1.1-3-2c-0.9-0.8-1.5-1.8-2-2.9
	c-0.5-1.1-0.8-2.3-0.8-3.6C132.2,238.7,132.4,237.5,132.9,236.4z"/>
<path d="M205.6,256.1c1.6-1.4,2.9-3.1,3.9-5.1c0.9-1.9,1.4-4,1.4-6.2c0-2.5-0.7-4.9-1.9-7.2l4.5,0l0-9.6l-15.3,0l0-9.7l-11.3,0
	l0,9.7l-15.4,0l0,9.6l4.5,0c-1.3,2.3-1.9,4.7-1.9,7.2c0,2.2,0.5,4.3,1.5,6.2c0.9,2,2.2,3.8,3.9,5.1c1.6,1.5,3.5,2.7,5.8,3.5
	c2.2,0.9,4.6,1.3,7.2,1.3c2.5,0,4.9-0.4,7.2-1.3C201.9,258.8,203.9,257.7,205.6,256.1z M198.4,249.8c-0.8,0.6-1.7,1.2-2.6,1.5
	c-1.1,0.5-2.1,0.6-3.2,0.6c-2.3,0-4.3-0.7-5.8-2.1c-1.7-1.4-2.5-3-2.5-4.9c0-1.9,0.8-3.6,2.4-5c1.5-1.4,3.5-2.1,5.8-2.1
	c2.2,0,4.1,0.7,5.8,2.1c1.5,1.4,2.4,3.1,2.4,5c0,0.9-0.2,1.8-0.6,2.7C199.7,248.4,199.1,249.2,198.4,249.8z"/>
<path d="M384.8,276.3c2.4,0,4.1,0.6,5.1,1.2l1-3.4c-1.2-0.6-3.5-1.3-6.1-1.3c-7.9,0-13,5.4-13,12.9c0,7.4,4.8,12.4,12.1,12.4
	c3.3,0,5.8-0.8,7-1.4l-0.8-3.3c-1.3,0.6-2.9,1.2-5.4,1.2c-4.8,0-8.4-3.5-8.4-9.1C376.2,280.4,379.2,276.3,384.8,276.3z"/>
<path d="M408.1,272.7c-1.7,0-3.2,0.5-4.5,1.3c-1.4,0.8-2.5,1.9-3.2,3.1h-0.1V262h-4.4v35.5h4.4v-14.6c0-0.9,0-1.5,0.3-2.1
	c0.8-2.4,3.1-4.4,5.9-4.4c4.2,0,5.6,3.3,5.6,7.2v13.9h4.4v-14.4C416.5,274.7,411.3,272.7,408.1,272.7z"/>
<path d="M440.7,282.6c0-4.9-1.8-9.9-9.2-9.9c-3.1,0-6,0.9-8,2.2l1,2.9c1.7-1.1,4.1-1.8,6.3-1.8c5,0,5.5,3.6,5.5,5.6v0.5
	c-9.4,0-14.6,3.2-14.6,9c0,3.5,2.5,7,7.4,7c3.5,0,6.1-1.7,7.4-3.6h0.1l0.3,3.1h4c-0.3-1.7-0.4-3.7-0.4-5.8V282.6z M436.5,289.3
	c0,0.5-0.1,1-0.3,1.4c-0.7,2.1-2.7,4.1-5.9,4.1c-2.3,0-4.2-1.4-4.2-4.2c0-4.7,5.5-5.6,10.3-5.5V289.3z"/>
<path d="M461.1,284.9c-0.3,0.8-0.5,1.6-0.7,2.2h0c-0.2-0.6-0.4-1.5-0.7-2.2l-2.3-6.3h-2.1l3.9,9.8c0.1,0.2,0.1,0.4,0.1,0.5
	s-0.1,0.3-0.2,0.5c-0.4,1-1.1,1.7-1.6,2.2c-0.6,0.5-1.2,0.8-1.7,0.9l0.5,1.6c0.5-0.1,1.4-0.4,2.4-1.3c1.3-1.1,2.3-3,3.7-6.7l2.9-7.6
	h-2.1L461.1,284.9z"/>
<path d="M471.3,278.4c-3,0-5.3,2.1-5.3,5.7c0,3.4,2.2,5.5,5.1,5.5c2.6,0,5.3-1.7,5.3-5.7C476.5,280.6,474.4,278.4,471.3,278.4z
	 M471.2,288.1c-1.9,0-3.2-1.8-3.2-4.1c0-2,1-4.1,3.3-4.1c2.3,0,3.2,2.3,3.2,4.1C474.5,286.3,473.1,288.1,471.2,288.1z"/>
<path d="M487.8,278.6h-1.9v6.5c0,0.4-0.1,0.7-0.2,1c-0.4,0.9-1.3,1.8-2.6,1.8c-1.8,0-2.4-1.4-2.4-3.4v-5.9h-1.9v6.2
	c0,3.7,2,4.7,3.7,4.7c1.9,0,3-1.1,3.5-2h0l0.1,1.7h1.7c-0.1-0.8-0.1-1.8-0.1-2.9V278.6z"/>
<path d="M496.4,278.4c-1.8,0-3,1-3.5,2h0l-0.1-1.8H491c0.1,0.9,0.1,1.8,0.1,2.9v7.8h1.9v-6.4c0-0.3,0-0.7,0.1-0.9
	c0.3-1.1,1.3-2,2.6-2c1.8,0,2.5,1.4,2.5,3.2v6.2h1.9v-6.4C500.1,279.3,497.8,278.4,496.4,278.4z"/>
<path d="M510.7,280.2L510.7,280.2c-0.5-0.9-1.5-1.9-3.4-1.9c-2.4,0-4.8,2-4.8,5.7c0,3,1.9,5.2,4.5,5.2c1.7,0,2.8-0.8,3.4-1.8h0v1.2
	c0,2.7-1.5,3.7-3.4,3.7c-1.3,0-2.4-0.4-3.1-0.8l-0.5,1.5c0.9,0.6,2.3,0.9,3.5,0.9c1.3,0,2.8-0.3,3.9-1.3c1-0.9,1.5-2.4,1.5-4.9v-6.2
	c0-1.3,0-2.2,0.1-2.9h-1.7L510.7,280.2z M510.5,284.7c0,0.3,0,0.7-0.2,1c-0.4,1.2-1.5,2-2.7,2c-2.1,0-3.2-1.7-3.2-3.8
	c0-2.5,1.3-4,3.2-4c1.4,0,2.4,0.9,2.7,2.1c0.1,0.3,0.1,0.6,0.1,0.9V284.7z"/>
<path d="M533.7,276.8c-1,0-1.9,0.3-2.7,0.7c-0.8,0.4-1.5,1.1-1.9,1.8h-0.1v-9h-2.6v21.1h2.6v-8.7c0-0.5,0-0.9,0.2-1.2
	c0.5-1.4,1.8-2.6,3.5-2.6c2.5,0,3.3,2,3.3,4.3v8.2h2.6V283C538.7,278,535.6,276.8,533.7,276.8z"/>
<path d="M548.5,285.6c-0.4,1-0.7,2.1-0.9,3h-0.1c-0.2-0.9-0.6-2-0.9-2.9l-3.1-8.5h-2.8l5.3,13.2c0.1,0.3,0.2,0.5,0.2,0.7
	c0,0.1-0.1,0.4-0.2,0.6c-0.6,1.3-1.5,2.3-2.2,2.9c-0.8,0.7-1.6,1.1-2.3,1.3l0.7,2.2c0.7-0.1,1.9-0.6,3.2-1.7c1.8-1.5,3.1-4.1,4.9-9
	l3.9-10.2h-2.8L548.5,285.6z"/>
<path d="M568.5,277.2h-2.6v8.8c0,0.5-0.1,0.9-0.2,1.3c-0.5,1.2-1.7,2.4-3.4,2.4c-2.4,0-3.2-1.8-3.2-4.6v-7.9h-2.6v8.4
	c0,5,2.7,6.3,5,6.3c2.5,0,4.1-1.5,4.7-2.7h0.1l0.1,2.3h2.3c-0.1-1.1-0.1-2.4-0.1-3.9V277.2z"/>
<path d="M580,276.8c-2.4,0-4,1.3-4.7,2.7h-0.1l-0.1-2.4h-2.3c0.1,1.2,0.1,2.4,0.1,3.9v10.5h2.6v-8.6c0-0.4,0.1-0.9,0.2-1.2
	c0.4-1.5,1.8-2.7,3.5-2.7c2.5,0,3.3,1.9,3.3,4.2v8.3h2.6v-8.6C585,278,582,276.8,580,276.8z"/>
<polygon points="435.6,230.6 435.6,217.8 414,217.8 414,204.3 398.4,204.3 398.4,217.8 376.7,217.8 376.7,230.6 394.8,230.6 
	370.7,252.2 381.2,262.3 406.1,238.2 431.2,262.3 441.6,252.2 417.5,230.6 "/>
<path d="M463.4,253.3c2.6,2.6,5.6,4.5,9,5.9c3.4,1.5,7.1,2.1,11.1,2.1c3.9,0,7.6-0.6,11.2-2.1c3.4-1.4,6.4-3.3,9-5.9
	c2.6-2.4,4.6-5.3,6.2-8.6c1.5-3.2,2.4-6.8,2.4-10.6c0-3.6-0.9-7.2-2.4-10.5c-1.6-3.2-3.6-6-6.2-8.6c-2.6-2.4-5.6-4.3-9-5.8
	c-3.5-1.4-7.3-2.1-11.2-2.1c-4,0-7.6,0.8-11.1,2.1c-3.4,1.5-6.4,3.4-9,5.8c-2.6,2.6-4.6,5.4-6.1,8.6c-1.6,3.3-2.4,6.9-2.4,10.5
	c0,3.9,0.8,7.4,2.4,10.6C458.8,248.1,460.8,251,463.4,253.3z M471.4,229.3c0.6-1.5,1.5-2.9,2.8-4.1c1.1-1.2,2.5-2.1,4.2-2.8
	c1.5-0.6,3.2-1,5-1c1.7,0,3.4,0.3,5.2,1c1.5,0.6,2.9,1.6,4.2,2.8c1.1,1.2,2,2.6,2.8,4.1c0.6,1.6,1,3.2,1,4.8c0,3.6-1.3,6.7-3.8,9.1
	c-2.6,2.6-5.7,3.8-9.3,3.8c-1.8,0-3.5-0.3-5-1c-1.7-0.6-3.1-1.5-4.2-2.8c-1.3-1.1-2.1-2.5-2.8-4.1c-0.8-1.5-1.1-3.2-1.1-5
	C470.4,232.5,470.7,230.9,471.4,229.3z"/>
<path d="M573.1,257.2c2.3-1.9,4.1-4.4,5.5-7.2c1.3-2.7,2-5.6,2-8.7c0-3.5-1-6.9-2.7-10.1h6.3v-13.4h-21.5v-13.5H547v13.5h-21.6v13.4
	h6.3c-1.8,3.2-2.7,6.5-2.7,10.1c0,3.1,0.6,6,2,8.7c1.3,2.8,3.1,5.3,5.5,7.2c2.3,2.1,4.9,3.8,8.2,4.9c3.1,1.3,6.4,1.8,10.1,1.8
	c3.5,0,6.9-0.5,10.1-1.8C567.9,260.9,570.7,259.3,573.1,257.2z M563,248.3c-1.1,0.9-2.4,1.6-3.6,2c-1.5,0.6-3,0.9-4.5,0.9
	c-3.2,0-6-1-8.2-3c-2.4-1.9-3.4-4.2-3.4-6.9s1.1-5,3.4-7c2.1-1.9,4.9-2.9,8.2-2.9c3.1,0,5.8,1,8.2,2.9c2.1,1.9,3.3,4.3,3.3,7
	c0,1.3-0.3,2.6-0.9,3.8C564.8,246.3,564,247.4,563,248.3z"/>
<g>
	<polygon class="st0" points="469.7,146.2 469.7,138.2 456.2,138.2 456.2,129.7 446.3,129.7 446.3,138.2 432.7,138.2 432.7,146.2 
		444.1,146.2 429,159.8 435.6,166.2 451.2,151 467,166.2 473.5,159.8 458.3,146.2 	"/>
	<path class="st0" d="M487.2,160.5c1.6,1.6,3.5,2.8,5.7,3.7c2.2,0.9,4.4,1.3,6.9,1.3c2.4,0,4.8-0.4,7-1.3c2.2-0.9,4-2.1,5.7-3.7
		c1.6-1.5,2.9-3.3,3.9-5.4c0.9-2,1.5-4.2,1.5-6.7c0-2.3-0.5-4.5-1.5-6.6c-1-2-2.3-3.8-3.9-5.4c-1.6-1.5-3.5-2.7-5.7-3.6
		c-2.2-0.9-4.6-1.3-7-1.3c-2.5,0-4.8,0.5-6.9,1.3c-2.2,0.9-4,2.2-5.7,3.6c-1.6,1.6-2.9,3.4-3.8,5.4c-1,2.1-1.5,4.3-1.5,6.6
		c0,2.4,0.5,4.7,1.5,6.7C484.3,157.2,485.6,159,487.2,160.5z M492.2,145.4c0.4-0.9,0.9-1.8,1.8-2.6c0.7-0.7,1.5-1.3,2.6-1.8
		c0.9-0.4,2-0.6,3.2-0.6c1.1,0,2.2,0.2,3.2,0.6c0.9,0.4,1.8,1,2.6,1.8c0.7,0.7,1.3,1.6,1.8,2.6c0.4,1,0.6,2,0.6,3
		c0,2.3-0.8,4.2-2.4,5.7c-1.6,1.6-3.6,2.4-5.9,2.4c-1.1,0-2.2-0.2-3.2-0.6c-1.1-0.4-2-0.9-2.6-1.8c-0.8-0.7-1.3-1.6-1.8-2.6
		c-0.5-0.9-0.7-2-0.7-3.2C491.6,147.4,491.8,146.4,492.2,145.4z"/>
	<path class="st0" d="M556.1,162.9c1.4-1.2,2.6-2.8,3.4-4.5c0.8-1.7,1.3-3.5,1.3-5.5c0-2.2-0.6-4.3-1.7-6.3h4v-8.4h-13.5v-8.5h-9.9
		v8.5h-13.5v8.4h4c-1.1,2-1.7,4.1-1.7,6.3c0,2,0.4,3.8,1.3,5.5c0.8,1.8,2,3.3,3.4,4.5c1.4,1.3,3.1,2.4,5.1,3.1c2,0.8,4,1.1,6.3,1.1
		c2.2,0,4.3-0.3,6.3-1.1C552.8,165.3,554.6,164.3,556.1,162.9z M549.7,157.4c-0.7,0.5-1.5,1-2.3,1.3c-0.9,0.4-1.9,0.5-2.8,0.5
		c-2,0-3.8-0.6-5.1-1.9c-1.5-1.2-2.2-2.6-2.2-4.3c0-1.7,0.7-3.2,2.2-4.4c1.3-1.2,3.1-1.8,5.1-1.8c2,0,3.6,0.6,5.1,1.8
		c1.3,1.2,2.1,2.7,2.1,4.4c0,0.8-0.2,1.6-0.5,2.4C550.9,156.1,550.4,156.8,549.7,157.4z"/>
</g>
<path d="M47.1,252.4c-0.4,0.3-0.4,0.9-0.4,1c0,0.2,0,0.4,0.1,0.6c0,0.1,0.1,0.2,0.1,0.3c0.1,3.3,0.1,6.2-0.3,9.1
	c-0.2,1.4-0.4,2.9-0.7,4.2l0,0.2c-0.3,1.4-0.6,2.8-0.8,3.8c-0.3,1.1-0.8,2.2-1.7,3.2c-1.6,1.9-3.5,3.6-6,5.1c-1.5,1-3.2,1.8-4.7,2.6
	l-0.5,0.3c-0.9,0.5-1.7,0.6-2.4,0.6c-0.5-0.1-1-0.1-1.5-0.2l-0.3,0c-0.5-0.1-1-0.2-1.4-0.3c-0.5-0.1-1-0.2-1.4-0.4
	c-0.4-0.1-0.9-0.2-1.3-0.3c-0.3-0.1-0.7-0.1-1-0.2c-0.6-0.1-1.1-0.2-1.6-0.4c-1.4-0.5-2.8-1.1-4.4-1.8c-2.5-1.1-4.4-3-5.9-5.8
	c-0.8-1.5-1.5-3.1-1.9-4.7c-0.2-0.9-0.5-1.7-0.7-2.6l-0.4-1.3c-0.1-0.4-0.2-0.9-0.4-1.3l-0.1-0.3c-0.1-0.5-0.2-1-0.3-1.5
	c-0.1-0.3-0.1-0.7-0.2-1c0-0.3-0.1-0.6-0.2-0.9c-0.2-0.8-0.3-1.6-0.5-2.5c-0.1-0.3-0.3-0.8-0.8-0.8c0,0,0,0,0,0
	c-0.3,0-0.8,0.2-0.9,0.6c0,0,0,0-0.1,0l-0.1,0c0-0.2-0.1-0.4-0.2-0.6c-0.1-0.3-0.2-0.5-0.4-0.8c-0.3-0.6-0.5-1.1-0.7-1.7
	c-0.2-0.6-0.3-1.2-0.4-1.8c-0.1-0.4-0.1-0.8-0.2-1.2c-0.3-1.3-0.3-2.6,0-3.9l0.1-0.3c0.1-0.5,0.2-1,0.3-1.5c0.1-1,0.1-2,0-3
	c-0.1-1.7,0.2-3,0.8-4.2c0.3-0.5,0.6-1,1-1.6c0.3-0.4,0.5-0.8,0.8-1.2c0.2-0.4,0.4-0.8,0.6-1.3c0.1-0.2,0.2-0.4,0.2-0.5L6,234
	l-0.6-1.3c0.8-0.4,1.5-1,2-1.7c0.2-0.3,0.4-0.7,0.5-1l0-0.1c0.1-0.2,0.1-0.5,0.2-0.7c0-0.2,0.1-0.3,0.2-0.5c0.3-1,1-1.8,2.1-2.5
	c0.4-0.3,0.8-0.4,1.3-0.6c0.3-0.1,0.6-0.3,1-0.4c1.2-0.6,2.4-0.8,3.8-0.9c0.4,0,0.9,0,1.4,0.1c0.2,0,0.4,0.1,0.6,0.1
	c0.2,0,0.4,0.1,0.7,0.1c0.2,0,0.5,0.1,0.7,0.1c0.2,0,0.4,0,0.7,0l0.9,0l-0.1-0.6c0-0.3-0.1-1.1-1-1.3c-0.3-0.1-0.6-0.1-0.9-0.2
	c-0.7-0.1-1.3-0.3-2-0.3c-1.1-0.1-2.2-0.1-3.2,0.1c-1.2,0.3-2.4,0.8-3.5,1.3c-2.5,1.1-4,2.8-4.5,5.2c-0.1,0.6-0.3,1-0.7,1.3
	l-0.1,0.1c-0.4,0.3-0.9,0.6-1.3,0.8c-0.1,0.1-0.3,0.1-0.4,0.2c-0.2,0.1-0.3,0.2-0.5,0.3c-0.3,0.2-0.5,0.5-0.4,0.9
	c0.1,0.3,0.3,0.5,0.7,0.6c0.2,0,0.5,0.1,0.8,0.1c0.3,0,0.5,0,0.8-0.1l-0.2,0.3c-0.1,0.1-0.2,0.2-0.3,0.4c-0.7,1-1.4,2.1-2,3.1
	l-0.1,0.2c-0.3,0.5-0.6,1-0.8,1.5c-0.2,0.4-0.3,0.9-0.4,1.3c-0.1,0.3-0.1,0.6-0.2,0.8c-0.3,1.1-0.4,2.2-0.1,3.4
	c0.1,0.6,0,1.1-0.1,1.7c0,0.2-0.1,0.5-0.1,0.7c0,0.3-0.1,0.7-0.2,1c-0.1,0.5-0.2,0.9-0.2,1.4c-0.1,1.5,0.1,3.2,0.5,5.1
	c0.3,1.2,0.6,2.4,1.2,3.6c0.2,0.4,0.4,0.6,0.6,0.8c-0.9,0.4-1.6,1.1-1.9,1.9c-0.4,1-0.4,2.1,0,3.1c0.6,1.5,1.8,2.6,3.2,3.3
	c0.8,0.4,1.3,0.9,1.5,1.7c0.3,1.2,1.1,2.1,1.6,2.7c0.3,0.3,0.5,0.6,0.7,1c0.5,1.3,1.2,2.7,1.9,3.9c1.3,2.2,3,3.9,5,5.1
	c1.1,0.6,2.2,1.2,3.5,1.7c1.1,0.4,2.2,0.8,3.3,1.1l0.8,0.2c0.3,0.1,0.6,0.2,0.9,0.2c0.2,0,0.4,0.1,0.6,0.1c0.3,0.1,0.6,0.2,1,0.3
	c0.6,0.2,1.2,0.3,1.8,0.4c0.9,0.2,1.9,0.3,2.8,0.4l0.7,0.1c0.1,0,0.2,0,0.4,0c0.2,0,0.4,0,0.5-0.1l0.5-0.1c0.6-0.2,1.2-0.3,1.8-0.6
	c1.5-0.7,2.9-1.3,4.2-2.1c1.3-0.8,2.5-1.6,3.6-2.5l0.3-0.3c1.6-1.2,3.7-2.9,5-5.4c0.8-1.4,1.2-2.8,1.5-4.2c0.1-0.5,0.2-1,0.3-1.6
	c0-0.2,0.1-0.4,0.1-0.7l0.5-3.3l0-0.2c0-0.3,0-0.4,0.1-0.4l0,0l0,0c0,0,0,0,0,0c0.4-0.1,0.5-0.4,0.6-0.6c0.2-0.4,0.3-0.8,0.5-1.1
	l0.3-0.8c0.2-0.4,0.3-0.8,0.2-1.1c0-0.1-0.1-0.2-0.2-0.3c0,0,0,0,0,0c0.3-0.4,0.7-0.8,0.9-1.2c0.2-0.4,0.4-0.8,0.5-1.2
	c0.1-0.4,0.3-0.7,0.4-1c0.6-1.1-0.1-3.2-0.8-3.9C50.2,251.8,48,251.6,47.1,252.4z M2.4,260.7c0.3-0.6,0.9-0.9,1.6-0.9c0,0,0,0,0,0
	c0.2,0,0.3,0,0.5,0c0,0,0.1,0,0.1,0c0,0.1,0,0.3,0,0.6c0,0.6,0.2,1.1,0.3,1.6c0.1,0.2,0.1,0.5,0.2,0.7l0.1,0.6
	c0.1,0.4,0.2,0.8,0.2,1.2c0,0.1,0.1,0.3,0.1,0.4c0,0.1,0.1,0.2,0.1,0.4c-1.3-0.6-2.5-1.4-3.2-2.7C2.1,261.9,2.1,261.2,2.4,260.7z
	 M49.5,257.4c-0.1,0.3-0.3,0.5-0.5,0.8l0-0.7c0-0.7,0-1.5,0-2.2c0-0.4-0.1-0.8-0.2-1.3c0.4-0.1,0.7,0,0.9,0.1c0.2,0.2,0.4,0.5,0.5,1
	c0.1,0.7-0.2,1.4-0.5,2.1L49.5,257.4z"/>
<path d="M37.1,225.9c-0.1,0.1-0.1,0.3,0,0.6c0.2,0.3,0.6,0.7,1,0.7c0.6,0,1.3-0.1,1.9-0.3c0.8-0.3,1.5,0,2.4,0.5
	c0.8,0.4,1.4,1.2,2.1,1.9l0.3,0.3c0.4,0.5,0.8,1,1,1.5c0.3,0.6,0.5,1.2,0.7,1.8c0.1,0.4,0.3,0.7,0.4,1.1c0.4,0.9,0.8,2.1,0.7,3.4
	c0,0.2,0,0.3,0,0.5c0,0.2,0,0.3,0,0.5c-0.1,1,0.3,1.8,0.6,2.5l0.4,1c0.2,0.6,0.5,1.2,0.7,1.8c0.1,0.5,0.2,0.9,0.3,1.4
	c0.1,0.4,0.2,0.9,0.3,1.3c0.2,0.9,0.2,1.7,0,2.6c-0.1,0.3-0.1,0.7-0.1,1c0,0.4,0.6,0.6,0.6,0.7l0.3,0.1l0.4-0.3
	c0.3-0.2,0.6-0.4,0.7-0.8c0.2-0.7,0.3-1.3,0.3-1.8c-0.1-1.3-0.3-2.4-0.5-3.4c-0.3-1.1-0.6-2.1-1.1-3.3c-0.1-0.2-0.2-0.5-0.3-0.7
	c-0.4-1-0.8-1.9-0.6-3l0-0.1c0.1-1.2-0.1-2.3-0.6-3.4c-0.2-0.5-0.4-1-0.5-1.6c-0.4-1.5-0.9-2.5-1.6-3.4c-0.9-1.1-1.8-2.1-2.8-3
	c-0.8-0.7-1.8-1.2-2.9-1.2c-1.1-0.1-2.3,0.1-3.6,0.6C37.5,225.5,37.2,225.6,37.1,225.9z"/>
<path d="M42.2,258.9c0.3,0,0.7-0.1,1-0.3c0.4-0.3,0.4-0.8,0.3-1c0-0.3-0.4-0.7-0.8-0.7c0,0,0,0,0,0c-0.2,0-0.4,0-0.6,0c0,0,0,0,0,0
	c0-0.3-0.1-0.5-0.2-0.6c-0.3-0.3-0.6-0.2-0.8-0.2c-0.1,0-0.3,0-0.4,0.1c-0.2,0-0.3,0.1-0.5,0.1c-0.4,0.1-0.9,0.2-1.3,0.4
	c-0.1,0.1-0.2,0.1-0.4,0.1c-0.4,0.1-1.1,0.4-1.3,1.1c0,0,0,0-0.1,0c-0.1,0.1-0.3,0.1-0.4,0.2c-0.3,0.1-0.7,0.2-1,0.5
	c-0.8,0.6-1.5,1.2-2.2,1.8c-0.3,0.2-0.2,0.6-0.2,0.8c0,0.1,0,0.1,0,0.2l0,0.6l0.6-0.1c0.1,0,0.1,0,0.2,0c0.2,0,0.4,0,0.6-0.1
	c0,0,0,0,0,0c0,0.2,0,0.3,0,0.5c0,0.5,0.4,1.1,0.9,1.5c0.4,0.2,0.9,0.4,1.4,0.4c0.2,0,0.4,0,0.5-0.1c0.9-0.4,1.5-1.2,1.7-2.2
	c0.1-0.8-0.1-1.6-0.6-2.2l0,0C40,259.2,41.1,258.9,42.2,258.9z M37,261.5l0-0.5c0,0,0,0,0-0.1c0,0,0-0.1,0-0.1
	c0.1,0,0.3,0.2,0.4,0.3c0.1,0.2-0.1,0.7-0.3,0.7C37,261.7,37,261.6,37,261.5z M36.5,261.3L36.5,261.3L36.5,261.3L36.5,261.3z"/>
<path d="M14.3,262.3c0,0.5,0.1,1.1,0.4,1.5c0.4,0.6,1,0.9,1.7,0.9c0.2,0,0.4,0,0.7-0.1c0.8-0.2,1.3-0.8,1.5-1.7l0.2-0.6
	c0.6,0.2,0.9-0.1,1.1-0.4c0.5-0.6,0-1.2-0.1-1.4c-0.2-0.2-0.5-0.4-0.6-0.4c-0.5-0.2-1.1-0.4-1.6-0.6l-2-0.8
	c-0.1-0.1-0.3-0.1-0.4-0.2c-0.4-0.2-0.8-0.4-1.3-0.4c-0.2,0-0.4,0-0.6,0c-0.9-0.1-1.9-0.1-2.8,0.3c-0.2,0.1-0.3,0.3-0.4,0.5
	l-0.3,0.6l0.6,0.2c-0.1,0.1-0.1,0.2-0.2,0.3c-0.1,0.2-0.1,0.5,0.1,0.7c0.2,0.3,0.6,0.5,1,0.5c0.2,0,0.4-0.1,0.5-0.2c0,0,0.1,0,0.1,0
	c0.9,0,1.9,0,2.9,0c0,0.1,0,0.2-0.1,0.3C14.4,261.7,14.3,262,14.3,262.3z M16.2,262.2L16.2,262.2c0.1-0.2,0.1-0.3,0.1-0.4
	c0.2,0.1,0.3,0.2,0.4,0.3c0,0,0,0.1-0.1,0.4c0,0.1-0.1,0.1-0.1,0.2c0,0-0.1,0-0.1,0C16.4,262.6,16.3,262.6,16.2,262.2z"/>
<path d="M22.4,223.6c0.1,0,0.4,0.1,0.6,0c0.3-0.1,0.5-0.3,0.7-0.4c1.4-1,3-1.3,4.5-1.4c0.8-0.1,1.5,0,2.3,0c0.3,0,0.6,0,0.9,0
	c0.2,0,0.3,0,0.4,0.1c0.9,0.3,1.7,0.8,2.5,1.6c1,0.9,2.1,1.4,3.4,1.4c0.4,0,0.7,0,1.1-0.1c0.4-0.1,0.7-0.5,0.8-0.8
	c0.1-0.3,0-0.5-0.1-0.7c-0.2-0.3-0.6-0.3-0.8-0.3c-0.1,0-0.2,0-0.3,0c-1,0-1.9-0.3-2.7-1c-1.2-1.1-3.1-2.5-5-2.2
	c-2.5,0.1-4.3,0.3-6,0.9c-1,0.4-1.9,1-2.6,1.8c-0.2,0.2-0.2,0.5-0.2,0.7l0,0.5L22.4,223.6z"/>
<path d="M33.4,258l0.1-0.2l-0.1-0.2c-0.2-0.5-0.6-0.7-0.9-0.9l-0.3-0.2c-0.3-0.2-0.6-0.3-0.8-0.5c-0.4-0.5-0.4-1.2-0.4-1.9
	c0-1.4,0-2.7,0-4.1l0-0.3c0-1.4,0-2.9-0.6-4.4c-0.3-0.9-0.7-1.7-1.4-2.4c-0.3-0.3-1.1-1-2.2-0.8c-0.3,0.1-0.5,0.3-0.6,0.5
	c0,0.1-0.1,0.1-0.1,0.1l-0.5,0.5l0.7,0.3c0,0,0.1,0,0.1,0.1c0.2,0.1,0.4,0.2,0.7,0.2c0.3,0,0.5,0.1,0.7,0.3c0.6,0.6,0.9,1.4,1.1,2.5
	c0.2,1.1,0.2,2.3,0.2,3.4l0,0.9c0,0.5,0,0.9,0,1.4c0,0.5,0,1,0,1.5l0,0.4c0,0.7,0,1.5,0.3,2.3c0.4,1.3,1.9,1.9,3,1.9
	c0.2,0,0.3,0,0.5,0l0.2-0.1L33.4,258l-0.4-0.3c0,0,0,0,0,0L33.4,258z"/>
<path d="M23.9,243.7c0.2-0.2,0.3-0.4,0.5-0.6c0.2-0.2,0.2-0.4,0.2-0.6c0,0,0-0.1,0-0.1l0.2-0.6l-0.6,0c0,0-0.1,0-0.1,0
	c-0.2,0-0.4-0.1-0.7,0.1c-1.2,0.6-1.9,1.6-2.2,2.9c-0.3,1.4-0.2,2.7,0.3,3.9c0.4,1,0.8,2.2,1,3.3c0.1,0.9,0.2,1.8,0.2,2.7
	c0,0.4,0,0.8,0.1,1.2c0,0.5-0.1,0.9-0.3,1.2c-0.2,0.3-0.2,0.6-0.1,0.9c0.1,0.3,0.4,0.5,0.8,0.5c0,0,0,0,0,0c0.7,0,1.4-0.9,1.4-1.6
	c0.1-1.9,0.1-4.1-0.5-6.3c-0.3-1-0.6-2-0.9-3c-0.4-1.1-0.3-2.1,0.2-3C23.4,244.2,23.7,244,23.9,243.7z"/>
<rect x="296.2" y="-39.3" class="st0" width="303.1" height="129.8"/>
<g>
	<path class="st1" d="M401,44.4c1.7,0,2.9,0.4,3.6,0.8l0.7-2.4c-0.9-0.4-2.5-0.9-4.4-0.9c-5.6,0-9.3,3.9-9.3,9.2
		c0,5.3,3.4,8.8,8.6,8.8c2.3,0,4.1-0.6,5-1l-0.5-2.4c-0.9,0.4-2.1,0.9-3.9,0.9c-3.4,0-6-2.5-6-6.5C394.9,47.3,397.1,44.4,401,44.4z"
		/>
	<path class="st1" d="M417.7,41.9c-1.2,0-2.3,0.4-3.2,0.9c-1,0.5-1.8,1.3-2.3,2.2h-0.1V34.2H409v25.4h3.1V49.1c0-0.6,0-1.1,0.2-1.5
		c0.6-1.7,2.2-3.1,4.2-3.1c3,0,4,2.4,4,5.1v9.9h3.1V49.2C423.7,43.3,420,41.9,417.7,41.9z"/>
	<path class="st1" d="M441,48.9c0-3.5-1.3-7.1-6.6-7.1c-2.2,0-4.3,0.6-5.7,1.5l0.7,2.1c1.2-0.8,2.9-1.3,4.5-1.3c3.5,0,3.9,2.6,3.9,4
		v0.4c-6.7,0-10.4,2.3-10.4,6.4c0,2.5,1.8,5,5.3,5c2.5,0,4.3-1.2,5.3-2.6h0.1l0.3,2.2h2.9c-0.2-1.2-0.3-2.6-0.3-4.1V48.9z
		 M437.9,53.7c0,0.3-0.1,0.7-0.2,1c-0.5,1.5-1.9,2.9-4.2,2.9c-1.6,0-3-1-3-3c0-3.4,3.9-4,7.3-3.9V53.7z"/>
	<path class="st1" d="M455.6,50.5c-0.2,0.6-0.3,1.1-0.5,1.6h0c-0.1-0.5-0.3-1.1-0.5-1.6l-1.7-4.5h-1.5l2.8,7
		c0.1,0.2,0.1,0.3,0.1,0.4s0,0.2-0.1,0.3c-0.3,0.7-0.8,1.2-1.2,1.5c-0.4,0.3-0.9,0.6-1.2,0.7l0.3,1.2c0.3-0.1,1-0.3,1.7-0.9
		c0.9-0.8,1.6-2.2,2.6-4.8l2.1-5.4h-1.5L455.6,50.5z"/>
	<path class="st1" d="M462.9,45.9c-2.1,0-3.8,1.5-3.8,4c0,2.4,1.6,3.9,3.7,3.9c1.8,0,3.8-1.2,3.8-4
		C466.5,47.5,465.1,45.9,462.9,45.9z M462.8,52.8c-1.4,0-2.3-1.3-2.3-2.9c0-1.4,0.7-3,2.3-3c1.6,0,2.3,1.6,2.3,2.9
		C465.1,51.6,464.1,52.8,462.8,52.8z"/>
	<path class="st1" d="M474.7,46.1h-1.4v4.7c0,0.3,0,0.5-0.1,0.7c-0.3,0.6-0.9,1.3-1.8,1.3c-1.3,0-1.7-1-1.7-2.4v-4.2h-1.4v4.5
		c0,2.7,1.4,3.3,2.6,3.3c1.4,0,2.2-0.8,2.5-1.4h0l0.1,1.2h1.2c0-0.6-0.1-1.3-0.1-2.1V46.1z"/>
	<path class="st1" d="M480.7,45.9c-1.3,0-2.1,0.7-2.5,1.4h0l-0.1-1.3h-1.2c0,0.6,0.1,1.3,0.1,2.1v5.6h1.4v-4.6c0-0.2,0-0.5,0.1-0.6
		c0.2-0.8,0.9-1.4,1.9-1.4c1.3,0,1.8,1,1.8,2.3v4.4h1.4v-4.6C483.4,46.5,481.8,45.9,480.7,45.9z"/>
	<path class="st1" d="M491,47.2L491,47.2c-0.4-0.6-1.1-1.3-2.4-1.3c-1.7,0-3.4,1.5-3.4,4c0,2.1,1.4,3.7,3.2,3.7c1.2,0,2-0.6,2.4-1.3
		h0v0.9c0,1.9-1,2.7-2.5,2.7c-0.9,0-1.7-0.3-2.2-0.6l-0.3,1.1c0.6,0.4,1.6,0.6,2.5,0.6c1,0,2-0.2,2.8-0.9c0.7-0.7,1.1-1.7,1.1-3.5
		v-4.4c0-0.9,0-1.5,0.1-2.1H491L491,47.2z M490.8,50.4c0,0.2,0,0.5-0.1,0.7c-0.3,0.9-1.1,1.4-1.9,1.4c-1.5,0-2.3-1.2-2.3-2.7
		c0-1.8,0.9-2.9,2.3-2.9c1,0,1.7,0.7,1.9,1.5c0.1,0.2,0.1,0.4,0.1,0.6V50.4z"/>
	<path class="st1" d="M507.4,44.8c-0.7,0-1.4,0.2-1.9,0.5c-0.6,0.3-1,0.8-1.3,1.3h0v-6.4h-1.9v15h1.9v-6.2c0-0.4,0-0.6,0.1-0.9
		c0.3-1,1.3-1.9,2.5-1.9c1.8,0,2.4,1.4,2.4,3v5.9h1.9v-6.1C511,45.6,508.8,44.8,507.4,44.8z"/>
	<path class="st1" d="M518,51c-0.3,0.7-0.5,1.5-0.7,2.1h0c-0.2-0.6-0.4-1.4-0.7-2.1l-2.2-6.1h-2l3.8,9.4c0.1,0.2,0.1,0.4,0.1,0.5
		c0,0.1-0.1,0.3-0.1,0.4c-0.4,1-1.1,1.7-1.6,2.1c-0.6,0.5-1.2,0.8-1.6,0.9l0.5,1.6c0.5-0.1,1.4-0.4,2.3-1.2c1.3-1.1,2.2-2.9,3.5-6.4
		L522,45h-2L518,51z"/>
	<path class="st1" d="M532.3,45h-1.9v6.3c0,0.3-0.1,0.7-0.2,1c-0.3,0.8-1.2,1.7-2.5,1.7c-1.7,0-2.3-1.3-2.3-3.3V45h-1.9v6
		c0,3.6,1.9,4.5,3.5,4.5c1.8,0,2.9-1.1,3.4-1.9h0l0.1,1.7h1.7c-0.1-0.8-0.1-1.7-0.1-2.8V45z"/>
	<path class="st1" d="M540.5,44.8c-1.7,0-2.9,1-3.4,1.9h0l-0.1-1.7h-1.7c0.1,0.8,0.1,1.7,0.1,2.8v7.5h1.9v-6.2c0-0.3,0-0.6,0.1-0.9
		c0.3-1,1.3-1.9,2.5-1.9c1.8,0,2.4,1.4,2.4,3v5.9h1.9v-6.1C544.1,45.6,541.9,44.8,540.5,44.8z"/>
	<polygon class="st1" points="437.3,11.7 437.3,2.6 421.9,2.6 421.9,-7.1 410.7,-7.1 410.7,2.6 395.2,2.6 395.2,11.7 408.2,11.7 
		391,27.2 398.5,34.4 416.2,17.2 434.2,34.4 441.6,27.2 424.4,11.7 	"/>
	<path class="st1" d="M457.2,28c1.8,1.8,4,3.2,6.4,4.2c2.5,1.1,5.1,1.5,7.9,1.5c2.8,0,5.4-0.5,8-1.5c2.5-1,4.6-2.4,6.4-4.2
		c1.8-1.7,3.3-3.8,4.4-6.1c1.1-2.3,1.7-4.8,1.7-7.6c0-2.6-0.6-5.1-1.7-7.5c-1.1-2.3-2.6-4.3-4.4-6.1c-1.8-1.7-4-3.1-6.4-4.1
		c-2.5-1-5.2-1.5-8-1.5c-2.8,0-5.4,0.5-7.9,1.5c-2.5,1.1-4.6,2.5-6.4,4.1c-1.8,1.8-3.3,3.8-4.4,6.1c-1.2,2.4-1.7,4.9-1.7,7.5
		c0,2.8,0.5,5.3,1.7,7.6C453.9,24.2,455.3,26.3,457.2,28z M462.9,10.8c0.5-1.1,1.1-2.1,2-2.9c0.8-0.8,1.8-1.5,3-2
		c1.1-0.5,2.3-0.7,3.6-0.7c1.2,0,2.5,0.2,3.7,0.7c1.1,0.5,2.1,1.1,3,2c0.8,0.8,1.5,1.8,2,2.9c0.5,1.1,0.7,2.3,0.7,3.4
		c0,2.6-0.9,4.8-2.7,6.5c-1.8,1.8-4.1,2.7-6.7,2.7c-1.3,0-2.5-0.2-3.6-0.7c-1.2-0.5-2.2-1.1-3-2c-0.9-0.8-1.5-1.8-2-2.9
		c-0.5-1.1-0.8-2.3-0.8-3.6C462.2,13.1,462.4,12,462.9,10.8z"/>
	<path class="st1" d="M535.5,30.7c1.6-1.4,2.9-3.1,3.9-5.1c0.9-1.9,1.5-4,1.5-6.2c0-2.5-0.7-4.9-1.9-7.2h4.5V2.6h-15.3v-9.7h-11.3
		v9.7h-15.4v9.6h4.5c-1.3,2.3-1.9,4.7-1.9,7.2c0,2.2,0.5,4.3,1.5,6.2c0.9,2,2.2,3.8,3.9,5.1c1.6,1.5,3.5,2.7,5.8,3.5
		c2.2,0.9,4.6,1.3,7.2,1.3c2.5,0,4.9-0.4,7.2-1.3C531.9,33.4,533.9,32.3,535.5,30.7z M528.3,24.4c-0.8,0.6-1.7,1.1-2.6,1.5
		c-1.1,0.5-2.1,0.6-3.2,0.6c-2.3,0-4.3-0.7-5.8-2.1c-1.7-1.4-2.5-3-2.5-4.9s0.8-3.6,2.5-5c1.5-1.4,3.5-2.1,5.8-2.1
		c2.2,0,4.1,0.7,5.8,2.1c1.5,1.4,2.4,3.1,2.4,5c0,0.9-0.2,1.8-0.6,2.7C529.6,23,529,23.8,528.3,24.4z"/>
	<path class="st1" d="M377,26.6c-0.4,0.3-0.4,0.9-0.4,1c0,0.2,0,0.4,0.1,0.6c0,0.1,0.1,0.2,0.1,0.3c0.1,3.3,0,6.2-0.3,9.1
		c-0.2,1.4-0.4,2.9-0.7,4.2l0,0.2c-0.3,1.4-0.6,2.8-0.8,3.8c-0.3,1.1-0.8,2.2-1.7,3.2c-1.6,1.9-3.5,3.6-6,5.1
		c-1.5,0.9-3.2,1.8-4.8,2.6l-0.5,0.3c-0.9,0.5-1.7,0.6-2.4,0.6c-0.5-0.1-1-0.1-1.5-0.2l-0.3-0.1c-0.5-0.1-1-0.2-1.4-0.3
		c-0.5-0.1-1-0.2-1.4-0.4c-0.4-0.1-0.9-0.2-1.3-0.3c-0.3-0.1-0.7-0.1-1-0.2c-0.6-0.1-1.1-0.2-1.6-0.4c-1.4-0.5-2.8-1.1-4.4-1.8
		c-2.5-1.1-4.4-3-5.9-5.8c-0.8-1.5-1.5-3.1-1.9-4.7c-0.2-0.9-0.5-1.7-0.7-2.6l-0.4-1.3c-0.1-0.4-0.2-0.9-0.4-1.3l-0.1-0.3
		c-0.1-0.5-0.2-1-0.3-1.5c-0.1-0.3-0.1-0.7-0.2-1c0-0.3-0.1-0.6-0.2-0.9c-0.2-0.8-0.3-1.6-0.5-2.5c-0.1-0.3-0.3-0.8-0.8-0.8
		c0,0,0,0,0,0c-0.3,0-0.8,0.2-0.9,0.6c0,0,0,0-0.1,0l-0.1,0c0-0.2-0.1-0.4-0.2-0.6c-0.1-0.3-0.2-0.5-0.4-0.8
		c-0.3-0.6-0.5-1.1-0.7-1.7c-0.2-0.6-0.3-1.2-0.4-1.8c-0.1-0.4-0.1-0.8-0.2-1.2c-0.3-1.3-0.3-2.6,0-3.9l0.1-0.3
		c0.1-0.5,0.2-1,0.3-1.5c0.1-1,0.1-2,0-3c-0.1-1.7,0.2-3,0.8-4.2c0.3-0.5,0.6-1,1-1.6c0.3-0.4,0.5-0.8,0.8-1.2
		c0.2-0.4,0.4-0.8,0.6-1.3c0.1-0.2,0.2-0.4,0.2-0.5l0.1-0.2l-0.6-1.3c0.8-0.4,1.5-1,2.1-1.7c0.2-0.3,0.4-0.7,0.5-1l0-0.1
		c0.1-0.2,0.1-0.5,0.2-0.7c0-0.2,0.1-0.3,0.2-0.5c0.3-1,1-1.8,2.1-2.5c0.4-0.3,0.8-0.4,1.3-0.6c0.3-0.1,0.6-0.3,1-0.4
		c1.2-0.6,2.4-0.8,3.8-0.9c0.4,0,0.9,0,1.4,0.1c0.2,0,0.4,0.1,0.6,0.1c0.2,0,0.4,0.1,0.7,0.1c0.2,0,0.5,0.1,0.7,0.1
		c0.2,0,0.4,0,0.7,0l0.9,0l0-0.6c0-0.3-0.1-1.1-1-1.3c-0.3-0.1-0.6-0.1-0.9-0.2c-0.7-0.1-1.3-0.3-2-0.3c-1.1-0.1-2.2-0.1-3.2,0.1
		c-1.2,0.3-2.4,0.8-3.5,1.3c-2.5,1.1-4,2.8-4.5,5.2c-0.1,0.6-0.3,1-0.7,1.3l-0.1,0.1c-0.4,0.3-0.9,0.6-1.3,0.8
		c-0.1,0.1-0.3,0.1-0.4,0.2c-0.2,0.1-0.3,0.2-0.5,0.3c-0.3,0.2-0.5,0.5-0.4,0.9c0.1,0.3,0.3,0.5,0.7,0.6c0.2,0,0.5,0.1,0.8,0.1
		c0.3,0,0.5,0,0.8-0.1l-0.2,0.3c-0.1,0.1-0.2,0.2-0.3,0.4c-0.7,1-1.4,2.1-2,3.1l-0.1,0.2c-0.3,0.5-0.6,1-0.8,1.5
		c-0.2,0.4-0.3,0.9-0.4,1.3c-0.1,0.3-0.1,0.5-0.2,0.8c-0.3,1.1-0.4,2.2-0.1,3.4c0.1,0.6,0,1.1-0.1,1.7c0,0.2-0.1,0.5-0.1,0.7
		c0,0.3-0.1,0.7-0.2,1c-0.1,0.5-0.2,0.9-0.2,1.4c-0.1,1.5,0,3.2,0.5,5.1c0.3,1.2,0.6,2.4,1.2,3.6c0.2,0.4,0.4,0.6,0.6,0.8
		c-0.9,0.4-1.6,1-2,1.9c-0.4,1-0.4,2.1,0,3.1c0.6,1.5,1.8,2.6,3.2,3.3c0.8,0.4,1.3,0.9,1.5,1.7c0.3,1.2,1.1,2.1,1.6,2.7
		c0.3,0.3,0.5,0.6,0.7,1c0.5,1.3,1.1,2.7,1.9,3.9c1.3,2.2,3,3.9,5,5.1c1.1,0.6,2.2,1.2,3.5,1.7c1.1,0.4,2.2,0.8,3.3,1.1l0.8,0.2
		c0.3,0.1,0.6,0.2,0.9,0.2c0.2,0,0.4,0.1,0.6,0.1c0.3,0.1,0.6,0.2,1,0.3c0.6,0.2,1.2,0.3,1.8,0.4c0.9,0.2,1.9,0.3,2.8,0.4l0.7,0.1
		c0.1,0,0.2,0,0.4,0c0.2,0,0.4,0,0.5-0.1l0.5-0.1c0.6-0.2,1.2-0.3,1.8-0.6c1.5-0.7,2.9-1.3,4.2-2.1c1.3-0.7,2.5-1.6,3.6-2.5L371,54
		c1.6-1.2,3.7-2.9,5.1-5.4c0.8-1.4,1.2-2.8,1.5-4.2c0.1-0.5,0.2-1,0.3-1.6c0-0.2,0.1-0.4,0.1-0.7l0.5-3.3l0-0.2c0-0.3,0-0.4,0.1-0.4
		l0,0l0,0c0,0,0,0,0,0c0.4-0.1,0.5-0.4,0.6-0.6c0.2-0.4,0.3-0.8,0.5-1.1l0.3-0.8c0.2-0.4,0.3-0.8,0.2-1.1c0-0.1-0.1-0.2-0.2-0.3
		c0,0,0,0,0,0c0.3-0.4,0.7-0.8,0.9-1.2c0.2-0.4,0.4-0.8,0.5-1.2c0.1-0.4,0.3-0.7,0.4-1c0.6-1.1-0.1-3.2-0.8-3.9
		C380.2,26.1,378,25.9,377,26.6z M332.4,34.8c0.3-0.6,0.9-0.9,1.6-0.9c0,0,0,0,0,0c0.2,0,0.3,0,0.5,0c0,0,0.1,0,0.1,0
		c0,0.1,0,0.3,0,0.6c0,0.6,0.2,1.1,0.3,1.6c0.1,0.2,0.1,0.5,0.2,0.7l0.1,0.6c0.1,0.4,0.2,0.8,0.2,1.2c0,0.1,0.1,0.3,0.1,0.4
		c0,0.1,0.1,0.2,0.1,0.4c-1.3-0.6-2.5-1.4-3.2-2.7C332,36.1,332,35.4,332.4,34.8z M379.4,31.6c-0.1,0.3-0.3,0.5-0.5,0.8l0-0.7
		c0-0.7,0-1.5,0-2.2c0-0.4-0.1-0.8-0.2-1.3c0.4-0.1,0.7,0,0.9,0.1c0.2,0.2,0.4,0.5,0.5,1c0.1,0.7-0.2,1.4-0.5,2.1L379.4,31.6z"/>
	<path class="st1" d="M367.1,0.1c-0.1,0.1-0.1,0.3,0,0.6c0.2,0.3,0.6,0.7,1,0.7c0.6,0,1.3-0.1,1.9-0.3c0.8-0.3,1.5,0,2.4,0.5
		c0.8,0.4,1.4,1.2,2.1,1.9l0.3,0.3c0.4,0.5,0.8,1,1,1.5c0.3,0.6,0.5,1.2,0.7,1.8c0.1,0.4,0.3,0.7,0.4,1.1c0.4,0.9,0.8,2.1,0.7,3.4
		c0,0.2,0,0.3,0,0.5c0,0.2,0,0.3,0,0.5c-0.1,1,0.3,1.8,0.6,2.5l0.4,1c0.2,0.6,0.5,1.2,0.7,1.8c0.1,0.5,0.2,0.9,0.3,1.4
		c0.1,0.4,0.2,0.9,0.3,1.3c0.2,0.9,0.2,1.7,0,2.6c-0.1,0.3-0.1,0.7-0.1,1c0,0.4,0.6,0.6,0.6,0.7l0.3,0.1l0.4-0.3
		c0.3-0.2,0.6-0.4,0.7-0.8c0.2-0.7,0.3-1.3,0.3-1.8c-0.1-1.3-0.3-2.4-0.5-3.4c-0.2-1.1-0.6-2.1-1-3.3c-0.1-0.2-0.2-0.5-0.3-0.7
		c-0.4-1-0.8-1.9-0.6-3l0-0.1c0.1-1.2-0.1-2.3-0.5-3.4c-0.2-0.5-0.4-1-0.5-1.6c-0.4-1.5-0.9-2.5-1.6-3.4c-0.9-1.1-1.8-2.2-2.8-3
		c-0.8-0.7-1.8-1.2-2.9-1.2c-1.1-0.1-2.3,0.1-3.6,0.6C367.5-0.3,367.2-0.2,367.1,0.1z"/>
	<path class="st1" d="M372.1,33.1c0.3,0,0.7-0.1,1-0.3c0.4-0.3,0.4-0.8,0.3-1c0-0.3-0.4-0.8-0.8-0.8c0,0,0,0,0,0c-0.2,0-0.4,0-0.6,0
		c0,0,0,0,0,0c0-0.3-0.1-0.5-0.2-0.6c-0.3-0.3-0.6-0.2-0.8-0.2c-0.1,0-0.3,0-0.4,0.1c-0.2,0-0.3,0.1-0.5,0.1
		c-0.4,0.1-0.9,0.2-1.3,0.4c-0.1,0.1-0.2,0.1-0.4,0.1c-0.4,0.1-1.1,0.4-1.3,1.1c0,0,0,0-0.1,0c-0.1,0.1-0.3,0.1-0.4,0.2
		c-0.3,0.1-0.7,0.2-1,0.5c-0.8,0.6-1.5,1.2-2.2,1.8c-0.3,0.2-0.2,0.5-0.2,0.8c0,0.1,0,0.1,0,0.2l0,0.6L364,36c0.1,0,0.1,0,0.2,0
		c0.2,0,0.4,0,0.6-0.1c0,0,0,0,0,0c0,0.2,0,0.3,0,0.5c0,0.5,0.3,1.1,0.9,1.5c0.4,0.2,0.9,0.4,1.4,0.4c0.2,0,0.4,0,0.5-0.1
		c0.9-0.4,1.5-1.2,1.7-2.1c0.1-0.8-0.1-1.6-0.6-2.2l0,0C370,33.4,371,33.1,372.1,33.1z M367,35.7l0-0.5c0,0,0,0,0-0.1
		c0,0,0-0.1,0-0.1c0.1,0,0.3,0.2,0.3,0.3c0.1,0.2-0.1,0.7-0.4,0.7C367,36,367,35.8,367,35.7z M366.5,35.5L366.5,35.5L366.5,35.5
		L366.5,35.5z"/>
	<path class="st1" d="M344.2,36.5c0,0.5,0.1,1.1,0.4,1.5c0.4,0.6,1,0.9,1.7,0.9c0.2,0,0.4,0,0.7-0.1c0.8-0.2,1.3-0.8,1.5-1.7
		l0.2-0.6c0.6,0.2,0.9-0.1,1.1-0.4c0.5-0.6,0-1.2-0.1-1.4c-0.2-0.2-0.5-0.4-0.6-0.4c-0.5-0.2-1.1-0.4-1.6-0.6l-2-0.8
		c-0.1-0.1-0.3-0.1-0.4-0.2c-0.4-0.2-0.8-0.4-1.3-0.4c-0.2,0-0.4,0-0.6,0c-0.9-0.1-1.9-0.1-2.8,0.3c-0.2,0.1-0.3,0.3-0.4,0.5
		l-0.3,0.6l0.6,0.2c-0.1,0.1-0.1,0.2-0.2,0.3c-0.1,0.2-0.1,0.5,0.1,0.7c0.2,0.3,0.6,0.5,1,0.5c0.2,0,0.4-0.1,0.5-0.2
		c0,0,0.1,0,0.1,0c0.9,0,1.9,0,2.9,0c0,0.1,0,0.2-0.1,0.3C344.3,35.9,344.2,36.2,344.2,36.5z M346.2,36.4L346.2,36.4
		c0.1-0.2,0.1-0.3,0.1-0.4c0.2,0.1,0.3,0.2,0.4,0.3c0,0,0,0.1-0.1,0.4c0,0.1-0.1,0.1-0.1,0.2c0,0-0.1,0-0.1,0
		C346.3,36.8,346.2,36.8,346.2,36.4z"/>
	<path class="st1" d="M352.5-2.1c0.1,0,0.4,0.1,0.6,0c0.3-0.1,0.5-0.3,0.7-0.4c1.4-1,3-1.3,4.5-1.4c0.8-0.1,1.5,0,2.3,0
		c0.3,0,0.6,0,0.9,0c0.2,0,0.3,0,0.4,0.1c0.9,0.3,1.7,0.8,2.5,1.6c1,0.9,2.1,1.4,3.4,1.4c0.4,0,0.7,0,1.1-0.1
		c0.4-0.1,0.7-0.5,0.8-0.8c0.1-0.3,0-0.5-0.1-0.7c-0.2-0.3-0.6-0.3-0.8-0.3c-0.1,0-0.2,0-0.3,0c-1,0-1.9-0.3-2.7-1
		c-1.2-1.1-3.1-2.5-5-2.2c-2.5,0.1-4.3,0.3-6,0.9c-1,0.4-1.9,1-2.6,1.8c-0.2,0.2-0.2,0.5-0.2,0.7l0,0.5L352.5-2.1z"/>
	<path class="st1" d="M363.3,32.2l0.1-0.2l-0.1-0.2c-0.2-0.5-0.6-0.7-0.9-0.9l-0.3-0.2c-0.3-0.2-0.6-0.3-0.8-0.5
		c-0.4-0.5-0.4-1.2-0.4-1.9c0-1.4,0-2.7,0-4.1l0-0.3c0-1.4,0-2.9-0.6-4.4c-0.3-0.9-0.7-1.7-1.4-2.4c-0.3-0.3-1.1-1-2.2-0.8
		c-0.3,0.1-0.5,0.3-0.6,0.5c0,0.1-0.1,0.1-0.1,0.1l-0.5,0.5l0.7,0.3c0,0,0.1,0,0.1,0.1c0.2,0.1,0.4,0.2,0.7,0.2
		c0.3,0,0.5,0.1,0.7,0.3c0.6,0.6,0.9,1.4,1.1,2.5c0.2,1.1,0.2,2.3,0.2,3.4l0,0.9c0,0.5,0,0.9,0,1.4c0,0.5,0,1,0,1.5l0,0.4
		c0,0.7,0,1.5,0.3,2.3c0.4,1.3,1.9,1.9,3,1.9c0.2,0,0.3,0,0.5,0l0.2-0.1L363.3,32.2l-0.4-0.3c0,0,0,0,0,0L363.3,32.2z"/>
	<path class="st1" d="M353.9,17.9c0.2-0.2,0.3-0.4,0.5-0.6c0.2-0.2,0.2-0.4,0.2-0.6c0,0,0-0.1,0-0.1l0.2-0.6l-0.6,0c0,0-0.1,0-0.1,0
		c-0.2,0-0.4-0.1-0.7,0.1c-1.2,0.6-1.9,1.6-2.2,2.9c-0.3,1.4-0.2,2.7,0.3,3.9c0.4,1,0.8,2.2,1,3.3c0.1,0.9,0.2,1.8,0.2,2.7
		c0,0.4,0,0.8,0.1,1.2c0,0.5-0.1,0.9-0.3,1.2c-0.2,0.3-0.2,0.6-0.1,0.9c0.1,0.3,0.4,0.5,0.8,0.5c0,0,0,0,0,0c0.7,0,1.4-0.9,1.4-1.6
		c0.1-1.9,0.1-4.1-0.5-6.3c-0.3-1-0.6-2-0.9-3c-0.4-1.1-0.3-2.1,0.2-3C353.4,18.4,353.7,18.2,353.9,17.9z"/>
</g>
</svg>
