<?xml version="1.0" encoding="utf-8"?>
<!-- Generator: Adobe Illustrator 25.0.0, SVG Export Plug-In . SVG Version: 6.00 Build 0)  -->
<svg version="1.1" id="Layer_1" xmlns="http://www.w3.org/2000/svg" xmlns:xlink="http://www.w3.org/1999/xlink" x="0px" y="0px"
	 viewBox="0 0 214.7 93.4" style="enable-background:new 0 0 214.7 93.4;" xml:space="preserve">
<style type="text/css">
	.st0{fill:#10097A;}
	.st1{fill:#FFFFFF;}
</style>
<g id="폰트_레이어">
</g>
<g id="백그라운드_1">
</g>
<g>
	<path d="M-299.6-152.9c1.7,0,2.9,0.4,3.6,0.8l0.7-2.4c-0.9-0.4-2.5-0.9-4.4-0.9c-5.6,0-9.3,3.9-9.3,9.2s3.4,8.8,8.6,8.8
		c2.3,0,4.1-0.6,5-1l-0.5-2.4c-0.9,0.4-2.1,0.9-3.9,0.9c-3.4,0-6-2.5-6-6.5C-305.7-149.9-303.6-152.9-299.6-152.9z"/>
	<path d="M-283-155.4c-1.2,0-2.3,0.4-3.2,0.9c-1,0.5-1.8,1.3-2.3,2.2h-0.1v-10.8h-3.1v25.4h3.1v-10.4c0-0.6,0-1.1,0.2-1.5
		c0.6-1.7,2.2-3.1,4.2-3.1c3,0,4,2.4,4,5.1v9.9h3.1V-148C-276.9-154-280.6-155.4-283-155.4z"/>
	<path d="M-259.7-148.3c0-3.5-1.3-7.1-6.6-7.1c-2.2,0-4.3,0.6-5.7,1.5l0.7,2.1c1.2-0.8,2.9-1.3,4.5-1.3c3.5,0,3.9,2.6,3.9,4v0.4
		c-6.7,0-10.4,2.3-10.4,6.4c0,2.5,1.8,5,5.3,5c2.5,0,4.3-1.2,5.3-2.6h0.1l0.3,2.2h2.9c-0.2-1.2-0.3-2.6-0.3-4.1
		C-259.7-141.8-259.7-148.3-259.7-148.3z M-262.7-143.5c0,0.3-0.1,0.7-0.2,1c-0.5,1.5-1.9,2.9-4.2,2.9c-1.6,0-3-1-3-3
		c0-3.4,3.9-4,7.3-3.9L-262.7-143.5L-262.7-143.5z"/>
	<path d="M-245.1-146.7c-0.2,0.6-0.3,1.1-0.5,1.6l0,0c-0.1-0.5-0.3-1.1-0.5-1.6l-1.7-4.5h-1.5l2.8,7c0.1,0.2,0.1,0.3,0.1,0.4
		c0,0.1,0,0.2-0.1,0.3c-0.3,0.7-0.8,1.2-1.2,1.5c-0.4,0.3-0.9,0.6-1.2,0.7l0.3,1.2c0.3-0.1,1-0.3,1.7-0.9c0.9-0.8,1.6-2.2,2.6-4.8
		l2.1-5.4h-1.5L-245.1-146.7z"/>
	<path d="M-237.8-151.4c-2.1,0-3.8,1.5-3.8,4c0,2.4,1.6,3.9,3.7,3.9c1.8,0,3.8-1.2,3.8-4C-234.1-149.8-235.6-151.4-237.8-151.4z
		 M-237.9-144.4c-1.4,0-2.3-1.3-2.3-2.9c0-1.4,0.7-3,2.3-3c1.6,0,2.3,1.6,2.3,2.9C-235.5-145.7-236.5-144.4-237.9-144.4z"/>
	<path d="M-226-151.2h-1.4v4.7c0,0.3,0,0.5-0.1,0.7c-0.3,0.6-0.9,1.3-1.8,1.3c-1.3,0-1.7-1-1.7-2.4v-4.2h-1.4v4.5
		c0,2.7,1.4,3.3,2.6,3.3c1.4,0,2.2-0.8,2.5-1.4l0,0l0.1,1.2h1.2c0-0.6-0.1-1.3-0.1-2.1L-226-151.2L-226-151.2z"/>
	<path d="M-219.9-151.4c-1.3,0-2.1,0.7-2.5,1.4l0,0l-0.1-1.3h-1.2c0,0.6,0.1,1.3,0.1,2.1v5.6h1.4v-4.6c0-0.2,0-0.5,0.1-0.6
		c0.2-0.8,0.9-1.4,1.9-1.4c1.3,0,1.8,1,1.8,2.3v4.4h1.4v-4.6C-217.2-150.7-218.9-151.4-219.9-151.4z"/>
	<path d="M-209.7-150L-209.7-150c-0.4-0.6-1.1-1.3-2.4-1.3c-1.7,0-3.4,1.5-3.4,4c0,2.1,1.4,3.7,3.2,3.7c1.2,0,2-0.6,2.4-1.3l0,0v0.9
		c0,1.9-1,2.7-2.5,2.7c-0.9,0-1.7-0.3-2.2-0.6l-0.3,1.1c0.6,0.4,1.6,0.6,2.5,0.6c1,0,2-0.2,2.8-0.9c0.7-0.7,1.1-1.7,1.1-3.5v-4.4
		c0-0.9,0-1.5,0.1-2.1h-1.2L-209.7-150z M-209.8-146.8c0,0.2,0,0.5-0.1,0.7c-0.3,0.9-1.1,1.4-1.9,1.4c-1.5,0-2.3-1.2-2.3-2.7
		c0-1.8,0.9-2.9,2.3-2.9c1,0,1.7,0.7,1.9,1.5c0.1,0.2,0.1,0.4,0.1,0.6V-146.8z"/>
	<path d="M-193.3-152.5c-0.7,0-1.4,0.2-1.9,0.5c-0.6,0.3-1,0.8-1.3,1.3l0,0v-6.4h-1.9v15h1.9v-6.2c0-0.4,0-0.6,0.1-0.9
		c0.3-1,1.3-1.9,2.5-1.9c1.8,0,2.4,1.4,2.4,3v5.9h1.9v-6.1C-189.7-151.6-191.9-152.5-193.3-152.5z"/>
	<path d="M-182.7-146.2c-0.3,0.7-0.5,1.5-0.7,2.1l0,0c-0.2-0.6-0.4-1.4-0.7-2.1l-2.2-6.1h-2l3.8,9.4c0.1,0.2,0.1,0.4,0.1,0.5
		s-0.1,0.3-0.1,0.4c-0.4,1-1.1,1.7-1.6,2.1c-0.6,0.5-1.2,0.8-1.6,0.9l0.5,1.6c0.5-0.1,1.4-0.4,2.3-1.2c1.3-1.1,2.2-2.9,3.5-6.4
		l2.8-7.3h-2L-182.7-146.2z"/>
	<path d="M-168.4-152.2h-1.9v6.3c0,0.3-0.1,0.7-0.2,1c-0.3,0.8-1.2,1.7-2.5,1.7c-1.7,0-2.3-1.3-2.3-3.3v-5.7h-1.9v6
		c0,3.6,1.9,4.5,3.5,4.5c1.8,0,2.9-1.1,3.4-1.9l0,0l0.1,1.7h1.7c-0.1-0.8-0.1-1.7-0.1-2.8v-7.5H-168.4z"/>
	<path d="M-160.2-152.5c-1.7,0-2.9,1-3.4,1.9l0,0l-0.1-1.7h-1.7c0.1,0.8,0.1,1.7,0.1,2.8v7.5h1.9v-6.2c0-0.3,0-0.6,0.1-0.9
		c0.3-1,1.3-1.9,2.5-1.9c1.8,0,2.4,1.4,2.4,3v5.9h1.9v-6.1C-156.6-151.6-158.8-152.5-160.2-152.5z"/>
	<polygon points="-263.3,-185.5 -263.3,-194.6 -278.7,-194.6 -278.7,-204.3 -289.9,-204.3 -289.9,-194.6 -305.4,-194.6 
		-305.4,-185.5 -292.5,-185.5 -309.7,-170 -302.2,-162.8 -284.4,-180.1 -266.5,-162.8 -259,-170 -276.3,-185.5 	"/>
	<path d="M-243.5-169.3c1.8,1.8,4,3.2,6.4,4.2c2.5,1.1,5.1,1.5,7.9,1.5s5.4-0.5,8-1.5c2.5-1,4.6-2.4,6.4-4.2
		c1.8-1.7,3.3-3.8,4.4-6.1s1.7-4.8,1.7-7.6c0-2.6-0.6-5.1-1.7-7.5c-1.1-2.3-2.6-4.3-4.4-6.1c-1.8-1.7-4-3.1-6.4-4.1
		c-2.5-1-5.2-1.5-8-1.5s-5.4,0.5-7.9,1.5c-2.5,1.1-4.6,2.5-6.4,4.1c-1.8,1.8-3.3,3.8-4.4,6.1c-1.2,2.4-1.7,4.9-1.7,7.5
		c0,2.8,0.5,5.3,1.7,7.6C-246.8-173-245.3-171-243.5-169.3z M-237.7-186.4c0.5-1.1,1.1-2.1,2-2.9c0.8-0.8,1.8-1.5,3-2
		c1.1-0.5,2.3-0.7,3.6-0.7c1.2,0,2.5,0.2,3.7,0.7c1.1,0.5,2.1,1.1,3,2c0.8,0.8,1.5,1.8,2,2.9c0.5,1.1,0.7,2.3,0.7,3.4
		c0,2.6-0.9,4.8-2.7,6.5c-1.8,1.8-4.1,2.7-6.7,2.7c-1.3,0-2.5-0.2-3.6-0.7c-1.2-0.5-2.2-1.1-3-2c-0.9-0.8-1.5-1.8-2-2.9
		c-0.5-1.1-0.8-2.3-0.8-3.6C-238.5-184.1-238.3-185.3-237.7-186.4z"/>
	<path d="M-165.1-166.5c1.6-1.4,2.9-3.1,3.9-5.1c0.9-1.9,1.5-4,1.5-6.2c0-2.5-0.7-4.9-1.9-7.2h4.5v-9.6h-15.3v-9.7h-11.3v9.7h-15.4
		v9.6h4.5c-1.3,2.3-1.9,4.7-1.9,7.2c0,2.2,0.5,4.3,1.5,6.2c0.9,2,2.2,3.8,3.9,5.1c1.6,1.5,3.5,2.7,5.8,3.5c2.2,0.9,4.6,1.3,7.2,1.3
		c2.5,0,4.9-0.4,7.2-1.3C-168.8-163.8-166.8-165-165.1-166.5z M-172.3-172.9c-0.8,0.6-1.7,1.1-2.6,1.5c-1.1,0.5-2.1,0.6-3.2,0.6
		c-2.3,0-4.3-0.7-5.8-2.1c-1.7-1.4-2.5-3-2.5-4.9s0.8-3.6,2.5-5c1.5-1.4,3.5-2.1,5.8-2.1c2.2,0,4.1,0.7,5.8,2.1
		c1.5,1.4,2.4,3.1,2.4,5c0,0.9-0.2,1.8-0.6,2.7C-171-174.2-171.6-173.5-172.3-172.9z"/>
	<path d="M-323.6-170.6c-0.4,0.3-0.4,0.9-0.4,1c0,0.2,0,0.4,0.1,0.6c0,0.1,0.1,0.2,0.1,0.3c0.1,3.3,0,6.2-0.3,9.1
		c-0.2,1.4-0.4,2.9-0.7,4.2v0.2c-0.3,1.4-0.6,2.8-0.8,3.8c-0.3,1.1-0.8,2.2-1.7,3.2c-1.6,1.9-3.5,3.6-6,5.1
		c-1.5,0.9-3.2,1.8-4.8,2.6l-0.6,0.2c-0.9,0.5-1.7,0.6-2.4,0.6c-0.5-0.1-1-0.1-1.5-0.2l-0.3-0.1c-0.5-0.1-1-0.2-1.4-0.3
		c-0.5-0.1-1-0.2-1.4-0.4c-0.4-0.1-0.9-0.2-1.3-0.3c-0.3-0.1-0.7-0.1-1-0.2c-0.7-0.1-1.2-0.2-1.7-0.4c-1.4-0.5-2.8-1.1-4.4-1.8
		c-2.5-1.1-4.4-3-5.9-5.8c-0.8-1.5-1.5-3.1-1.9-4.7c-0.2-0.9-0.5-1.7-0.7-2.6l-0.4-1.3c-0.1-0.4-0.2-0.9-0.4-1.3v-0.2
		c-0.1-0.5-0.2-1-0.3-1.5c-0.1-0.3-0.1-0.7-0.2-1c0-0.3-0.1-0.6-0.2-0.9c-0.2-0.8-0.3-1.6-0.5-2.5c-0.1-0.3-0.3-0.8-0.8-0.8l0,0
		c-0.3,0-0.8,0.2-0.9,0.6c0,0,0,0-0.1,0h-0.1c0-0.2-0.1-0.4-0.2-0.6c-0.1-0.3-0.2-0.5-0.4-0.8c-0.3-0.6-0.5-1.1-0.7-1.7
		c-0.2-0.6-0.3-1.2-0.4-1.8c-0.1-0.4-0.1-0.8-0.2-1.2c-0.3-1.2-0.3-2.5,0-3.8l0.1-0.3c0.1-0.5,0.2-1,0.3-1.5c0.1-1,0.1-2,0-3
		c-0.1-1.7,0.2-3,0.8-4.2c0.3-0.5,0.6-1,1-1.6c0.3-0.4,0.5-0.8,0.8-1.2c0.2-0.4,0.4-0.8,0.6-1.3c0.1-0.2,0.2-0.4,0.2-0.5l0.1-0.2
		l-0.6-1.3c0.8-0.4,1.5-1,2.1-1.7c0.2-0.3,0.4-0.7,0.5-1l-0.2-0.2c0.1-0.2,0.1-0.5,0.2-0.7c0-0.2,0.1-0.3,0.2-0.5
		c0.3-1,1-1.8,2.1-2.5c0.4-0.3,0.8-0.4,1.3-0.6c0.3-0.1,0.6-0.3,1-0.4c1.2-0.6,2.4-0.8,3.8-0.9c0.4,0,0.9,0,1.4,0.1
		c0.2,0,0.4,0.1,0.6,0.1s0.4,0.1,0.7,0.1c0.2,0,0.5,0.1,0.7,0.1s0.4,0,0.7,0h0.9v-0.6c0-0.3-0.1-1.1-1-1.3c-0.3-0.1-0.6-0.1-0.9-0.2
		c-0.7-0.1-1.3-0.3-2-0.3c-1.1-0.1-2.2-0.1-3.2,0.1c-1.2,0.3-2.4,0.8-3.5,1.3c-2.5,1.1-4,2.8-4.5,5.2c-0.1,0.6-0.3,1-0.7,1.3
		l-0.1,0.1c-0.4,0.3-0.9,0.6-1.3,0.8c-0.1,0.1-0.3,0.1-0.4,0.2c-0.2,0.1-0.3,0.2-0.5,0.3c-0.3,0.2-0.5,0.5-0.4,0.9
		c0.1,0.3,0.3,0.5,0.7,0.6c0.2,0,0.5,0.1,0.8,0.1s0.5,0,0.8-0.1l-0.2,0.3c-0.1,0.1-0.2,0.2-0.3,0.4c-0.7,1-1.4,2.1-2,3.1h-0.7
		c-0.3,0.5-0.6,1-0.8,1.5c-0.2,0.5-0.3,0.9-0.4,1.4c-0.1,0.3-0.1,0.5-0.2,0.8c-0.3,1.1-0.4,2.2-0.1,3.4c0.1,0.6,0,1.1-0.1,1.7
		c0,0.2-0.1,0.5-0.1,0.7c0,0.3-0.1,0.7-0.2,1c-0.1,0.5-0.2,0.9-0.3,1.4c-0.1,1.5,0,3.2,0.5,5.1c0.3,1.2,0.6,2.4,1.2,3.6
		c0.2,0.4,0.4,0.6,0.6,0.8c-0.9,0.4-1.6,1-2,1.9c-0.4,1-0.4,2.1,0,3.1c0.7,1.5,1.8,2.6,3.3,3.3c0.8,0.4,1.3,0.9,1.5,1.7
		c0.3,1.2,1.1,2.1,1.6,2.7c0.3,0.3,0.5,0.6,0.7,1c0.6,1.3,1.2,2.6,1.9,3.9c1.3,2.2,3,3.9,5,5.1c1.1,0.6,2.2,1.2,3.5,1.7
		c1.1,0.4,2.2,0.8,3.3,1.1l0.8,0.2c0.3,0.1,0.6,0.2,0.9,0.2c0.2,0,0.4,0.1,0.6,0.1c0.3,0.1,0.6,0.2,1,0.3c0.6,0.2,1.2,0.3,1.8,0.4
		c0.9,0.2,1.9,0.3,2.8,0.4l0.7,0.1c0.1,0,0.2,0,0.4,0s0.4,0,0.5-0.1l0.5-0.1c0.6-0.2,1.2-0.3,1.8-0.6c1.5-0.7,2.9-1.3,4.2-2.1
		c1.3-0.7,2.5-1.6,3.6-2.5l0.3-0.2c1.6-1.2,3.7-2.9,5.1-5.4c0.8-1.4,1.2-2.8,1.5-4.2c0.1-0.5,0.2-1,0.3-1.6c0-0.2,0.1-0.4,0.1-0.7
		l0.5-3.3v-0.2c0-0.3,0-0.4,0.1-0.4l0,0l0,0l0,0c0.4-0.1,0.5-0.4,0.6-0.6c0.2-0.4,0.3-0.8,0.5-1.1l0.3-0.8c0.2-0.4,0.3-0.8,0.2-1.1
		c0-0.1-0.1-0.2-0.2-0.3l0,0c0.3-0.4,0.7-0.8,0.9-1.2c0.2-0.4,0.4-0.8,0.5-1.2s0.3-0.7,0.4-1c0.6-1.1-0.1-3.2-0.8-3.9
		C-320.5-171.2-322.7-171.3-323.6-170.6z M-368.3-162.4c0.4-0.6,1-0.9,1.6-0.9l0,0c0.2,0,0.3,0,0.5,0h0.1c0,0.1,0,0.3,0,0.6
		c0,0.6,0.2,1.1,0.3,1.6c0.1,0.2,0.1,0.4,0.2,0.7l0.1,0.6c0.1,0.4,0.2,0.8,0.2,1.2c0,0.1,0.1,0.3,0.1,0.4s0.1,0.2,0.1,0.4
		c-1.3-0.6-2.5-1.4-3.2-2.7C-368.6-161.2-368.6-161.8-368.3-162.4z M-321.2-165.6c-0.1,0.3-0.3,0.5-0.5,0.8v-0.7c0-0.7,0-1.5,0-2.2
		c0-0.4-0.1-0.8-0.2-1.3c0.4-0.1,0.7,0,0.9,0.1c0.2,0.2,0.4,0.5,0.5,1c0.1,0.7-0.2,1.4-0.5,2.1L-321.2-165.6z"/>
	<path d="M-333.5-197.1c-0.1,0.1-0.1,0.3,0,0.6c0.2,0.3,0.6,0.7,1,0.7c0.6,0,1.3-0.1,1.9-0.3c0.8-0.3,1.5,0,2.4,0.5
		c0.8,0.4,1.4,1.2,2.1,1.9l0.3,0.3c0.4,0.5,0.8,1,1,1.5c0.3,0.6,0.5,1.2,0.7,1.8c0.1,0.4,0.3,0.7,0.4,1.1c0.4,0.9,0.8,2.1,0.7,3.4
		c0,0.2,0,0.3,0,0.5s0,0.3,0,0.5c-0.1,1,0.3,1.8,0.6,2.5l0.4,1c0.2,0.6,0.5,1.2,0.7,1.8c0.1,0.5,0.2,0.9,0.3,1.4
		c0.1,0.4,0.2,0.9,0.3,1.3c0.2,0.9,0.2,1.7,0,2.6c-0.1,0.3-0.1,0.7-0.1,1c0,0.4,0.6,0.6,0.6,0.7l0.3,0.1l0.4-0.3
		c0.3-0.2,0.6-0.4,0.7-0.8c0.2-0.7,0.3-1.3,0.3-1.8c-0.1-1.3-0.3-2.4-0.5-3.4c-0.2-1.1-0.6-2.1-1-3.3c-0.1-0.2-0.2-0.5-0.3-0.7
		c-0.4-1-0.8-1.9-0.6-3v-0.1c0.1-1.2-0.1-2.3-0.5-3.4c-0.2-0.5-0.4-1-0.5-1.6c-0.4-1.5-0.9-2.5-1.6-3.4c-0.9-1.1-1.8-2.2-2.8-3
		c-0.8-0.7-1.8-1.2-2.9-1.2c-1.1-0.1-2.3,0.1-3.6,0.6C-333.1-197.5-333.4-197.4-333.5-197.1z"/>
	<path d="M-328.5-164.1c0.3,0,0.7-0.1,1-0.3c0.4-0.3,0.4-0.8,0.3-1c0-0.3-0.4-0.8-0.8-0.8l0,0c-0.2,0-0.4,0-0.6,0l0,0
		c0-0.3-0.1-0.5-0.2-0.6c-0.3-0.3-0.6-0.2-0.8-0.2c-0.1,0-0.3,0-0.4,0.1c-0.2,0-0.3,0.1-0.5,0.1c-0.4,0.1-0.9,0.2-1.3,0.4
		c-0.1,0.1-0.2,0.1-0.4,0.1c-0.4,0.1-1.1,0.4-1.3,1.1c0,0,0,0-0.1,0c-0.1,0.1-0.3,0.1-0.4,0.2c-0.3,0.1-0.7,0.2-1,0.5
		c-0.8,0.6-1.5,1.2-2.2,1.8c-0.3,0.2-0.2,0.5-0.2,0.8c0,0.1,0,0.1,0,0.2v0.6l0.6-0.1c0.1,0,0.1,0,0.2,0c0.2,0,0.4,0,0.6-0.1l0,0
		c0,0.2,0,0.3,0,0.5c0,0.5,0.3,1.1,0.9,1.5c0.4,0.2,0.9,0.4,1.4,0.4c0.2,0,0.4,0,0.5-0.1c0.9-0.4,1.5-1.2,1.7-2.1
		c0.1-0.8-0.1-1.6-0.6-2.2l0,0C-330.7-163.8-329.6-164.1-328.5-164.1z M-333.7-161.5v-0.5c0,0,0,0,0-0.1v-0.1c0.1,0,0.3,0.2,0.3,0.3
		c0.1,0.2-0.1,0.7-0.4,0.7C-333.7-161.3-333.7-161.4-333.7-161.5z M-334.2-161.7L-334.2-161.7L-334.2-161.7L-334.2-161.7z"/>
	<path d="M-356.4-160.7c0,0.5,0.1,1.1,0.4,1.5c0.4,0.6,1,0.9,1.7,0.9c0.2,0,0.4,0,0.7-0.1c0.8-0.2,1.3-0.8,1.5-1.7l0.2-0.6
		c0.6,0.2,0.9-0.1,1.1-0.4c0.5-0.6,0-1.2-0.1-1.4c-0.2-0.2-0.5-0.4-0.6-0.4c-0.5-0.2-1.1-0.4-1.6-0.6l-2-0.8
		c-0.1-0.1-0.3-0.1-0.4-0.2c-0.4-0.2-0.8-0.4-1.3-0.4c-0.2,0-0.4,0-0.6,0c-0.9-0.1-1.9-0.1-2.8,0.3c-0.2,0.1-0.3,0.3-0.4,0.5
		l-0.3,0.6l0.6,0.2c-0.1,0.1-0.1,0.2-0.2,0.3c-0.1,0.2-0.1,0.5,0.1,0.7c0.2,0.3,0.6,0.5,1,0.5c0.2,0,0.4-0.1,0.5-0.2h0.1
		c0.9,0,1.9,0,2.9,0c0,0.1,0,0.2-0.1,0.3C-356.3-161.4-356.4-161.1-356.4-160.7z M-354.5-160.9L-354.5-160.9
		c0.1-0.2,0.1-0.3,0.1-0.4c0.2,0.1,0.3,0.2,0.4,0.3c0,0,0,0.1-0.1,0.4c0,0.1-0.1,0.1-0.1,0.2h-0.1
		C-354.3-160.5-354.4-160.5-354.5-160.9z"/>
	<path d="M-348.2-199.4c0.1,0,0.4,0.1,0.6,0c0.3-0.1,0.5-0.3,0.7-0.4c1.4-1,3-1.3,4.5-1.4c0.8-0.1,1.5,0,2.3,0c0.3,0,0.6,0,0.9,0
		c0.2,0,0.3,0,0.4,0.1c0.9,0.3,1.7,0.8,2.5,1.6c1,0.9,2.1,1.4,3.4,1.4c0.4,0,0.7,0,1.1-0.1c0.4-0.1,0.7-0.5,0.8-0.8s0-0.5-0.1-0.7
		c-0.2-0.3-0.6-0.3-0.8-0.3c-0.1,0-0.2,0-0.3,0c-1,0-1.9-0.3-2.7-1c-1.2-1.1-3.1-2.5-5-2.2c-2.5,0.1-4.3,0.3-6,0.9
		c-1,0.4-1.9,1-2.6,1.8c-0.2,0.1-0.2,0.3-0.2,0.5v0.5L-348.2-199.4z"/>
	<path d="M-337.3-165l0.1-0.2l-0.1-0.2c-0.2-0.5-0.6-0.7-0.9-0.9l-0.3-0.2c-0.3-0.2-0.6-0.3-0.8-0.5c-0.4-0.5-0.4-1.2-0.4-1.9
		c0-1.4,0-2.7,0-4.1v-0.3c0-1.4,0-2.9-0.6-4.4c-0.3-0.9-0.7-1.7-1.4-2.4c-0.3-0.3-1.1-1-2.2-0.8c-0.3,0.1-0.5,0.3-0.6,0.5
		c0,0.1-0.1,0.1-0.1,0.1l-0.5,0.5l0.7,0.3c0,0,0.1,0,0.1,0.1c0.2,0.1,0.4,0.2,0.7,0.2s0.5,0.1,0.7,0.3c0.6,0.6,0.9,1.4,1.1,2.5
		c0.2,1.1,0.2,2.3,0.2,3.4v0.9c0,0.5,0,0.9,0,1.4s0,1,0,1.5v0.4c0,0.7,0,1.5,0.3,2.3c0.4,1.3,1.9,1.9,3,1.9c0.2,0,0.3,0,0.5,0
		l0.2-0.1L-337.3-165l-0.4-0.3l0,0L-337.3-165z"/>
	<path d="M-346.8-179.3c0.2-0.2,0.3-0.4,0.5-0.6c0.2-0.2,0.2-0.4,0.2-0.6v-0.1l0.2-0.6h-0.6h-0.1c-0.2,0-0.4-0.1-0.7,0.1
		c-1.2,0.6-1.9,1.6-2.2,2.9c-0.3,1.4-0.2,2.7,0.3,3.9c0.4,1,0.8,2.2,1,3.3c0.1,0.9,0.2,1.8,0.2,2.7c0,0.4,0,0.8,0.1,1.2
		c0,0.5-0.1,0.9-0.3,1.2s-0.2,0.6-0.1,0.9s0.4,0.5,0.8,0.5l0,0c0.7,0,1.4-0.9,1.4-1.6c0.1-1.9,0.1-4.1-0.5-6.3c-0.3-1-0.6-2-0.9-3
		c-0.4-1.1-0.3-2.1,0.2-3C-347.2-178.8-347-179.1-346.8-179.3z"/>
</g>
<g>
	<path d="M-295.3-276.6c1.7,0,2.9,0.4,3.6,0.8l0.7-2.4c-0.9-0.4-2.5-0.9-4.4-0.9c-5.6,0-9.3,3.9-9.3,9.2c0,5.3,3.4,8.8,8.6,8.8
		c2.3,0,4.1-0.6,5-1l-0.5-2.4c-0.9,0.4-2.1,0.9-3.9,0.9c-3.4,0-6-2.5-6-6.5C-301.4-273.6-299.3-276.6-295.3-276.6z"/>
	<path d="M-278.7-279.1c-1.2,0-2.3,0.4-3.2,0.9c-1,0.5-1.8,1.3-2.3,2.2h-0.1v-10.8h-3.1v25.4h3.1v-10.4c0-0.6,0-1.1,0.2-1.5
		c0.6-1.7,2.2-3.1,4.2-3.1c3,0,4,2.4,4,5.1v9.9h3.1v-10.3C-272.6-277.7-276.3-279.1-278.7-279.1z"/>
	<path d="M-255.4-272c0-3.5-1.3-7.1-6.6-7.1c-2.2,0-4.3,0.6-5.7,1.5l0.7,2.1c1.2-0.8,2.9-1.3,4.5-1.3c3.5,0,3.9,2.6,3.9,4v0.4
		c-6.7,0-10.4,2.3-10.4,6.4c0,2.5,1.8,5,5.3,5c2.5,0,4.3-1.2,5.3-2.6h0.1l0.3,2.2h2.9c-0.2-1.2-0.3-2.6-0.3-4.1V-272z M-258.4-267.2
		c0,0.3-0.1,0.7-0.2,1c-0.5,1.5-1.9,2.9-4.2,2.9c-1.6,0-3-1-3-3c0-3.4,3.9-4,7.3-3.9L-258.4-267.2L-258.4-267.2z"/>
	<path d="M-240.8-270.4c-0.2,0.6-0.3,1.1-0.5,1.6l0,0c-0.1-0.5-0.3-1.1-0.5-1.6l-1.7-4.5h-1.5l2.8,7c0.1,0.2,0.1,0.3,0.1,0.4
		s0,0.2-0.1,0.3c-0.3,0.7-0.8,1.2-1.2,1.5c-0.4,0.3-0.9,0.6-1.2,0.7l0.3,1.2c0.3-0.1,1-0.3,1.7-0.9c0.9-0.8,1.6-2.2,2.6-4.8l2.1-5.4
		h-1.5L-240.8-270.4z"/>
	<path d="M-233.5-275.1c-2.1,0-3.8,1.5-3.8,4c0,2.4,1.6,3.9,3.7,3.9c1.8,0,3.8-1.2,3.8-4C-229.8-273.5-231.3-275.1-233.5-275.1z
		 M-233.6-268.1c-1.4,0-2.3-1.3-2.3-2.9c0-1.4,0.7-3,2.3-3c1.6,0,2.3,1.6,2.3,2.9C-231.2-269.4-232.2-268.1-233.6-268.1z"/>
	<path d="M-221.7-274.9h-1.4v4.7c0,0.3,0,0.5-0.1,0.7c-0.3,0.6-0.9,1.3-1.8,1.3c-1.3,0-1.7-1-1.7-2.4v-4.2h-1.4v4.5
		c0,2.7,1.4,3.3,2.6,3.3c1.4,0,2.2-0.8,2.5-1.4l0,0l0.1,1.2h1.2c0-0.6-0.1-1.3-0.1-2.1L-221.7-274.9L-221.7-274.9z"/>
	<path d="M-215.6-275.1c-1.3,0-2.1,0.7-2.5,1.4l0,0l-0.1-1.3h-1.2c0,0.6,0.1,1.3,0.1,2.1v5.6h1.4v-4.6c0-0.2,0-0.5,0.1-0.6
		c0.2-0.8,0.9-1.4,1.9-1.4c1.3,0,1.8,1,1.8,2.3v4.4h1.4v-4.6C-212.9-274.4-214.6-275.1-215.6-275.1z"/>
	<path d="M-205.4-273.7L-205.4-273.7c-0.4-0.6-1.1-1.3-2.4-1.3c-1.7,0-3.4,1.5-3.4,4c0,2.1,1.4,3.7,3.2,3.7c1.2,0,2-0.6,2.4-1.3l0,0
		v0.9c0,1.9-1,2.7-2.5,2.7c-0.9,0-1.7-0.3-2.2-0.6l-0.3,1.1c0.6,0.4,1.6,0.6,2.5,0.6c1,0,2-0.2,2.8-0.9c0.7-0.7,1.1-1.7,1.1-3.5
		v-4.4c0-0.9,0-1.5,0.1-2.1h-1.2L-205.4-273.7z M-205.5-270.5c0,0.2,0,0.5-0.1,0.7c-0.3,0.9-1.1,1.4-1.9,1.4c-1.5,0-2.3-1.2-2.3-2.7
		c0-1.8,0.9-2.9,2.3-2.9c1,0,1.7,0.7,1.9,1.5c0.1,0.2,0.1,0.4,0.1,0.6V-270.5z"/>
	<path d="M-189-276.2c-0.7,0-1.4,0.2-1.9,0.5c-0.6,0.3-1,0.8-1.3,1.3l0,0v-6.4h-1.9v15h1.9v-6.2c0-0.4,0-0.6,0.1-0.9
		c0.3-1,1.3-1.9,2.5-1.9c1.8,0,2.4,1.4,2.4,3v5.9h1.9v-6.1C-185.4-275.3-187.6-276.2-189-276.2z"/>
	<path d="M-178.4-269.9c-0.3,0.7-0.5,1.5-0.7,2.1l0,0c-0.2-0.6-0.4-1.4-0.7-2.1l-2.2-6.1h-2l3.8,9.4c0.1,0.2,0.1,0.4,0.1,0.5
		s-0.1,0.3-0.1,0.4c-0.4,1-1.1,1.7-1.6,2.1c-0.6,0.5-1.2,0.8-1.6,0.9l0.5,1.6c0.5-0.1,1.4-0.4,2.3-1.2c1.3-1.1,2.2-2.9,3.5-6.4
		l2.8-7.3h-2L-178.4-269.9z"/>
	<path d="M-164.1-275.9h-1.9v6.3c0,0.3-0.1,0.7-0.2,1c-0.3,0.8-1.2,1.7-2.5,1.7c-1.7,0-2.3-1.3-2.3-3.3v-5.7h-1.9v6
		c0,3.6,1.9,4.5,3.5,4.5c1.8,0,2.9-1.1,3.4-1.9l0,0l0.1,1.7h1.7c-0.1-0.8-0.1-1.7-0.1-2.8v-7.5H-164.1z"/>
	<path d="M-155.9-276.2c-1.7,0-2.9,1-3.4,1.9l0,0l-0.1-1.7h-1.7c0.1,0.8,0.1,1.7,0.1,2.8v7.5h1.9v-6.2c0-0.3,0-0.6,0.1-0.9
		c0.3-1,1.3-1.9,2.5-1.9c1.8,0,2.4,1.4,2.4,3v5.9h1.9v-6.1C-152.3-275.3-154.5-276.2-155.9-276.2z"/>
	<polygon points="-259,-309.2 -259,-318.3 -274.4,-318.3 -274.4,-328 -285.6,-328 -285.6,-318.3 -301.1,-318.3 -301.1,-309.2 
		-288.2,-309.2 -305.4,-293.7 -297.9,-286.5 -280.1,-303.8 -262.2,-286.5 -254.7,-293.7 -272,-309.2 	"/>
	<path d="M-239.2-293c1.8,1.8,4,3.2,6.4,4.2c2.5,1.1,5.1,1.5,7.9,1.5s5.4-0.5,8-1.5c2.5-1,4.6-2.4,6.4-4.2c1.8-1.7,3.3-3.8,4.4-6.1
		c1.1-2.3,1.7-4.8,1.7-7.6c0-2.6-0.6-5.1-1.7-7.5c-1.1-2.3-2.6-4.3-4.4-6.1c-1.8-1.7-4-3.1-6.4-4.1c-2.5-1-5.2-1.5-8-1.5
		s-5.4,0.5-7.9,1.5c-2.5,1.1-4.6,2.5-6.4,4.1c-1.8,1.8-3.3,3.8-4.4,6.1c-1.2,2.4-1.7,4.9-1.7,7.5c0,2.8,0.5,5.3,1.7,7.6
		C-242.5-296.7-241-294.7-239.2-293z M-233.4-310.1c0.5-1.1,1.1-2.1,2-2.9c0.8-0.8,1.8-1.5,3-2c1.1-0.5,2.3-0.7,3.6-0.7
		c1.2,0,2.5,0.2,3.7,0.7c1.1,0.5,2.1,1.1,3,2c0.8,0.8,1.5,1.8,2,2.9s0.7,2.3,0.7,3.4c0,2.6-0.9,4.8-2.7,6.5
		c-1.8,1.8-4.1,2.7-6.7,2.7c-1.3,0-2.5-0.2-3.6-0.7c-1.2-0.5-2.2-1.1-3-2c-0.9-0.8-1.5-1.8-2-2.9s-0.8-2.3-0.8-3.6
		C-234.2-307.8-234-309-233.4-310.1z"/>
	<path d="M-160.8-290.2c1.6-1.4,2.9-3.1,3.9-5.1c0.9-1.9,1.5-4,1.5-6.2c0-2.5-0.7-4.9-1.9-7.2h4.5v-9.6h-15.3v-9.7h-11.3v9.7h-15.4
		v9.6h4.5c-1.3,2.3-1.9,4.7-1.9,7.2c0,2.2,0.5,4.3,1.5,6.2c0.9,2,2.2,3.8,3.9,5.1c1.6,1.5,3.5,2.7,5.8,3.5c2.2,0.9,4.6,1.3,7.2,1.3
		c2.5,0,4.9-0.4,7.2-1.3C-164.5-287.5-162.5-288.7-160.8-290.2z M-168-296.6c-0.8,0.6-1.7,1.1-2.6,1.5c-1.1,0.5-2.1,0.6-3.2,0.6
		c-2.3,0-4.3-0.7-5.8-2.1c-1.7-1.4-2.5-3-2.5-4.9s0.8-3.6,2.5-5c1.5-1.4,3.5-2.1,5.8-2.1c2.2,0,4.1,0.7,5.8,2.1
		c1.5,1.4,2.4,3.1,2.4,5c0,0.9-0.2,1.8-0.6,2.7C-166.7-297.9-167.3-297.2-168-296.6z"/>
	<path d="M-319.3-294.3c-0.4,0.3-0.4,0.9-0.4,1c0,0.2,0,0.4,0.1,0.6c0,0.1,0.1,0.2,0.1,0.3c0.1,3.3,0,6.2-0.3,9.1
		c-0.2,1.4-0.4,2.9-0.7,4.2v0.2c-0.3,1.4-0.6,2.8-0.8,3.8c-0.3,1.1-0.8,2.2-1.7,3.2c-1.6,1.9-3.5,3.6-6,5.1
		c-1.5,0.9-3.2,1.8-4.8,2.6l-0.6,0.2c-0.9,0.5-1.7,0.6-2.4,0.6c-0.5-0.1-1-0.1-1.5-0.2l-0.3-0.1c-0.5-0.1-1-0.2-1.4-0.3
		c-0.5-0.1-1-0.2-1.4-0.4c-0.4-0.1-0.9-0.2-1.3-0.3c-0.3-0.1-0.7-0.1-1-0.2c-0.7-0.1-1.2-0.2-1.7-0.4c-1.4-0.5-2.8-1.1-4.4-1.8
		c-2.5-1.1-4.4-3-5.9-5.8c-0.8-1.5-1.5-3.1-1.9-4.7c-0.2-0.9-0.5-1.7-0.7-2.6l-0.4-1.3c-0.1-0.4-0.2-0.9-0.4-1.3v-0.2
		c-0.1-0.5-0.2-1-0.3-1.5c-0.1-0.3-0.1-0.7-0.2-1c0-0.3-0.1-0.6-0.2-0.9c-0.2-0.8-0.3-1.6-0.5-2.5c-0.1-0.3-0.3-0.8-0.8-0.8l0,0
		c-0.3,0-0.8,0.2-0.9,0.6c0,0,0,0-0.1,0h-0.1c0-0.2-0.1-0.4-0.2-0.6c-0.1-0.3-0.2-0.5-0.4-0.8c-0.3-0.6-0.5-1.1-0.7-1.7
		c-0.2-0.6-0.3-1.2-0.4-1.8c-0.1-0.4-0.1-0.8-0.2-1.2c-0.3-1.2-0.3-2.5,0-3.8l0.1-0.3c0.1-0.5,0.2-1,0.3-1.5c0.1-1,0.1-2,0-3
		c-0.1-1.7,0.2-3,0.8-4.2c0.3-0.5,0.6-1,1-1.6c0.3-0.4,0.5-0.8,0.8-1.2c0.2-0.4,0.4-0.8,0.6-1.3c0.1-0.2,0.2-0.4,0.2-0.5l0.1-0.2
		l-0.6-1.3c0.8-0.4,1.5-1,2.1-1.7c0.2-0.3,0.4-0.7,0.5-1l-0.2-0.2c0.1-0.2,0.1-0.5,0.2-0.7c0-0.2,0.1-0.3,0.2-0.5
		c0.3-1,1-1.8,2.1-2.5c0.4-0.3,0.8-0.4,1.3-0.6c0.3-0.1,0.6-0.3,1-0.4c1.2-0.6,2.4-0.8,3.8-0.9c0.4,0,0.9,0,1.4,0.1
		c0.2,0,0.4,0.1,0.6,0.1s0.4,0.1,0.7,0.1c0.2,0,0.5,0.1,0.7,0.1c0.2,0,0.4,0,0.7,0h0.9v-0.6c0-0.3-0.1-1.1-1-1.3
		c-0.3-0.1-0.6-0.1-0.9-0.2c-0.7-0.1-1.3-0.3-2-0.3c-1.1-0.1-2.2-0.1-3.2,0.1c-1.2,0.3-2.4,0.8-3.5,1.3c-2.5,1.1-4,2.8-4.5,5.2
		c-0.1,0.6-0.3,1-0.7,1.3l-0.1,0.1c-0.4,0.3-0.9,0.6-1.3,0.8c-0.1,0.1-0.3,0.1-0.4,0.2c-0.2,0.1-0.3,0.2-0.5,0.3
		c-0.3,0.2-0.5,0.5-0.4,0.9c0.1,0.3,0.3,0.5,0.7,0.6c0.2,0,0.5,0.1,0.8,0.1c0.3,0,0.5,0,0.8-0.1l-0.2,0.3c-0.1,0.1-0.2,0.2-0.3,0.4
		c-0.7,1-1.4,2.1-2,3.1h-0.7c-0.3,0.5-0.6,1-0.8,1.5s-0.3,0.9-0.4,1.4c-0.1,0.3-0.1,0.5-0.2,0.8c-0.3,1.1-0.4,2.2-0.1,3.4
		c0.1,0.6,0,1.1-0.1,1.7c0,0.2-0.1,0.5-0.1,0.7c0,0.3-0.1,0.7-0.2,1c-0.1,0.5-0.2,0.9-0.3,1.4c-0.1,1.5,0,3.2,0.5,5.1
		c0.3,1.2,0.6,2.4,1.2,3.6c0.2,0.4,0.4,0.6,0.6,0.8c-0.9,0.4-1.6,1-2,1.9c-0.4,1-0.4,2.1,0,3.1c0.7,1.5,1.8,2.6,3.3,3.3
		c0.8,0.4,1.3,0.9,1.5,1.7c0.3,1.2,1.1,2.1,1.6,2.7c0.3,0.3,0.5,0.6,0.7,1c0.6,1.3,1.2,2.6,1.9,3.9c1.3,2.2,3,3.9,5,5.1
		c1.1,0.6,2.2,1.2,3.5,1.7c1.1,0.4,2.2,0.8,3.3,1.1l0.8,0.2c0.3,0.1,0.6,0.2,0.9,0.2c0.2,0,0.4,0.1,0.6,0.1c0.3,0.1,0.6,0.2,1,0.3
		c0.6,0.2,1.2,0.3,1.8,0.4c0.9,0.2,1.9,0.3,2.8,0.4l0.7,0.1c0.1,0,0.2,0,0.4,0c0.2,0,0.4,0,0.5-0.1l0.5-0.1c0.6-0.2,1.2-0.3,1.8-0.6
		c1.5-0.7,2.9-1.3,4.2-2.1c1.3-0.7,2.5-1.6,3.6-2.5l0.3-0.2c1.6-1.2,3.7-2.9,5.1-5.4c0.8-1.4,1.2-2.8,1.5-4.2c0.1-0.5,0.2-1,0.3-1.6
		c0-0.2,0.1-0.4,0.1-0.7l0.5-3.3v-0.2c0-0.3,0-0.4,0.1-0.4l0,0l0,0l0,0c0.4-0.1,0.5-0.4,0.6-0.6c0.2-0.4,0.3-0.8,0.5-1.1l0.3-0.8
		c0.2-0.4,0.3-0.8,0.2-1.1c0-0.1-0.1-0.2-0.2-0.3l0,0c0.3-0.4,0.7-0.8,0.9-1.2c0.2-0.4,0.4-0.8,0.5-1.2c0.1-0.4,0.3-0.7,0.4-1
		c0.6-1.1-0.1-3.2-0.8-3.9C-316.2-294.9-318.4-295-319.3-294.3z M-364-286.1c0.4-0.6,1-0.9,1.6-0.9l0,0c0.2,0,0.3,0,0.5,0h0.1
		c0,0.1,0,0.3,0,0.6c0,0.6,0.2,1.1,0.3,1.6c0.1,0.2,0.1,0.4,0.2,0.7l0.1,0.6c0.1,0.4,0.2,0.8,0.2,1.2c0,0.1,0.1,0.3,0.1,0.4
		s0.1,0.2,0.1,0.4c-1.3-0.6-2.5-1.4-3.2-2.7C-364.3-284.9-364.3-285.5-364-286.1z M-316.9-289.3c-0.1,0.3-0.3,0.5-0.5,0.8v-0.7
		c0-0.7,0-1.5,0-2.2c0-0.4-0.1-0.8-0.2-1.3c0.4-0.1,0.7,0,0.9,0.1c0.2,0.2,0.4,0.5,0.5,1c0.1,0.7-0.2,1.4-0.5,2.1L-316.9-289.3z"/>
	<path d="M-329.2-320.8c-0.1,0.1-0.1,0.3,0,0.6c0.2,0.3,0.6,0.7,1,0.7c0.6,0,1.3-0.1,1.9-0.3c0.8-0.3,1.5,0,2.4,0.5
		c0.8,0.4,1.4,1.2,2.1,1.9l0.3,0.3c0.4,0.5,0.8,1,1,1.5c0.3,0.6,0.5,1.2,0.7,1.8c0.1,0.4,0.3,0.7,0.4,1.1c0.4,0.9,0.8,2.1,0.7,3.4
		c0,0.2,0,0.3,0,0.5c0,0.2,0,0.3,0,0.5c-0.1,1,0.3,1.8,0.6,2.5l0.4,1c0.2,0.6,0.5,1.2,0.7,1.8c0.1,0.5,0.2,0.9,0.3,1.4
		c0.1,0.4,0.2,0.9,0.3,1.3c0.2,0.9,0.2,1.7,0,2.6c-0.1,0.3-0.1,0.7-0.1,1c0,0.4,0.6,0.6,0.6,0.7l0.3,0.1l0.4-0.3
		c0.3-0.2,0.6-0.4,0.7-0.8c0.2-0.7,0.3-1.3,0.3-1.8c-0.1-1.3-0.3-2.4-0.5-3.4c-0.2-1.1-0.6-2.1-1-3.3c-0.1-0.2-0.2-0.5-0.3-0.7
		c-0.4-1-0.8-1.9-0.6-3v-0.1c0.1-1.2-0.1-2.3-0.5-3.4c-0.2-0.5-0.4-1-0.5-1.6c-0.4-1.5-0.9-2.5-1.6-3.4c-0.9-1.1-1.8-2.2-2.8-3
		c-0.8-0.7-1.8-1.2-2.9-1.2c-1.1-0.1-2.3,0.1-3.6,0.6C-328.8-321.2-329.1-321.1-329.2-320.8z"/>
	<path d="M-324.2-287.8c0.3,0,0.7-0.1,1-0.3c0.4-0.3,0.4-0.8,0.3-1c0-0.3-0.4-0.8-0.8-0.8l0,0c-0.2,0-0.4,0-0.6,0l0,0
		c0-0.3-0.1-0.5-0.2-0.6c-0.3-0.3-0.6-0.2-0.8-0.2c-0.1,0-0.3,0-0.4,0.1c-0.2,0-0.3,0.1-0.5,0.1c-0.4,0.1-0.9,0.2-1.3,0.4
		c-0.1,0.1-0.2,0.1-0.4,0.1c-0.4,0.1-1.1,0.4-1.3,1.1c0,0,0,0-0.1,0c-0.1,0.1-0.3,0.1-0.4,0.2c-0.3,0.1-0.7,0.2-1,0.5
		c-0.8,0.6-1.5,1.2-2.2,1.8c-0.3,0.2-0.2,0.5-0.2,0.8c0,0.1,0,0.1,0,0.2v0.6l0.6-0.1c0.1,0,0.1,0,0.2,0c0.2,0,0.4,0,0.6-0.1l0,0
		c0,0.2,0,0.3,0,0.5c0,0.5,0.3,1.1,0.9,1.5c0.4,0.2,0.9,0.4,1.4,0.4c0.2,0,0.4,0,0.5-0.1c0.9-0.4,1.5-1.2,1.7-2.1
		c0.1-0.8-0.1-1.6-0.6-2.2l0,0C-326.4-287.5-325.3-287.8-324.2-287.8z M-329.4-285.2v-0.5c0,0,0,0,0-0.1v-0.1c0.1,0,0.3,0.2,0.3,0.3
		c0.1,0.2-0.1,0.7-0.4,0.7C-329.4-285-329.4-285.1-329.4-285.2z M-329.9-285.4L-329.9-285.4L-329.9-285.4L-329.9-285.4z"/>
	<path d="M-352.1-284.4c0,0.5,0.1,1.1,0.4,1.5c0.4,0.6,1,0.9,1.7,0.9c0.2,0,0.4,0,0.7-0.1c0.8-0.2,1.3-0.8,1.5-1.7l0.2-0.6
		c0.6,0.2,0.9-0.1,1.1-0.4c0.5-0.6,0-1.2-0.1-1.4c-0.2-0.2-0.5-0.4-0.6-0.4c-0.5-0.2-1.1-0.4-1.6-0.6l-2-0.8
		c-0.1-0.1-0.3-0.1-0.4-0.2c-0.4-0.2-0.8-0.4-1.3-0.4c-0.2,0-0.4,0-0.6,0c-0.9-0.1-1.9-0.1-2.8,0.3c-0.2,0.1-0.3,0.3-0.4,0.5
		l-0.3,0.6l0.6,0.2c-0.1,0.1-0.1,0.2-0.2,0.3c-0.1,0.2-0.1,0.5,0.1,0.7c0.2,0.3,0.6,0.5,1,0.5c0.2,0,0.4-0.1,0.5-0.2h0.1
		c0.9,0,1.9,0,2.9,0c0,0.1,0,0.2-0.1,0.3C-352-285.1-352.1-284.8-352.1-284.4z M-350.2-284.6L-350.2-284.6c0.1-0.2,0.1-0.3,0.1-0.4
		c0.2,0.1,0.3,0.2,0.4,0.3c0,0,0,0.1-0.1,0.4c0,0.1-0.1,0.1-0.1,0.2h-0.1C-350-284.2-350.1-284.2-350.2-284.6z"/>
	<path d="M-343.9-323.1c0.1,0,0.4,0.1,0.6,0c0.3-0.1,0.5-0.3,0.7-0.4c1.4-1,3-1.3,4.5-1.4c0.8-0.1,1.5,0,2.3,0c0.3,0,0.6,0,0.9,0
		c0.2,0,0.3,0,0.4,0.1c0.9,0.3,1.7,0.8,2.5,1.6c1,0.9,2.1,1.4,3.4,1.4c0.4,0,0.7,0,1.1-0.1c0.4-0.1,0.7-0.5,0.8-0.8
		c0.1-0.3,0-0.5-0.1-0.7c-0.2-0.3-0.6-0.3-0.8-0.3c-0.1,0-0.2,0-0.3,0c-1,0-1.9-0.3-2.7-1c-1.2-1.1-3.1-2.5-5-2.2
		c-2.5,0.1-4.3,0.3-6,0.9c-1,0.4-1.9,1-2.6,1.8c-0.2,0.1-0.2,0.3-0.2,0.5v0.5L-343.9-323.1z"/>
	<path d="M-333-288.7l0.1-0.2l-0.1-0.2c-0.2-0.5-0.6-0.7-0.9-0.9l-0.3-0.2c-0.3-0.2-0.6-0.3-0.8-0.5c-0.4-0.5-0.4-1.2-0.4-1.9
		c0-1.4,0-2.7,0-4.1v-0.3c0-1.4,0-2.9-0.6-4.4c-0.3-0.9-0.7-1.7-1.4-2.4c-0.3-0.3-1.1-1-2.2-0.8c-0.3,0.1-0.5,0.3-0.6,0.5
		c0,0.1-0.1,0.1-0.1,0.1l-0.5,0.5l0.7,0.3c0,0,0.1,0,0.1,0.1c0.2,0.1,0.4,0.2,0.7,0.2c0.3,0,0.5,0.1,0.7,0.3
		c0.6,0.6,0.9,1.4,1.1,2.5s0.2,2.3,0.2,3.4v0.9c0,0.5,0,0.9,0,1.4s0,1,0,1.5v0.4c0,0.7,0,1.5,0.3,2.3c0.4,1.3,1.9,1.9,3,1.9
		c0.2,0,0.3,0,0.5,0l0.2-0.1L-333-288.7l-0.4-0.3l0,0L-333-288.7z"/>
	<path d="M-342.5-303c0.2-0.2,0.3-0.4,0.5-0.6c0.2-0.2,0.2-0.4,0.2-0.6v-0.1l0.2-0.6h-0.6h-0.1c-0.2,0-0.4-0.1-0.7,0.1
		c-1.2,0.6-1.9,1.6-2.2,2.9c-0.3,1.4-0.2,2.7,0.3,3.9c0.4,1,0.8,2.2,1,3.3c0.1,0.9,0.2,1.8,0.2,2.7c0,0.4,0,0.8,0.1,1.2
		c0,0.5-0.1,0.9-0.3,1.2c-0.2,0.3-0.2,0.6-0.1,0.9c0.1,0.3,0.4,0.5,0.8,0.5l0,0c0.7,0,1.4-0.9,1.4-1.6c0.1-1.9,0.1-4.1-0.5-6.3
		c-0.3-1-0.6-2-0.9-3c-0.4-1.1-0.3-2.1,0.2-3C-342.9-302.5-342.7-302.8-342.5-303z"/>
</g>
<path d="M-299.6,65.8c1.7,0,2.9,0.4,3.6,0.8l0.7-2.4c-0.9-0.4-2.5-0.9-4.4-0.9c-5.6,0-9.3,3.9-9.3,9.2c0,5.3,3.4,8.8,8.6,8.8
	c2.3,0,4.1-0.6,5-1l-0.5-2.4c-0.9,0.4-2.1,0.9-3.9,0.9c-3.4,0-6-2.5-6-6.5C-305.7,68.7-303.5,65.8-299.6,65.8z"/>
<path d="M-282.9,63.2c-1.2,0-2.3,0.4-3.2,0.9c-1,0.5-1.7,1.3-2.2,2.2h-0.1V55.5h-3.1l0.1,25.4h3.1V70.5c0-0.6,0-1.1,0.2-1.5
	c0.6-1.7,2.2-3.1,4.2-3.2c3,0,4,2.3,4,5.1v9.9h3.1V70.5C-276.9,64.6-280.6,63.2-282.9,63.2z"/>
<path d="M-259.6,70.2c0-3.5-1.3-7.1-6.6-7.1c-2.2,0-4.3,0.6-5.7,1.5l0.7,2.1c1.2-0.8,2.9-1.3,4.5-1.3c3.5,0,3.9,2.6,3.9,4v0.4
	c-6.7,0-10.4,2.3-10.4,6.5c0,2.5,1.8,5,5.3,5c2.5,0,4.3-1.2,5.3-2.6h0.1l0.3,2.2h2.9c-0.2-1.2-0.3-2.6-0.3-4.1V70.2z M-262.6,75
	c0,0.3-0.1,0.7-0.2,1c-0.5,1.5-1.9,2.9-4.2,2.9c-1.6,0-3-1-3-3c0-3.4,3.9-4,7.3-3.9L-262.6,75z"/>
<path d="M-245,71.8c-0.2,0.6-0.3,1.1-0.5,1.6l0,0c-0.1-0.5-0.3-1.1-0.5-1.6l-1.7-4.5h-1.5l2.8,7c0.1,0.2,0.1,0.3,0.1,0.4
	s0,0.2-0.1,0.3c-0.3,0.7-0.8,1.2-1.2,1.5c-0.4,0.3-0.9,0.6-1.2,0.7l0.3,1.2c0.3-0.1,1-0.3,1.7-0.9c0.9-0.8,1.6-2.2,2.6-4.8l2.1-5.4
	h-1.5L-245,71.8z"/>
<path d="M-237.7,67.1c-2.1,0-3.8,1.5-3.8,4.1c0,2.4,1.6,3.9,3.7,3.9c1.8,0,3.8-1.2,3.8-4.1C-234.1,68.7-235.6,67.1-237.7,67.1z
	 M-237.8,74.1c-1.4,0-2.3-1.3-2.3-2.9c0-1.4,0.7-3,2.3-3c1.6,0,2.3,1.6,2.3,2.9C-235.5,72.8-236.5,74.1-237.8,74.1z"/>
<path d="M-226,67.3h-1.4V72c0,0.3,0,0.5-0.1,0.7c-0.3,0.6-0.9,1.3-1.8,1.3c-1.3,0-1.7-1-1.7-2.4v-4.2h-1.4v4.5
	c0,2.7,1.4,3.3,2.6,3.3c1.4,0,2.2-0.8,2.5-1.4l0,0l0.1,1.2h1.2c0-0.6-0.1-1.3-0.1-2.1L-226,67.3z"/>
<path d="M-219.9,67.1c-1.3,0-2.1,0.7-2.5,1.4l0,0l-0.1-1.3h-1.2c0,0.6,0.1,1.3,0.1,2.1v5.6h1.4v-4.6c0-0.2,0-0.5,0.1-0.6
	c0.2-0.8,0.9-1.4,1.9-1.4c1.3,0,1.8,1,1.8,2.2v4.4h1.4v-4.6C-217.2,67.7-218.8,67.1-219.9,67.1z"/>
<path d="M-209.6,68.4L-209.6,68.4c-0.4-0.6-1.1-1.3-2.4-1.3c-1.7,0-3.4,1.5-3.4,4.1c0,2.1,1.4,3.7,3.3,3.7c1.2,0,2-0.6,2.4-1.3l0,0
	v0.9c0,1.9-1,2.7-2.5,2.7c-0.9,0-1.7-0.3-2.2-0.6l-0.3,1.1c0.6,0.4,1.6,0.6,2.5,0.6c1,0,2-0.2,2.8-0.9c0.7-0.7,1.1-1.7,1.1-3.5v-4.4
	c0-0.9,0-1.5,0.1-2.1h-1.2L-209.6,68.4z M-209.8,71.6c0,0.2,0,0.5-0.1,0.7c-0.3,0.9-1.1,1.4-1.9,1.4c-1.5,0-2.3-1.2-2.3-2.7
	c0-1.8,0.9-2.9,2.3-2.9c1,0,1.7,0.7,1.9,1.5c0.1,0.2,0.1,0.4,0.1,0.6V71.6z"/>
<path d="M-193.2,65.9c-0.7,0-1.4,0.2-1.9,0.5c-0.6,0.3-1,0.8-1.3,1.3l0,0v-6.4h-1.9v15h1.9v-6.2c0-0.4,0-0.6,0.1-0.9
	c0.3-1,1.3-1.9,2.5-1.9c1.8,0,2.4,1.4,2.4,3v5.9h1.9v-6.1C-189.7,66.8-191.9,65.9-193.2,65.9z"/>
<path d="M-182.6,72.2c-0.3,0.7-0.5,1.5-0.7,2.1l0,0c-0.2-0.6-0.4-1.4-0.7-2.1l-2.3-6.1h-2l3.8,9.4c0.1,0.2,0.1,0.4,0.1,0.5
	s-0.1,0.3-0.1,0.4c-0.4,1-1.1,1.7-1.6,2.1c-0.5,0.5-1.2,0.8-1.6,0.9l0.5,1.6c0.5-0.1,1.4-0.4,2.3-1.2c1.3-1.1,2.2-2.9,3.5-6.4
	l2.8-7.3h-2L-182.6,72.2z"/>
<path d="M-168.3,66.1h-1.9v6.3c0,0.3-0.1,0.7-0.2,1c-0.3,0.8-1.2,1.7-2.5,1.7c-1.7,0-2.3-1.3-2.3-3.3v-5.7h-1.9v6
	c0,3.6,1.9,4.5,3.5,4.5c1.8,0,2.9-1.1,3.4-1.9l0,0l0.1,1.7h1.7c-0.1-0.8-0.1-1.7-0.1-2.8L-168.3,66.1z"/>
<path d="M-160.1,65.9c-1.7,0-2.9,1-3.4,1.9l0,0l-0.1-1.7h-1.7c0.1,0.8,0.1,1.7,0.1,2.8v7.5h1.9v-6.2c0-0.3,0-0.6,0.1-0.9
	c0.3-1,1.3-1.9,2.5-1.9c1.8,0,2.4,1.4,2.4,3v5.9h1.9v-6.1C-156.5,66.7-158.7,65.9-160.1,65.9z"/>
<polygon points="-263.4,33 -263.4,23.9 -278.8,23.9 -278.8,14.3 -290,14.3 -290,24 -305.5,24 -305.4,33.1 -292.5,33.1 -309.7,48.6 
	-302.2,55.8 -284.4,38.5 -266.4,55.7 -259,48.5 -276.3,33.1 "/>
<path d="M-243.5,49.2c1.8,1.8,4,3.2,6.4,4.2c2.5,1.1,5.1,1.5,7.9,1.5s5.4-0.5,8-1.6c2.5-1,4.6-2.4,6.4-4.2c1.8-1.7,3.3-3.8,4.4-6.1
	c1.1-2.3,1.7-4.8,1.7-7.6c0-2.6-0.6-5.1-1.7-7.5c-1.2-2.3-2.6-4.3-4.5-6.1c-1.8-1.7-4-3.1-6.4-4.1c-2.5-1-5.2-1.5-8-1.5
	c-2.8,0-5.4,0.5-7.9,1.6s-4.6,2.5-6.4,4.2c-1.8,1.8-3.3,3.8-4.4,6.1c-1.1,2.4-1.7,4.9-1.7,7.5c0,2.8,0.5,5.3,1.7,7.6
	C-246.8,45.5-245.3,47.6-243.5,49.2z M-237.8,32.1c0.5-1.1,1.1-2.1,2-2.9c0.8-0.8,1.8-1.5,3-2c1.1-0.5,2.3-0.7,3.6-0.7
	c1.2,0,2.5,0.2,3.7,0.7c1.1,0.5,2.1,1.1,3,2c0.8,0.8,1.5,1.8,2,2.9s0.7,2.3,0.7,3.4c0,2.6-0.9,4.8-2.7,6.5c-1.8,1.8-4.1,2.7-6.7,2.7
	c-1.3,0-2.5-0.2-3.6-0.7c-1.2-0.5-2.2-1.1-3-2c-0.9-0.8-1.5-1.8-2-2.9s-0.8-2.3-0.8-3.6C-238.5,34.4-238.3,33.2-237.8,32.1z"/>
<path d="M-165.1,51.8c1.6-1.4,2.9-3.1,3.9-5.1c0.9-1.9,1.4-4,1.4-6.2c0-2.5-0.7-4.9-1.9-7.2h4.5v-9.6h-15.3V14h-11.3v9.7h-15.4v9.6
	h4.5c-1.3,2.3-1.9,4.7-1.9,7.2c0,2.2,0.5,4.3,1.5,6.2c0.9,2,2.2,3.8,3.9,5.1c1.6,1.5,3.5,2.7,5.8,3.5c2.2,0.9,4.6,1.3,7.2,1.3
	c2.5,0,4.9-0.4,7.2-1.3C-168.8,54.5-166.8,53.4-165.1,51.8z M-172.3,45.5c-0.8,0.6-1.7,1.2-2.6,1.5c-1.1,0.5-2.1,0.6-3.2,0.6
	c-2.3,0-4.3-0.7-5.8-2.1c-1.7-1.4-2.5-3-2.5-4.9s0.8-3.6,2.4-5c1.5-1.4,3.5-2.1,5.8-2.1c2.2,0,4.1,0.7,5.8,2.1
	c1.5,1.4,2.4,3.1,2.4,5c0,0.9-0.2,1.8-0.6,2.7C-171,44.1-171.6,44.9-172.3,45.5z"/>
<path d="M14.1,72c2.4,0,4.1,0.6,5.1,1.2l1-3.4c-1.2-0.6-3.5-1.3-6.1-1.3c-7.9,0-13,5.4-13,12.9c0,7.4,4.8,12.4,12.1,12.4
	c3.3,0,5.8-0.8,7-1.4l-0.8-3.3c-1.3,0.6-2.9,1.2-5.4,1.2c-4.8,0-8.4-3.5-8.4-9.1C5.5,76.1,8.5,72,14.1,72z"/>
<path d="M37.4,68.4c-1.7,0-3.2,0.5-4.5,1.3c-1.4,0.8-2.5,1.9-3.2,3.1h-0.1V57.7h-4.4v35.5h4.4V78.6c0-0.9,0-1.5,0.3-2.1
	c0.8-2.4,3.1-4.4,5.9-4.4c4.2,0,5.6,3.3,5.6,7.2v13.9h4.4V78.8C45.8,70.4,40.6,68.4,37.4,68.4z"/>
<path d="M70,78.3c0-4.9-1.8-9.9-9.2-9.9c-3.1,0-6,0.9-8,2.2l1,2.9c1.7-1.1,4.1-1.8,6.3-1.8c5,0,5.5,3.6,5.5,5.6v0.5
	c-9.4,0-14.6,3.2-14.6,9c0,3.5,2.5,7,7.4,7c3.5,0,6.1-1.7,7.4-3.6h0.1l0.3,3.1h4c-0.3-1.7-0.4-3.7-0.4-5.8v-9.2L70,78.3L70,78.3z
	 M65.8,85c0,0.5-0.1,1-0.3,1.4c-0.7,2.1-2.7,4.1-5.9,4.1c-2.3,0-4.2-1.4-4.2-4.2c0-4.7,5.5-5.6,10.3-5.5L65.8,85L65.8,85z"/>
<path d="M90.4,80.6c-0.3,0.8-0.5,1.6-0.7,2.2l0,0c-0.2-0.6-0.4-1.5-0.7-2.2l-2.3-6.3h-2.1l3.9,9.8c0.1,0.2,0.1,0.4,0.1,0.5
	s-0.1,0.3-0.2,0.5c-0.4,1-1.1,1.7-1.6,2.2c-0.6,0.5-1.2,0.8-1.7,0.9l0.5,1.6c0.5-0.1,1.4-0.4,2.4-1.3c1.3-1.1,2.3-3,3.7-6.7l2.9-7.6
	h-2.1L90.4,80.6z"/>
<path d="M100.6,74.1c-3,0-5.3,2.1-5.3,5.7c0,3.4,2.2,5.5,5.1,5.5c2.6,0,5.3-1.7,5.3-5.7C105.8,76.3,103.7,74.1,100.6,74.1z
	 M100.5,83.8c-1.9,0-3.2-1.8-3.2-4.1c0-2,1-4.1,3.3-4.1s3.2,2.3,3.2,4.1C103.8,82,102.4,83.8,100.5,83.8z"/>
<path d="M117.1,74.3h-1.9v6.5c0,0.4-0.1,0.7-0.2,1c-0.4,0.9-1.3,1.8-2.6,1.8c-1.8,0-2.4-1.4-2.4-3.4v-5.9h-1.9v6.2
	c0,3.7,2,4.7,3.7,4.7c1.9,0,3-1.1,3.5-2l0,0l0.1,1.7h1.7c-0.1-0.8-0.1-1.8-0.1-2.9L117.1,74.3L117.1,74.3z"/>
<path d="M125.7,74.1c-1.8,0-3,1-3.5,2l0,0l-0.1-1.8h-1.8c0.1,0.9,0.1,1.8,0.1,2.9V85h1.9v-6.4c0-0.3,0-0.7,0.1-0.9
	c0.3-1.1,1.3-2,2.6-2c1.8,0,2.5,1.4,2.5,3.2v6.2h1.9v-6.4C129.4,75,127.1,74.1,125.7,74.1z"/>
<path d="M140,75.9L140,75.9c-0.5-0.9-1.5-1.9-3.4-1.9c-2.4,0-4.8,2-4.8,5.7c0,3,1.9,5.2,4.5,5.2c1.7,0,2.8-0.8,3.4-1.8l0,0v1.2
	c0,2.7-1.5,3.7-3.4,3.7c-1.3,0-2.4-0.4-3.1-0.8l-0.5,1.5c0.9,0.6,2.3,0.9,3.5,0.9c1.3,0,2.8-0.3,3.9-1.3c1-0.9,1.5-2.4,1.5-4.9v-6.2
	c0-1.3,0-2.2,0.1-2.9H140V75.9z M139.8,80.4c0,0.3,0,0.7-0.2,1c-0.4,1.2-1.5,2-2.7,2c-2.1,0-3.2-1.7-3.2-3.8c0-2.5,1.3-4,3.2-4
	c1.4,0,2.4,0.9,2.7,2.1c0.1,0.3,0.1,0.6,0.1,0.9v1.8H139.8z"/>
<path d="M163,72.5c-1,0-1.9,0.3-2.7,0.7c-0.8,0.4-1.5,1.1-1.9,1.8h-0.1v-9h-2.6v21.1h2.6v-8.7c0-0.5,0-0.9,0.2-1.2
	c0.5-1.4,1.8-2.6,3.5-2.6c2.5,0,3.3,2,3.3,4.3v8.2h2.6v-8.4C168,73.7,164.9,72.5,163,72.5z"/>
<path d="M177.8,81.3c-0.4,1-0.7,2.1-0.9,3h-0.1c-0.2-0.9-0.6-2-0.9-2.9l-3.1-8.5H170l5.3,13.2c0.1,0.3,0.2,0.5,0.2,0.7
	c0,0.1-0.1,0.4-0.2,0.6c-0.6,1.3-1.5,2.3-2.2,2.9c-0.8,0.7-1.6,1.1-2.3,1.3l0.7,2.2c0.7-0.1,1.9-0.6,3.2-1.7c1.8-1.5,3.1-4.1,4.9-9
	l3.9-10.2h-2.8L177.8,81.3z"/>
<path d="M197.8,72.9h-2.6v8.8c0,0.5-0.1,0.9-0.2,1.3c-0.5,1.2-1.7,2.4-3.4,2.4c-2.4,0-3.2-1.8-3.2-4.6v-7.9h-2.6v8.4
	c0,5,2.7,6.3,5,6.3c2.5,0,4.1-1.5,4.7-2.7h0.1l0.1,2.3h2.3c-0.1-1.1-0.1-2.4-0.1-3.9L197.8,72.9L197.8,72.9z"/>
<path d="M209.3,72.5c-2.4,0-4,1.3-4.7,2.7h-0.1l-0.1-2.4h-2.3c0.1,1.2,0.1,2.4,0.1,3.9v10.5h2.6v-8.6c0-0.4,0.1-0.9,0.2-1.2
	c0.4-1.5,1.8-2.7,3.5-2.7c2.5,0,3.3,1.9,3.3,4.2v8.3h2.6v-8.6C214.3,73.7,211.3,72.5,209.3,72.5z"/>
<polygon points="64.9,26.3 64.9,13.5 43.3,13.5 43.3,0 27.7,0 27.7,13.5 6,13.5 6,26.3 24.1,26.3 0,47.9 10.5,58 35.4,33.9 60.5,58 
	70.9,47.9 46.8,26.3 "/>
<path d="M92.7,49c2.6,2.6,5.6,4.5,9,5.9c3.4,1.5,7.1,2.1,11.1,2.1c3.9,0,7.6-0.6,11.2-2.1c3.4-1.4,6.4-3.3,9-5.9
	c2.6-2.4,4.6-5.3,6.2-8.6c1.5-3.2,2.4-6.8,2.4-10.6c0-3.6-0.9-7.2-2.4-10.5c-1.6-3.2-3.6-6-6.2-8.6c-2.6-2.4-5.6-4.3-9-5.8
	c-3.5-1.4-7.3-2.1-11.2-2.1c-4,0-7.6,0.8-11.1,2.1c-3.4,1.5-6.4,3.4-9,5.8c-2.6,2.6-4.6,5.4-6.1,8.6c-1.6,3.3-2.4,6.9-2.4,10.5
	c0,3.9,0.8,7.4,2.4,10.6C88.1,43.8,90.1,46.7,92.7,49z M100.7,25c0.6-1.5,1.5-2.9,2.8-4.1c1.1-1.2,2.5-2.1,4.2-2.8
	c1.5-0.6,3.2-1,5-1c1.7,0,3.4,0.3,5.2,1c1.5,0.6,2.9,1.6,4.2,2.8c1.1,1.2,2,2.6,2.8,4.1c0.6,1.6,1,3.2,1,4.8c0,3.6-1.3,6.7-3.8,9.1
	c-2.6,2.6-5.7,3.8-9.3,3.8c-1.8,0-3.5-0.3-5-1c-1.7-0.6-3.1-1.5-4.2-2.8c-1.3-1.1-2.1-2.5-2.8-4.1c-0.8-1.5-1.1-3.2-1.1-5
	C99.7,28.2,100,26.6,100.7,25z"/>
<path d="M202.4,52.9c2.3-1.9,4.1-4.4,5.5-7.2c1.3-2.7,2-5.6,2-8.7c0-3.5-1-6.9-2.7-10.1h6.3V13.5H192V0h-15.7v13.5h-21.6v13.4h6.3
	c-1.8,3.2-2.7,6.5-2.7,10.1c0,3.1,0.6,6,2,8.7c1.3,2.8,3.1,5.3,5.5,7.2c2.3,2.1,4.9,3.8,8.2,4.9c3.1,1.3,6.4,1.8,10.1,1.8
	c3.5,0,6.9-0.5,10.1-1.8C197.2,56.6,200,55,202.4,52.9z M192.3,44c-1.1,0.9-2.4,1.6-3.6,2c-1.5,0.6-3,0.9-4.5,0.9c-3.2,0-6-1-8.2-3
	c-2.4-1.9-3.4-4.2-3.4-6.9c0-2.7,1.1-5,3.4-7c2.1-1.9,4.9-2.9,8.2-2.9c3.1,0,5.8,1,8.2,2.9c2.1,1.9,3.3,4.3,3.3,7
	c0,1.3-0.3,2.6-0.9,3.8C194.1,42,193.3,43.1,192.3,44z"/>
<g>
	<polygon class="st0" points="99,-58.1 99,-66.1 85.5,-66.1 85.5,-74.6 75.6,-74.6 75.6,-66.1 62,-66.1 62,-58.1 73.4,-58.1 
		58.3,-44.5 64.9,-38.1 80.5,-53.3 96.3,-38.1 102.8,-44.5 87.6,-58.1 	"/>
	<path class="st0" d="M116.5-43.8c1.6,1.6,3.5,2.8,5.7,3.7s4.4,1.3,6.9,1.3c2.4,0,4.8-0.4,7-1.3s4-2.1,5.7-3.7
		c1.6-1.5,2.9-3.3,3.9-5.4c0.9-2,1.5-4.2,1.5-6.7c0-2.3-0.5-4.5-1.5-6.6c-1-2-2.3-3.8-3.9-5.4c-1.6-1.5-3.5-2.7-5.7-3.6
		s-4.6-1.3-7-1.3c-2.5,0-4.8,0.5-6.9,1.3c-2.2,0.9-4,2.2-5.7,3.6c-1.6,1.6-2.9,3.4-3.8,5.4c-1,2.1-1.5,4.3-1.5,6.6
		c0,2.4,0.5,4.7,1.5,6.7C113.6-47.1,114.9-45.3,116.5-43.8z M121.5-58.9c0.4-0.9,0.9-1.8,1.8-2.6c0.7-0.7,1.5-1.3,2.6-1.8
		c0.9-0.4,2-0.6,3.2-0.6c1.1,0,2.2,0.2,3.2,0.6c0.9,0.4,1.8,1,2.6,1.8c0.7,0.7,1.3,1.6,1.8,2.6c0.4,1,0.6,2,0.6,3
		c0,2.3-0.8,4.2-2.4,5.7c-1.6,1.6-3.6,2.4-5.9,2.4c-1.1,0-2.2-0.2-3.2-0.6c-1.1-0.4-2-0.9-2.6-1.8c-0.8-0.7-1.3-1.6-1.8-2.6
		c-0.5-0.9-0.7-2-0.7-3.2C120.9-56.9,121.1-57.9,121.5-58.9z"/>
	<path class="st0" d="M185.4-41.4c1.4-1.2,2.6-2.8,3.4-4.5s1.3-3.5,1.3-5.5c0-2.2-0.6-4.3-1.7-6.3h4v-8.4h-13.5v-8.5H169v8.5h-13.5
		v8.4h4c-1.1,2-1.7,4.1-1.7,6.3c0,2,0.4,3.8,1.3,5.5c0.8,1.8,2,3.3,3.4,4.5c1.4,1.3,3.1,2.4,5.1,3.1c2,0.8,4,1.1,6.3,1.1
		c2.2,0,4.3-0.3,6.3-1.1C182.1-39,183.9-40,185.4-41.4z M179-46.9c-0.7,0.5-1.5,1-2.3,1.3c-0.9,0.4-1.9,0.5-2.8,0.5
		c-2,0-3.8-0.6-5.1-1.9c-1.5-1.2-2.2-2.6-2.2-4.3c0-1.7,0.7-3.2,2.2-4.4c1.3-1.2,3.1-1.8,5.1-1.8s3.6,0.6,5.1,1.8
		c1.3,1.2,2.1,2.7,2.1,4.4c0,0.8-0.2,1.6-0.5,2.4C180.2-48.2,179.7-47.5,179-46.9z"/>
</g>
<path d="M-323.6,48.1c-0.4,0.3-0.4,0.9-0.4,1c0,0.2,0,0.4,0.1,0.6c0,0.1,0.1,0.2,0.1,0.3c0.1,3.3,0.1,6.2-0.3,9.1
	c-0.2,1.4-0.4,2.9-0.7,4.2v0.2c-0.3,1.4-0.6,2.8-0.8,3.8c-0.3,1.1-0.8,2.2-1.7,3.2c-1.6,1.9-3.5,3.6-6,5.1c-1.5,1-3.2,1.8-4.7,2.6
	l-0.5,0.3c-0.9,0.5-1.7,0.6-2.4,0.6c-0.5-0.1-1-0.1-1.5-0.2h-0.3c-0.5-0.1-1-0.2-1.4-0.3c-0.5-0.1-1-0.2-1.4-0.4
	c-0.4-0.1-0.9-0.2-1.3-0.3c-0.3-0.1-0.7-0.1-1-0.2c-0.6-0.1-1.1-0.2-1.6-0.4c-1.4-0.5-2.8-1.1-4.4-1.8c-2.5-1.1-4.4-3-5.9-5.8
	c-0.8-1.5-1.5-3.1-1.9-4.7c-0.2-0.9-0.5-1.7-0.7-2.6l-0.4-1.3c-0.1-0.4-0.2-0.9-0.4-1.3l-0.1-0.3c-0.1-0.5-0.2-1-0.3-1.5
	c-0.1-0.3-0.1-0.7-0.2-1c0-0.3-0.1-0.6-0.2-0.9c-0.2-0.8-0.3-1.6-0.5-2.5c-0.1-0.3-0.3-0.8-0.8-0.8l0,0c-0.3,0-0.8,0.2-0.9,0.6
	c0,0,0,0-0.1,0h-0.1c0-0.2-0.1-0.4-0.2-0.6c-0.1-0.3-0.2-0.5-0.4-0.8c-0.3-0.6-0.5-1.1-0.7-1.7c-0.2-0.6-0.3-1.2-0.4-1.8
	c-0.1-0.4-0.1-0.8-0.2-1.2c-0.3-1.3-0.3-2.6,0-3.9l0.1-0.3c0.1-0.5,0.2-1,0.3-1.5c0.1-1,0.1-2,0-3c-0.1-1.7,0.2-3,0.8-4.2
	c0.3-0.5,0.6-1,1-1.6c0.3-0.4,0.5-0.8,0.8-1.2c0.2-0.4,0.4-0.8,0.6-1.3c0.1-0.2,0.2-0.4,0.2-0.5l-0.3-0.1l-0.6-1.3
	c0.8-0.4,1.5-1,2-1.7c0.2-0.3,0.4-0.7,0.5-1v-0.1c0.1-0.2,0.1-0.5,0.2-0.7c0-0.2,0.1-0.3,0.2-0.5c0.3-1,1-1.8,2.1-2.5
	c0.4-0.3,0.8-0.4,1.3-0.6c0.3-0.1,0.6-0.3,1-0.4c1.2-0.6,2.4-0.8,3.8-0.9c0.4,0,0.9,0,1.4,0.1c0.2,0,0.4,0.1,0.6,0.1
	s0.4,0.1,0.7,0.1c0.2,0,0.5,0.1,0.7,0.1c0.2,0,0.4,0,0.7,0h0.9l-0.1-0.6c0-0.3-0.1-1.1-1-1.3c-0.3-0.1-0.6-0.1-0.9-0.2
	c-0.7-0.1-1.3-0.3-2-0.3c-1.1-0.1-2.2-0.1-3.2,0.1c-1.2,0.3-2.4,0.8-3.5,1.3c-2.5,1.1-4,2.8-4.5,5.2c-0.1,0.6-0.3,1-0.7,1.3
	l-0.1,0.1c-0.4,0.3-0.9,0.6-1.3,0.8c-0.1,0.1-0.3,0.1-0.4,0.2c-0.2,0.1-0.3,0.2-0.5,0.3c-0.3,0.2-0.5,0.5-0.4,0.9
	c0.1,0.3,0.3,0.5,0.7,0.6c0.2,0,0.5,0.1,0.8,0.1c0.3,0,0.5,0,0.8-0.1l-0.2,0.3c-0.1,0.1-0.2,0.2-0.3,0.4c-0.7,1-1.4,2.1-2,3.1
	l-0.1,0.2c-0.3,0.5-0.6,1-0.8,1.5c-0.2,0.4-0.3,0.9-0.4,1.3c-0.1,0.3-0.1,0.6-0.2,0.8c-0.3,1.1-0.4,2.2-0.1,3.4
	c0.1,0.6,0,1.1-0.1,1.7c0,0.2-0.1,0.5-0.1,0.7c0,0.3-0.1,0.7-0.2,1c-0.1,0.5-0.2,0.9-0.2,1.4c-0.1,1.5,0.1,3.2,0.5,5.1
	c0.3,1.2,0.6,2.4,1.2,3.6c0.2,0.4,0.4,0.6,0.6,0.8c-0.9,0.4-1.6,1.1-1.9,1.9c-0.4,1-0.4,2.1,0,3.1c0.6,1.5,1.8,2.6,3.2,3.3
	c0.8,0.4,1.3,0.9,1.5,1.7c0.3,1.2,1.1,2.1,1.6,2.7c0.3,0.3,0.5,0.6,0.7,1c0.5,1.3,1.2,2.7,1.9,3.9c1.3,2.2,3,3.9,5,5.1
	c1.1,0.6,2.2,1.2,3.5,1.7c1.1,0.4,2.2,0.8,3.3,1.1l0.8,0.2c0.3,0.1,0.6,0.2,0.9,0.2c0.2,0,0.4,0.1,0.6,0.1c0.3,0.1,0.6,0.2,1,0.3
	c0.6,0.2,1.2,0.3,1.8,0.4c0.9,0.2,1.9,0.3,2.8,0.4l0.7,0.1c0.1,0,0.2,0,0.4,0s0.4,0,0.5-0.1l0.5-0.1c0.6-0.2,1.2-0.3,1.8-0.6
	c1.5-0.7,2.9-1.3,4.2-2.1c1.3-0.8,2.5-1.6,3.6-2.5l0.3-0.3c1.6-1.2,3.7-2.9,5-5.4c0.8-1.4,1.2-2.8,1.5-4.2c0.1-0.5,0.2-1,0.3-1.6
	c0-0.2,0.1-0.4,0.1-0.7l0.5-3.3v-0.2c0-0.3,0-0.4,0.1-0.4l0,0l0,0l0,0c0.4-0.1,0.5-0.4,0.6-0.6c0.2-0.4,0.3-0.8,0.5-1.1l0.3-0.8
	c0.2-0.4,0.3-0.8,0.2-1.1c0-0.1-0.1-0.2-0.2-0.3l0,0c0.3-0.4,0.7-0.8,0.9-1.2c0.2-0.4,0.4-0.8,0.5-1.2c0.1-0.4,0.3-0.7,0.4-1
	c0.6-1.1-0.1-3.2-0.8-3.9C-320.5,47.5-322.7,47.3-323.6,48.1z M-368.3,56.4c0.3-0.6,0.9-0.9,1.6-0.9l0,0c0.2,0,0.3,0,0.5,0h0.1
	c0,0.1,0,0.3,0,0.6c0,0.6,0.2,1.1,0.3,1.6c0.1,0.2,0.1,0.5,0.2,0.7l0.1,0.6c0.1,0.4,0.2,0.8,0.2,1.2c0,0.1,0.1,0.3,0.1,0.4
	s0.1,0.2,0.1,0.4c-1.3-0.6-2.5-1.4-3.2-2.7C-368.6,57.6-368.6,56.9-368.3,56.4z M-321.2,53.1c-0.1,0.3-0.3,0.5-0.5,0.8v-0.7
	c0-0.7,0-1.5,0-2.2c0-0.4-0.1-0.8-0.2-1.3c0.4-0.1,0.7,0,0.9,0.1c0.2,0.2,0.4,0.5,0.5,1c0.1,0.7-0.2,1.4-0.5,2.1L-321.2,53.1z"/>
<path d="M-333.6,21.6c-0.1,0.1-0.1,0.3,0,0.6c0.2,0.3,0.6,0.7,1,0.7c0.6,0,1.3-0.1,1.9-0.3c0.8-0.3,1.5,0,2.4,0.5
	c0.8,0.4,1.4,1.2,2.1,1.9l0.3,0.3c0.4,0.5,0.8,1,1,1.5c0.3,0.6,0.5,1.2,0.7,1.8c0.1,0.4,0.3,0.7,0.4,1.1c0.4,0.9,0.8,2.1,0.7,3.4
	c0,0.2,0,0.3,0,0.5s0,0.3,0,0.5c-0.1,1,0.3,1.8,0.6,2.5l0.4,1c0.2,0.6,0.5,1.2,0.7,1.8c0.1,0.5,0.2,0.9,0.3,1.4
	c0.1,0.4,0.2,0.9,0.3,1.3c0.2,0.9,0.2,1.7,0,2.6c-0.1,0.3-0.1,0.7-0.1,1c0,0.4,0.6,0.6,0.6,0.7l0.3,0.1l0.4-0.3
	c0.3-0.2,0.6-0.4,0.7-0.8c0.2-0.7,0.3-1.3,0.3-1.8c-0.1-1.3-0.3-2.4-0.5-3.4c-0.3-1.1-0.6-2.1-1.1-3.3c-0.1-0.2-0.2-0.5-0.3-0.7
	c-0.4-1-0.8-1.9-0.6-3v-0.1c0.1-1.2-0.1-2.3-0.6-3.4c-0.2-0.5-0.4-1-0.5-1.6c-0.4-1.5-0.9-2.5-1.6-3.4c-0.9-1.1-1.8-2.1-2.8-3
	c-0.8-0.7-1.8-1.2-2.9-1.2c-1.1-0.1-2.3,0.1-3.6,0.6C-333.2,21.2-333.5,21.3-333.6,21.6z"/>
<path d="M-328.5,54.6c0.3,0,0.7-0.1,1-0.3c0.4-0.3,0.4-0.8,0.3-1c0-0.3-0.4-0.7-0.8-0.7l0,0c-0.2,0-0.4,0-0.6,0l0,0
	c0-0.3-0.1-0.5-0.2-0.6c-0.3-0.3-0.6-0.2-0.8-0.2c-0.1,0-0.3,0-0.4,0.1c-0.2,0-0.3,0.1-0.5,0.1c-0.4,0.1-0.9,0.2-1.3,0.4
	c-0.1,0.1-0.2,0.1-0.4,0.1c-0.4,0.1-1.1,0.4-1.3,1.1c0,0,0,0-0.1,0c-0.1,0.1-0.3,0.1-0.4,0.2c-0.3,0.1-0.7,0.2-1,0.5
	c-0.8,0.6-1.5,1.2-2.2,1.8c-0.3,0.2-0.2,0.6-0.2,0.8c0,0.1,0,0.1,0,0.2v0.6l0.6-0.1c0.1,0,0.1,0,0.2,0c0.2,0,0.4,0,0.6-0.1l0,0
	c0,0.2,0,0.3,0,0.5c0,0.5,0.4,1.1,0.9,1.5c0.4,0.2,0.9,0.4,1.4,0.4c0.2,0,0.4,0,0.5-0.1c0.9-0.4,1.5-1.2,1.7-2.2
	c0.1-0.8-0.1-1.6-0.6-2.2l0,0C-330.7,54.9-329.6,54.6-328.5,54.6z M-333.7,57.2v-0.5c0,0,0,0,0-0.1v-0.1c0.1,0,0.3,0.2,0.4,0.3
	c0.1,0.2-0.1,0.7-0.3,0.7C-333.7,57.4-333.7,57.3-333.7,57.2z M-334.2,57L-334.2,57L-334.2,57L-334.2,57z"/>
<path d="M-356.4,58c0,0.5,0.1,1.1,0.4,1.5c0.4,0.6,1,0.9,1.7,0.9c0.2,0,0.4,0,0.7-0.1c0.8-0.2,1.3-0.8,1.5-1.7l0.2-0.6
	c0.6,0.2,0.9-0.1,1.1-0.4c0.5-0.6,0-1.2-0.1-1.4c-0.2-0.2-0.5-0.4-0.6-0.4c-0.5-0.2-1.1-0.4-1.6-0.6l-2-0.8
	c-0.1-0.1-0.3-0.1-0.4-0.2c-0.4-0.2-0.8-0.4-1.3-0.4c-0.2,0-0.4,0-0.6,0c-0.9-0.1-1.9-0.1-2.8,0.3c-0.2,0.1-0.3,0.3-0.4,0.5
	l-0.3,0.6l0.6,0.2c-0.1,0.1-0.1,0.2-0.2,0.3c-0.1,0.2-0.1,0.5,0.1,0.7c0.2,0.3,0.6,0.5,1,0.5c0.2,0,0.4-0.1,0.5-0.2h0.1
	c0.9,0,1.9,0,2.9,0c0,0.1,0,0.2-0.1,0.3C-356.3,57.4-356.4,57.7-356.4,58z M-354.5,57.9L-354.5,57.9c0.1-0.2,0.1-0.3,0.1-0.4
	c0.2,0.1,0.3,0.2,0.4,0.3c0,0,0,0.1-0.1,0.4c0,0.1-0.1,0.1-0.1,0.2h-0.1C-354.3,58.3-354.4,58.3-354.5,57.9z"/>
<path d="M-348.3,19.3c0.1,0,0.4,0.1,0.6,0c0.3-0.1,0.5-0.3,0.7-0.4c1.4-1,3-1.3,4.5-1.4c0.8-0.1,1.5,0,2.3,0c0.3,0,0.6,0,0.9,0
	c0.2,0,0.3,0,0.4,0.1c0.9,0.3,1.7,0.8,2.5,1.6c1,0.9,2.1,1.4,3.4,1.4c0.4,0,0.7,0,1.1-0.1c0.4-0.1,0.7-0.5,0.8-0.8s0-0.5-0.1-0.7
	c-0.2-0.3-0.6-0.3-0.8-0.3c-0.1,0-0.2,0-0.3,0c-1,0-1.9-0.3-2.7-1c-1.2-1.1-3.1-2.5-5-2.2c-2.5,0.1-4.3,0.3-6,0.9
	c-1,0.4-1.9,1-2.6,1.8c-0.2,0.2-0.2,0.5-0.2,0.7v0.5L-348.3,19.3z"/>
<path d="M-337.3,53.7l0.1-0.2l-0.1-0.2c-0.2-0.5-0.6-0.7-0.9-0.9l-0.3-0.2c-0.3-0.2-0.6-0.3-0.8-0.5c-0.4-0.5-0.4-1.2-0.4-1.9
	c0-1.4,0-2.7,0-4.1v-0.3c0-1.4,0-2.9-0.6-4.4c-0.3-0.9-0.7-1.7-1.4-2.4c-0.3-0.3-1.1-1-2.2-0.8c-0.3,0.1-0.5,0.3-0.6,0.5
	c0,0.1-0.1,0.1-0.1,0.1l-0.5,0.5l0.7,0.3c0,0,0.1,0,0.1,0.1c0.2,0.1,0.4,0.2,0.7,0.2s0.5,0.1,0.7,0.3c0.6,0.6,0.9,1.4,1.1,2.5
	c0.2,1.1,0.2,2.3,0.2,3.4v0.9c0,0.5,0,0.9,0,1.4s0,1,0,1.5v0.4c0,0.7,0,1.5,0.3,2.3c0.4,1.3,1.9,1.9,3,1.9c0.2,0,0.3,0,0.5,0
	l0.2-0.1L-337.3,53.7l-0.4-0.3l0,0L-337.3,53.7z"/>
<path d="M-346.8,39.4c0.2-0.2,0.3-0.4,0.5-0.6c0.2-0.2,0.2-0.4,0.2-0.6v-0.1l0.2-0.6h-0.6h-0.1c-0.2,0-0.4-0.1-0.7,0.1
	c-1.2,0.6-1.9,1.6-2.2,2.9c-0.3,1.4-0.2,2.7,0.3,3.9c0.4,1,0.8,2.2,1,3.3c0.1,0.9,0.2,1.8,0.2,2.7c0,0.4,0,0.8,0.1,1.2
	c0,0.5-0.1,0.9-0.3,1.2c-0.2,0.3-0.2,0.6-0.1,0.9s0.4,0.5,0.8,0.5l0,0c0.7,0,1.4-0.9,1.4-1.6c0.1-1.9,0.1-4.1-0.5-6.3
	c-0.3-1-0.6-2-0.9-3c-0.4-1.1-0.3-2.1,0.2-3C-347.3,39.9-347,39.7-346.8,39.4z"/>
<rect x="-74.5" y="-243.6" class="st0" width="303.1" height="129.8"/>
<g>
	<path class="st1" d="M30.3-159.9c1.7,0,2.9,0.4,3.6,0.8l0.7-2.4c-0.9-0.4-2.5-0.9-4.4-0.9c-5.6,0-9.3,3.9-9.3,9.2s3.4,8.8,8.6,8.8
		c2.3,0,4.1-0.6,5-1l-0.5-2.4c-0.9,0.4-2.1,0.9-3.9,0.9c-3.4,0-6-2.5-6-6.5C24.2-157,26.4-159.9,30.3-159.9z"/>
	<path class="st1" d="M47-162.4c-1.2,0-2.3,0.4-3.2,0.9c-1,0.5-1.8,1.3-2.3,2.2h-0.1v-10.8h-3.1v25.4h3.1v-10.5c0-0.6,0-1.1,0.2-1.5
		c0.6-1.7,2.2-3.1,4.2-3.1c3,0,4,2.4,4,5.1v9.9h3.1v-10.3C53-161,49.3-162.4,47-162.4z"/>
	<path class="st1" d="M70.3-155.4c0-3.5-1.3-7.1-6.6-7.1c-2.2,0-4.3,0.6-5.7,1.5l0.7,2.1c1.2-0.8,2.9-1.3,4.5-1.3
		c3.5,0,3.9,2.6,3.9,4v0.4c-6.7,0-10.4,2.3-10.4,6.4c0,2.5,1.8,5,5.3,5c2.5,0,4.3-1.2,5.3-2.6h0.1l0.3,2.2h2.9
		c-0.2-1.2-0.3-2.6-0.3-4.1L70.3-155.4L70.3-155.4z M67.2-150.6c0,0.3-0.1,0.7-0.2,1c-0.5,1.5-1.9,2.9-4.2,2.9c-1.6,0-3-1-3-3
		c0-3.4,3.9-4,7.3-3.9v3H67.2z"/>
	<path class="st1" d="M84.9-153.8c-0.2,0.6-0.3,1.1-0.5,1.6l0,0c-0.1-0.5-0.3-1.1-0.5-1.6l-1.7-4.5h-1.5l2.8,7
		c0.1,0.2,0.1,0.3,0.1,0.4s0,0.2-0.1,0.3c-0.3,0.7-0.8,1.2-1.2,1.5c-0.4,0.3-0.9,0.6-1.2,0.7l0.3,1.2c0.3-0.1,1-0.3,1.7-0.9
		c0.9-0.8,1.6-2.2,2.6-4.8l2.1-5.4h-1.5L84.9-153.8z"/>
	<path class="st1" d="M92.2-158.4c-2.1,0-3.8,1.5-3.8,4c0,2.4,1.6,3.9,3.7,3.9c1.8,0,3.8-1.2,3.8-4
		C95.8-156.8,94.4-158.4,92.2-158.4z M92.1-151.5c-1.4,0-2.3-1.3-2.3-2.9c0-1.4,0.7-3,2.3-3c1.6,0,2.3,1.6,2.3,2.9
		C94.4-152.7,93.4-151.5,92.1-151.5z"/>
	<path class="st1" d="M104-158.2h-1.4v4.7c0,0.3,0,0.5-0.1,0.7c-0.3,0.6-0.9,1.3-1.8,1.3c-1.3,0-1.7-1-1.7-2.4v-4.2h-1.4v4.5
		c0,2.7,1.4,3.3,2.6,3.3c1.4,0,2.2-0.8,2.5-1.4l0,0l0.1,1.2h1.2c0-0.6-0.1-1.3-0.1-2.1L104-158.2L104-158.2z"/>
	<path class="st1" d="M110-158.4c-1.3,0-2.1,0.7-2.5,1.4l0,0l-0.1-1.3h-1.2c0,0.6,0.1,1.3,0.1,2.1v5.6h1.4v-4.6c0-0.2,0-0.5,0.1-0.6
		c0.2-0.8,0.9-1.4,1.9-1.4c1.3,0,1.8,1,1.8,2.3v4.4h1.4v-4.6C112.7-157.8,111.1-158.4,110-158.4z"/>
	<path class="st1" d="M120.3-157.1L120.3-157.1c-0.4-0.6-1.1-1.3-2.4-1.3c-1.7,0-3.4,1.5-3.4,4c0,2.1,1.4,3.7,3.2,3.7
		c1.2,0,2-0.6,2.4-1.3l0,0v0.9c0,1.9-1,2.7-2.5,2.7c-0.9,0-1.7-0.3-2.2-0.6l-0.3,1.1c0.6,0.4,1.6,0.6,2.5,0.6c1,0,2-0.2,2.8-0.9
		c0.7-0.7,1.1-1.7,1.1-3.5v-4.4c0-0.9,0-1.5,0.1-2.1h-1.3L120.3-157.1L120.3-157.1z M120.1-153.9c0,0.2,0,0.5-0.1,0.7
		c-0.3,0.9-1.1,1.4-1.9,1.4c-1.5,0-2.3-1.2-2.3-2.7c0-1.8,0.9-2.9,2.3-2.9c1,0,1.7,0.7,1.9,1.5c0.1,0.2,0.1,0.4,0.1,0.6V-153.9z"/>
	<path class="st1" d="M136.7-159.5c-0.7,0-1.4,0.2-1.9,0.5c-0.6,0.3-1,0.8-1.3,1.3l0,0v-6.4h-1.9v15h1.9v-6.2c0-0.4,0-0.6,0.1-0.9
		c0.3-1,1.3-1.9,2.5-1.9c1.8,0,2.4,1.4,2.4,3v5.9h1.9v-6.1C140.3-158.7,138.1-159.5,136.7-159.5z"/>
	<path class="st1" d="M147.3-153.3c-0.3,0.7-0.5,1.5-0.7,2.1l0,0c-0.2-0.6-0.4-1.4-0.7-2.1l-2.2-6.1h-2l3.8,9.4
		c0.1,0.2,0.1,0.4,0.1,0.5s-0.1,0.3-0.1,0.4c-0.4,1-1.1,1.7-1.6,2.1c-0.6,0.5-1.2,0.8-1.6,0.9l0.5,1.6c0.5-0.1,1.4-0.4,2.3-1.2
		c1.3-1.1,2.2-2.9,3.5-6.4l2.7-7.2h-2L147.3-153.3z"/>
	<path class="st1" d="M161.6-159.3h-1.9v6.3c0,0.3-0.1,0.7-0.2,1c-0.3,0.8-1.2,1.7-2.5,1.7c-1.7,0-2.3-1.3-2.3-3.3v-5.7h-1.9v6
		c0,3.6,1.9,4.5,3.5,4.5c1.8,0,2.9-1.1,3.4-1.9l0,0l0.1,1.7h1.7c-0.1-0.8-0.1-1.7-0.1-2.8v-7.5H161.6z"/>
	<path class="st1" d="M169.8-159.5c-1.7,0-2.9,1-3.4,1.9l0,0l-0.1-1.7h-1.7c0.1,0.8,0.1,1.7,0.1,2.8v7.5h1.9v-6.2
		c0-0.3,0-0.6,0.1-0.9c0.3-1,1.3-1.9,2.5-1.9c1.8,0,2.4,1.4,2.4,3v5.9h1.9v-6.1C173.4-158.7,171.2-159.5,169.8-159.5z"/>
	<polygon class="st1" points="66.6,-192.6 66.6,-201.7 51.2,-201.7 51.2,-211.4 40,-211.4 40,-201.7 24.5,-201.7 24.5,-192.6 
		37.5,-192.6 20.3,-177.1 27.8,-169.9 45.5,-187.1 63.5,-169.9 70.9,-177.1 53.7,-192.6 	"/>
	<path class="st1" d="M86.5-176.3c1.8,1.8,4,3.2,6.4,4.2c2.5,1.1,5.1,1.5,7.9,1.5s5.4-0.5,8-1.5c2.5-1,4.6-2.4,6.4-4.2
		c1.8-1.7,3.3-3.8,4.4-6.1s1.7-4.8,1.7-7.6c0-2.6-0.6-5.1-1.7-7.5c-1.1-2.3-2.6-4.3-4.4-6.1c-1.8-1.7-4-3.1-6.4-4.1
		c-2.5-1-5.2-1.5-8-1.5s-5.4,0.5-7.9,1.5c-2.5,1.1-4.6,2.5-6.4,4.1c-1.8,1.8-3.3,3.8-4.4,6.1c-1.2,2.4-1.7,4.9-1.7,7.5
		c0,2.8,0.5,5.3,1.7,7.6C83.2-180.1,84.6-178,86.5-176.3z M92.2-193.5c0.5-1.1,1.1-2.1,2-2.9c0.8-0.8,1.8-1.5,3-2
		c1.1-0.5,2.3-0.7,3.6-0.7c1.2,0,2.5,0.2,3.7,0.7c1.1,0.5,2.1,1.1,3,2c0.8,0.8,1.5,1.8,2,2.9c0.5,1.1,0.7,2.3,0.7,3.4
		c0,2.6-0.9,4.8-2.7,6.5c-1.8,1.8-4.1,2.7-6.7,2.7c-1.3,0-2.5-0.2-3.6-0.7c-1.2-0.5-2.2-1.1-3-2c-0.9-0.8-1.5-1.8-2-2.9
		c-0.5-1.1-0.8-2.3-0.8-3.6C91.5-191.2,91.7-192.3,92.2-193.5z"/>
	<path class="st1" d="M164.8-173.6c1.6-1.4,2.9-3.1,3.9-5.1c0.9-1.9,1.5-4,1.5-6.2c0-2.5-0.7-4.9-1.9-7.2h4.5v-9.6h-15.3v-9.7h-11.3
		v9.7h-15.4v9.6h4.5c-1.3,2.3-1.9,4.7-1.9,7.2c0,2.2,0.5,4.3,1.5,6.2c0.9,2,2.2,3.8,3.9,5.1c1.6,1.5,3.5,2.7,5.8,3.5
		c2.2,0.9,4.6,1.3,7.2,1.3c2.5,0,4.9-0.4,7.2-1.3C161.2-170.9,163.2-172,164.8-173.6z M157.6-179.9c-0.8,0.6-1.7,1.1-2.6,1.5
		c-1.1,0.5-2.1,0.6-3.2,0.6c-2.3,0-4.3-0.7-5.8-2.1c-1.7-1.4-2.5-3-2.5-4.9s0.8-3.6,2.5-5c1.5-1.4,3.5-2.1,5.8-2.1
		c2.2,0,4.1,0.7,5.8,2.1c1.5,1.4,2.4,3.1,2.4,5c0,0.9-0.2,1.8-0.6,2.7C158.9-181.3,158.3-180.5,157.6-179.9z"/>
	<path class="st1" d="M6.3-177.7c-0.4,0.3-0.4,0.9-0.4,1c0,0.2,0,0.4,0.1,0.6c0,0.1,0.1,0.2,0.1,0.3c0.1,3.3,0,6.2-0.3,9.1
		c-0.2,1.4-0.4,2.9-0.7,4.2v0.2c-0.3,1.4-0.6,2.8-0.8,3.8c-0.3,1.1-0.8,2.2-1.7,3.2c-1.6,1.9-3.5,3.6-6,5.1
		c-1.5,0.9-3.2,1.8-4.8,2.6l-0.5,0.3c-0.9,0.5-1.7,0.6-2.4,0.6c-0.5-0.1-1-0.1-1.5-0.2l-0.3-0.1c-0.5-0.1-1-0.2-1.4-0.3
		c-0.5-0.1-1-0.2-1.4-0.4c-0.4-0.1-0.9-0.2-1.3-0.3c-0.3-0.1-0.7-0.1-1-0.2c-0.6-0.1-1.1-0.2-1.6-0.4c-1.4-0.5-2.8-1.1-4.4-1.8
		c-2.5-1.1-4.4-3-5.9-5.8c-0.8-1.5-1.5-3.1-1.9-4.7c-0.2-0.9-0.5-1.7-0.7-2.6l-0.4-1.3c-0.1-0.4-0.2-0.9-0.4-1.3l-0.1-0.3
		c-0.1-0.5-0.2-1-0.3-1.5c-0.1-0.3-0.1-0.7-0.2-1c0-0.3-0.1-0.6-0.2-0.9c-0.2-0.8-0.3-1.6-0.5-2.5c-0.1-0.3-0.3-0.8-0.8-0.8l0,0
		c-0.3,0-0.8,0.2-0.9,0.6c0,0,0,0-0.1,0h-0.1c0-0.2-0.1-0.4-0.2-0.6c-0.1-0.3-0.2-0.5-0.4-0.8c-0.3-0.6-0.5-1.1-0.7-1.7
		c-0.2-0.6-0.3-1.2-0.4-1.8c-0.1-0.4-0.1-0.8-0.2-1.2c-0.3-1.3-0.3-2.6,0-3.9l0.1-0.3c0.1-0.5,0.2-1,0.3-1.5c0.1-1,0.1-2,0-3
		c-0.1-1.7,0.2-3,0.8-4.2c0.3-0.5,0.6-1,1-1.6c0.3-0.4,0.5-0.8,0.8-1.2c0.2-0.4,0.4-0.8,0.6-1.3c0.1-0.2,0.2-0.4,0.2-0.5l0.1-0.2
		l-0.6-1.3c0.8-0.4,1.5-1,2.1-1.7c0.2-0.3,0.4-0.7,0.5-1v-0.1c0.1-0.2,0.1-0.5,0.2-0.7c0-0.2,0.1-0.3,0.2-0.5c0.3-1,1-1.8,2.1-2.5
		c0.4-0.3,0.8-0.4,1.3-0.6c0.3-0.1,0.6-0.3,1-0.4c1.2-0.6,2.4-0.8,3.8-0.9c0.4,0,0.9,0,1.4,0.1c0.2,0,0.4,0.1,0.6,0.1
		s0.4,0.1,0.7,0.1c0.2,0,0.5,0.1,0.7,0.1s0.4,0,0.7,0h0.9v-0.6c0-0.3-0.1-1.1-1-1.3c-0.3-0.1-0.6-0.1-0.9-0.2
		c-0.7-0.1-1.3-0.3-2-0.3c-1.1-0.1-2.2-0.1-3.2,0.1c-1.2,0.3-2.4,0.8-3.5,1.3c-2.5,1.1-4,2.8-4.5,5.2c-0.1,0.6-0.3,1-0.7,1.3
		l-0.1,0.1c-0.4,0.3-0.9,0.6-1.3,0.8c-0.1,0.1-0.3,0.1-0.4,0.2c-0.2,0.1-0.3,0.2-0.5,0.3c-0.3,0.2-0.5,0.5-0.4,0.9
		c0.1,0.3,0.3,0.5,0.7,0.6c0.2,0,0.5,0.1,0.8,0.1s0.5,0,0.8-0.1l-0.2,0.3c-0.1,0.1-0.2,0.2-0.3,0.4c-0.7,1-1.4,2.1-2,3.1l-0.1,0.2
		c-0.3,0.5-0.6,1-0.8,1.5c-0.2,0.4-0.3,0.9-0.4,1.3c-0.1,0.3-0.1,0.5-0.2,0.8c-0.3,1.1-0.4,2.2-0.1,3.4c0.1,0.6,0,1.1-0.1,1.7
		c0,0.2-0.1,0.5-0.1,0.7c0,0.3-0.1,0.7-0.2,1c-0.1,0.5-0.2,0.9-0.2,1.4c-0.1,1.5,0,3.2,0.5,5.1c0.3,1.2,0.6,2.4,1.2,3.6
		c0.2,0.4,0.4,0.6,0.6,0.8c-0.9,0.4-1.6,1-2,1.9c-0.4,1-0.4,2.1,0,3.1c0.6,1.5,1.8,2.6,3.2,3.3c0.8,0.4,1.3,0.9,1.5,1.7
		c0.3,1.2,1.1,2.1,1.6,2.7c0.3,0.3,0.5,0.6,0.7,1c0.5,1.3,1.1,2.7,1.9,3.9c1.3,2.2,3,3.9,5,5.1c1.1,0.6,2.2,1.2,3.5,1.7
		c1.1,0.4,2.2,0.8,3.3,1.1l0.8,0.2c0.3,0.1,0.6,0.2,0.9,0.2c0.2,0,0.4,0.1,0.6,0.1c0.3,0.1,0.6,0.2,1,0.3c0.6,0.2,1.2,0.3,1.8,0.4
		c0.9,0.2,1.9,0.3,2.8,0.4l0.7,0.1c0.1,0,0.2,0,0.4,0s0.4,0,0.5-0.1l0.5-0.1c0.6-0.2,1.2-0.3,1.8-0.6c1.5-0.7,2.9-1.3,4.2-2.1
		c1.3-0.7,2.5-1.6,3.6-2.5l-0.5-0.2c1.6-1.2,3.7-2.9,5.1-5.4c0.8-1.4,1.2-2.8,1.5-4.2c0.1-0.5,0.2-1,0.3-1.6c0-0.2,0.1-0.4,0.1-0.7
		l0.5-3.3v-0.2c0-0.3,0-0.4,0.1-0.4l0,0l0,0l0,0c0.4-0.1,0.5-0.4,0.6-0.6c0.2-0.4,0.3-0.8,0.5-1.1l0.3-0.8c0.2-0.4,0.3-0.8,0.2-1.1
		c0-0.1-0.1-0.2-0.2-0.3l0,0c0.3-0.4,0.7-0.8,0.9-1.2s0.4-0.8,0.5-1.2s0.3-0.7,0.4-1c0.6-1.1-0.1-3.2-0.8-3.9
		C9.5-178.2,7.3-178.4,6.3-177.7z M-38.3-169.5c0.3-0.6,0.9-0.9,1.6-0.9l0,0c0.2,0,0.3,0,0.5,0h0.1c0,0.1,0,0.3,0,0.6
		c0,0.6,0.2,1.1,0.3,1.6c0.1,0.2,0.1,0.5,0.2,0.7l0.1,0.6c0.1,0.4,0.2,0.8,0.2,1.2c0,0.1,0.1,0.3,0.1,0.4s0.1,0.2,0.1,0.4
		c-1.3-0.6-2.5-1.4-3.2-2.7C-38.7-168.2-38.7-168.9-38.3-169.5z M8.7-172.7c-0.1,0.3-0.3,0.5-0.5,0.8v-0.7c0-0.7,0-1.5,0-2.2
		c0-0.4-0.1-0.8-0.2-1.3c0.4-0.1,0.7,0,0.9,0.1c0.2,0.2,0.4,0.5,0.5,1c0.1,0.7-0.2,1.4-0.5,2.1L8.7-172.7z"/>
	<path class="st1" d="M-3.6-204.2c-0.1,0.1-0.1,0.3,0,0.6c0.2,0.3,0.6,0.7,1,0.7c0.6,0,1.3-0.1,1.9-0.3c0.8-0.3,1.5,0,2.4,0.5
		c0.8,0.4,1.4,1.2,2.1,1.9l0.3,0.3c0.4,0.5,0.8,1,1,1.5c0.3,0.6,0.5,1.2,0.7,1.8c0.1,0.4,0.3,0.7,0.4,1.1c0.4,0.9,0.8,2.1,0.7,3.4
		c0,0.2,0,0.3,0,0.5s0,0.3,0,0.5c-0.1,1,0.3,1.8,0.6,2.5l0.4,1c0.2,0.6,0.5,1.2,0.7,1.8c0.1,0.5,0.2,0.9,0.3,1.4
		c0.1,0.4,0.2,0.9,0.3,1.3c0.2,0.9,0.2,1.7,0,2.6c-0.1,0.3-0.1,0.7-0.1,1c0,0.4,0.6,0.6,0.6,0.7l0.3,0.1l0.4-0.3
		c0.3-0.2,0.6-0.4,0.7-0.8c0.2-0.7,0.3-1.3,0.3-1.8c-0.1-1.3-0.3-2.4-0.5-3.4c-0.2-1.1-0.6-2.1-1-3.3c-0.1-0.2-0.2-0.5-0.3-0.7
		c-0.4-1-0.8-1.9-0.6-3v-0.1c0.1-1.2-0.1-2.3-0.5-3.4c-0.2-0.5-0.4-1-0.5-1.6c-0.4-1.5-0.9-2.5-1.6-3.4c-0.9-1.1-1.8-2.2-2.8-3
		c-0.8-0.7-1.8-1.2-2.9-1.2c-1.1-0.1-2.3,0.1-3.6,0.6C-3.2-204.6-3.5-204.5-3.6-204.2z"/>
	<path class="st1" d="M1.4-171.2c0.3,0,0.7-0.1,1-0.3c0.4-0.3,0.4-0.8,0.3-1c0-0.3-0.4-0.8-0.8-0.8l0,0c-0.2,0-0.4,0-0.6,0l0,0
		c0-0.3-0.1-0.5-0.2-0.6c-0.3-0.3-0.6-0.2-0.8-0.2c-0.1,0-0.3,0-0.4,0.1c-0.2,0-0.3,0.1-0.5,0.1c-0.4,0.1-0.9,0.2-1.3,0.4
		c-0.1,0.1-0.2,0.1-0.4,0.1c-0.4,0.1-1.1,0.4-1.3,1.1c0,0,0,0-0.1,0c-0.1,0.1-0.3,0.1-0.4,0.2c-0.3,0.1-0.7,0.2-1,0.5
		c-0.8,0.6-1.5,1.2-2.2,1.8c-0.3,0.2-0.2,0.5-0.2,0.8c0,0.1,0,0.1,0,0.2v0.6l0.8-0.1c0.1,0,0.1,0,0.2,0c0.2,0,0.4,0,0.6-0.1l0,0
		c0,0.2,0,0.3,0,0.5c0,0.5,0.3,1.1,0.9,1.5c0.4,0.2,0.9,0.4,1.4,0.4c0.2,0,0.4,0,0.5-0.1c0.9-0.4,1.5-1.2,1.7-2.1
		c0.1-0.8-0.1-1.6-0.6-2.2l0,0C-0.7-170.9,0.3-171.2,1.4-171.2z M-3.7-168.6v-0.5c0,0,0,0,0-0.1v-0.1c0.1,0,0.3,0.2,0.3,0.3
		c0.1,0.2-0.1,0.7-0.4,0.7C-3.7-168.3-3.7-168.5-3.7-168.6z M-4.2-168.8L-4.2-168.8L-4.2-168.8L-4.2-168.8z"/>
	<path class="st1" d="M-26.5-167.8c0,0.5,0.1,1.1,0.4,1.5c0.4,0.6,1,0.9,1.7,0.9c0.2,0,0.4,0,0.7-0.1c0.8-0.2,1.3-0.8,1.5-1.7
		l0.2-0.6c0.6,0.2,0.9-0.1,1.1-0.4c0.5-0.6,0-1.2-0.1-1.4c-0.2-0.2-0.5-0.4-0.6-0.4c-0.5-0.2-1.1-0.4-1.6-0.6l-2-0.8
		c-0.1-0.1-0.3-0.1-0.4-0.2c-0.4-0.2-0.8-0.4-1.3-0.4c-0.2,0-0.4,0-0.6,0c-0.9-0.1-1.9-0.1-2.8,0.3c-0.2,0.1-0.3,0.3-0.4,0.5
		l-0.3,0.6l0.6,0.2c-0.1,0.1-0.1,0.2-0.2,0.3c-0.1,0.2-0.1,0.5,0.1,0.7c0.2,0.3,0.6,0.5,1,0.5c0.2,0,0.4-0.1,0.5-0.2h0.1
		c0.9,0,1.9,0,2.9,0c0,0.1,0,0.2-0.1,0.3C-26.4-168.4-26.5-168.1-26.5-167.8z M-24.5-167.9L-24.5-167.9c0.1-0.2,0.1-0.3,0.1-0.4
		c0.2,0.1,0.3,0.2,0.4,0.3c0,0,0,0.1-0.1,0.4c0,0.1-0.1,0.1-0.1,0.2h-0.1C-24.4-167.5-24.5-167.5-24.5-167.9z"/>
	<path class="st1" d="M-18.2-206.4c0.1,0,0.4,0.1,0.6,0c0.3-0.1,0.5-0.3,0.7-0.4c1.4-1,3-1.3,4.5-1.4c0.8-0.1,1.5,0,2.3,0
		c0.3,0,0.6,0,0.9,0c0.2,0,0.3,0,0.4,0.1c0.9,0.3,1.7,0.8,2.5,1.6c1,0.9,2.1,1.4,3.4,1.4c0.4,0,0.7,0,1.1-0.1
		c0.4-0.1,0.7-0.5,0.8-0.8c0.1-0.3,0-0.5-0.1-0.7c-0.2-0.3-0.6-0.3-0.8-0.3c-0.1,0-0.2,0-0.3,0c-1,0-1.9-0.3-2.7-1
		c-1.2-1.1-3.1-2.5-5-2.2c-2.5,0.1-4.3,0.3-6,0.9c-1,0.4-1.9,1-2.6,1.8c-0.2,0.2-0.2,0.5-0.2,0.7v0.5L-18.2-206.4z"/>
	<path class="st1" d="M-7.4-172.1l0.1-0.2l-0.1-0.2c-0.2-0.5-0.6-0.7-0.9-0.9l-0.3-0.2c-0.3-0.2-0.6-0.3-0.8-0.5
		c-0.4-0.5-0.4-1.2-0.4-1.9c0-1.4,0-2.7,0-4.1v-0.3c0-1.4,0-2.9-0.6-4.4c-0.3-0.9-0.7-1.7-1.4-2.4c-0.3-0.3-1.1-1-2.2-0.8
		c-0.3,0.1-0.5,0.3-0.6,0.5c0,0.1-0.1,0.1-0.1,0.1l-0.5,0.5l0.7,0.3c0,0,0.1,0,0.1,0.1c0.2,0.1,0.4,0.2,0.7,0.2s0.5,0.1,0.7,0.3
		c0.6,0.6,0.9,1.4,1.1,2.5c0.2,1.1,0.2,2.3,0.2,3.4v0.9c0,0.5,0,0.9,0,1.4s0,1,0,1.5v0.4c0,0.7,0,1.5,0.3,2.3c0.4,1.3,1.9,1.9,3,1.9
		c0.2,0,0.3,0,0.5,0l0.2-0.1L-7.4-172.1l-0.4-0.3l0,0L-7.4-172.1z"/>
	<path class="st1" d="M-16.8-186.4c0.2-0.2,0.3-0.4,0.5-0.6s0.2-0.4,0.2-0.6v-0.1l0.2-0.6h-0.6h-0.1c-0.2,0-0.4-0.1-0.7,0.1
		c-1.2,0.6-1.9,1.6-2.2,2.9c-0.3,1.4-0.2,2.7,0.3,3.9c0.4,1,0.8,2.2,1,3.3c0.1,0.9,0.2,1.8,0.2,2.7c0,0.4,0,0.8,0.1,1.2
		c0,0.5-0.1,0.9-0.3,1.2s-0.2,0.6-0.1,0.9c0.1,0.3,0.4,0.5,0.8,0.5l0,0c0.7,0,1.4-0.9,1.4-1.6c0.1-1.9,0.1-4.1-0.5-6.3
		c-0.3-1-0.6-2-0.9-3c-0.4-1.1-0.3-2.1,0.2-3C-17.3-185.9-17-186.1-16.8-186.4z"/>
</g>
</svg>
