<?xml version="1.0" encoding="utf-8"?>
<!-- Generator: Adobe Illustrator 25.0.0, SVG Export Plug-In . SVG Version: 6.00 Build 0)  -->
<svg version="1.1" id="레이어_1" xmlns="http://www.w3.org/2000/svg" xmlns:xlink="http://www.w3.org/1999/xlink" x="0px"
	 y="0px" viewBox="0 0 335 234" style="enable-background:new 0 0 335 234;" xml:space="preserve">
<style type="text/css">
	.st0{fill:none;}
	.st1{fill:#0C0C0C;}
	.st2{fill:#FEFEFE;}
	.st3{fill:#929292;}
	.st4{stroke:#000000;stroke-width:2;stroke-miterlimit:10;}
	.st5{font-family:'AdobeMyungjoStd-Medium-KSCpc-EUC-H';}
	.st6{font-size:40px;}
</style>
<g>
	<g>
		<g>
			<path d="M191.5,59.4c-4-0.4-8.3,0.6-11.6,3.4c-3.3,2.8-5.5,7.2-5.8,12.1c-0.6,10.3,8.6,16.3,16.2,15.4c2.4-0.3,4.9-1.3,6.7-3.4
				c1.6-2,2.7-4.7,2.4-7.6c-0.1-1.1-0.7-2.1-1.8-2.1c-0.9,0-1.9,1-1.8,2.1c0.4,3.8-2.4,6.3-5.3,6.7c-2.9,0.4-6.3-0.3-8.8-2.2
				c-2.4-1.8-4-4.7-4-8.3c0.1-3.4,1.5-6.8,3.8-8.9c2.9-2.6,6.5-3.4,10-2.9c0.9,0.1,1.8-1,1.8-2.1C193.3,60.2,192.4,59.5,191.5,59.4
				L191.5,59.4z"/>
		</g>
	</g>
	<g>
		<g>
			<path d="M202.5,60.2c0.4,8.5,1.5,16.9,3.1,25.2c0.5,2.7,4,1.5,3.5-1.1c-1.6-7.9-2.6-15.9-3-24.1c-0.1-1.1-0.8-2.1-1.8-2.1
				C203.4,58.1,202.4,59.1,202.5,60.2L202.5,60.2z"/>
		</g>
	</g>
	<g>
		<g>
			<path d="M215,63.7c2.3,0,2.3-4.3,0-4.3C212.6,59.4,212.6,63.7,215,63.7L215,63.7z"/>
		</g>
	</g>
	<g>
		<g>
			<path d="M214.3,70.6c0.6,4.6,1.6,8.9,2.9,13.2c0.3,1,1.2,1.9,2.2,1.5c0.9-0.3,1.6-1.5,1.2-2.7c-1.3-4.3-2.3-8.8-2.9-13.2
				c-0.1-1.1-1.4-1.8-2.2-1.5C214.6,68.3,214.1,69.4,214.3,70.6L214.3,70.6z"/>
		</g>
	</g>
	<g>
		<g>
			<path d="M230.6,65.9c-1.1-0.6-2.2-0.8-3.4-0.3c-1,0.3-2,1-2.7,2c-1.4,1.9-2.2,4.6-2.4,7c-0.3,2.6,0.6,5.2,2.5,6.4
				c1.6,1,3.5,1.2,5.3,1.3c2.5,0.1,5.3-0.9,6-4.1c0.2-1.1-0.3-2.4-1.2-2.7c-0.9-0.3-1.9,0.3-2.2,1.5c-0.1,0.3,0.1-0.2,0,0.2
				c-0.1,0.1-0.1,0.2-0.1,0.3c-0.1,0.2,0-0.1,0.1-0.1c-0.1,0.1-0.4,0.3-0.1,0.2c-0.1,0.2-0.4,0.3-0.5,0.3c0.2-0.2,0,0-0.1,0.1
				c-0.1,0.1-0.4,0.1-0.6,0.2c0.3-0.1-0.2,0-0.3,0c-0.2,0-0.4,0-0.6,0c-0.6,0-1.4-0.1-2-0.2c-0.4,0,0,0,0.1,0c-0.1,0-0.1,0-0.2,0
				c-0.1,0-0.3-0.1-0.4-0.1c-0.3-0.1-0.6-0.2-0.9-0.3c-0.4-0.1,0.2,0.2-0.1,0c-0.1-0.1-0.2-0.2-0.4-0.3c-0.1-0.1-0.3-0.3-0.1,0
				c-0.1-0.1-0.2-0.3-0.4-0.3c-0.2-0.2,0.1,0.3,0,0.1c0-0.1-0.1-0.2-0.1-0.2c-0.1-0.1-0.1-0.5-0.1-0.2c-0.1-0.2-0.1-0.4-0.1-0.6
				c0.1,0.3,0-0.3,0-0.3c0-0.2,0-0.4,0-0.6c0-0.3,0,0,0,0.1c0-0.1,0-0.2,0.1-0.3c0.1-0.4,0.1-0.9,0.3-1.3c0.1-0.4,0.2-0.9,0.4-1.3
				c0.1-0.3,0,0,0,0.1c0-0.1,0.1-0.2,0.1-0.3c0.1-0.2,0.1-0.4,0.3-0.6c0.1-0.1,0.1-0.2,0.1-0.3c0,0,0.2-0.3,0.1-0.2s0.1-0.1,0.1-0.1
				c0.1-0.1,0.1-0.2,0.2-0.3c0.1-0.1,0.1-0.1,0.1-0.2c0.1-0.3-0.2,0.2,0,0c0.1-0.1,0.3-0.3,0.5-0.3c0.1-0.1,0.3-0.2,0,0
				c0.1,0,0.2-0.1,0.3-0.1s0.1,0,0.2-0.1c0.2-0.1-0.3,0,0,0c0.1,0,0.4,0,0.5,0c-0.4,0,0.4,0.2,0,0c0.9,0.4,1.9,0.3,2.4-0.8
				C231.6,67.9,231.5,66.4,230.6,65.9L230.6,65.9z"/>
		</g>
	</g>
	<g>
		<g>
			<path d="M237.6,60.8c-0.6,6.7,1.2,13.2,2.9,19.5c0.3,1.1,1.2,1.8,2.2,1.5c0.9-0.3,1.6-1.5,1.2-2.7c-1.7-5.9-3.2-12-2.7-18.4
				c0.1-1.1-0.9-2.1-1.8-2.1C238.4,58.7,237.7,59.7,237.6,60.8L237.6,60.8z"/>
		</g>
	</g>
	<g>
		<g>
			<path d="M245.4,63.3c-1.1,0.9-2,2-2.8,3.3c-0.4,0.7-0.9,1.4-1.2,2.1c-0.3,0.6-0.6,1.3-1,1.8c0.1-0.2,0.2-0.3,0.3-0.4
				c-0.1,0.2-0.2,0.3-0.3,0.4c-0.6,0.9-0.7,2.2,0,3c0.7,0.8,1.9,0.9,2.5,0c1-1.3,1.7-2.9,2.5-4.3c-0.1,0.2-0.2,0.3-0.3,0.4
				c0.6-1,1.4-2,2.3-2.8c-0.1,0.1-0.2,0.3-0.4,0.3c0.1-0.1,0.1-0.1,0.1-0.2c0.4-0.3,0.7-0.7,0.8-1.3c0.1-0.5,0.1-1.2-0.2-1.6
				c-0.2-0.4-0.6-0.9-1.1-0.9C246.3,63,245.8,63,245.4,63.3L245.4,63.3z"/>
		</g>
	</g>
	<g>
		<g>
			<path d="M240.9,75.9c2.8,0.8,5.6,1.3,8.4,1.7c0.9,0.1,1.9-1.1,1.8-2.1c-0.1-1.3-0.8-2-1.8-2.1c-0.4-0.1-0.6-0.1-1-0.2
				c-0.1,0-0.4-0.1-0.5-0.1c0.3,0.1,0,0-0.1,0c-0.6-0.1-1.3-0.3-1.9-0.3c-1.3-0.3-2.6-0.6-3.9-0.9c-0.9-0.3-2,0.3-2.2,1.5
				C239.4,74.3,239.9,75.6,240.9,75.9L240.9,75.9z"/>
		</g>
	</g>
	<g>
		<g>
			<path d="M257.8,66.1c2.1,2.3,1.8,6.2,1.6,9.3c1.2,0,2.4,0,3.6,0c0-1.6,0.2-3.2,0.6-4.8c0.2-0.8,0.4-1.5,0.8-2.1
				c0.1-0.3,0.4-0.8,0.6-1.1c0.1-0.2,0.2-0.3,0.3-0.5c0.3-0.4,0.2-0.1,0.1-0.1c0.1,0-0.5,0.1-0.4,0c-0.1,0,0-0.4,0.1,0.1
				c0,0.2,0.3,0.4,0.3,0.6c0.2,0.5,0.2,1.1,0.3,1.7c0.1,1.7,0,3.4,0.2,5.1c0.3,2.1,3,1.9,3.5,0c0.4-1.6,0.9-3.2,1.5-4.6
				c0.3-0.6,0.6-1.3,0.9-1.9c0.1-0.2,0.4-0.5,0.4-0.5c-0.1,0.1,0.1-0.1,0.1-0.1c0,0-0.1,0.1-0.1,0.1c0.1,0.2,0.4,0.8,0.4,1.2
				c0.1,0.8,0.2,1.6,0.3,2.4c0.1,1.9,0.1,3.9-0.1,5.8c-0.1,1.1,0.9,2.1,1.8,2.1c1.1,0,1.7-1,1.8-2.1c0.3-2.7,0.2-5.2-0.1-7.9
				c-0.3-2.4-1.1-4.9-3.2-5.6c-2.2-0.7-3.8,1.3-4.8,3.3c-1.1,2.1-1.9,4.5-2.4,6.9c1.2,0,2.3,0,3.5,0c-0.3-2.1,0.1-4.2-0.4-6.3
				c-0.5-2.3-2.2-4.9-4.5-4.1c-2,0.7-3,3.5-3.8,5.6c-0.8,2.2-1.2,4.6-1.2,7.1c0,1.2,0.9,2.1,1.8,2.1c1,0,1.7-0.9,1.8-2.1
				c0.3-4.3,0.2-9.1-2.7-12.3C258.6,61.2,256.1,64.2,257.8,66.1L257.8,66.1z"/>
		</g>
	</g>
	<g>
		<g>
			<path d="M280.6,70.4c1.4,0.2,2.9,0.3,4.4,0.2c0.8-0.1,1.7-0.2,2.3-0.6c0.8-0.5,1.3-1.5,1.6-2.4c0.4-1.5,0.4-3.7-0.4-5.1
				c-1-1.5-2.6-1.7-4.1-1.7c-1.6-0.1-3.1,0.4-4.3,1.6c-1,1-1.7,2.6-2.1,4.1c-0.7,3.3-0.1,6.9,1.9,9.3c1.2,1.5,2.8,2.3,4.5,2.3
				c1.8,0,3.5-0.8,5-1.6c0.9-0.4,1.2-2.1,0.6-2.9c-0.6-1.1-1.5-1.2-2.4-0.8c0.2-0.1-0.1,0-0.1,0.1c-0.1,0.1-0.2,0.1-0.4,0.2
				c-0.2,0.1-0.5,0.3-0.7,0.3c-0.5,0.3-1.1,0.4-1.7,0.5c0.3-0.1-0.4,0-0.4,0c-0.1,0-0.2,0-0.4,0c-0.1,0-0.4-0.1-0.1,0
				c-0.2-0.1-0.5-0.1-0.7-0.3c0.1,0,0.2,0.2-0.1,0c-0.1-0.1-0.2-0.2-0.4-0.3c-0.2-0.2,0.1,0.2-0.1,0c-0.1-0.1-0.1-0.2-0.3-0.3
				c-0.1-0.1-0.1-0.2-0.2-0.3c0,0-0.3-0.3-0.1-0.2c0.1,0.2-0.1-0.2-0.1-0.2c-0.1-0.1-0.1-0.3-0.1-0.3c-0.1-0.3-0.2-0.5-0.4-0.8
				c0.1,0.3,0,0.1,0,0c0-0.1-0.1-0.3-0.1-0.3c-0.1-0.3-0.1-0.5-0.1-0.8c-0.1-0.4,0-0.1,0,0c0-0.1,0-0.3,0-0.4c0-0.3,0-0.7,0-0.9
				c0-0.2,0-0.3,0-0.4c0,0.1-0.1,0.4,0,0c0.1-0.3,0.1-0.5,0.1-0.8c0.1-0.3,0.1-0.5,0.2-0.8c0,0.1-0.1,0.3,0,0
				c0.1-0.2,0.1-0.3,0.2-0.4c0.1-0.2,0.2-0.4,0.3-0.6c-0.2,0.3,0,0,0,0c0.1-0.1,0.1-0.2,0.2-0.3c0.2-0.3,0.1-0.1,0,0
				c0.1-0.1,0.2-0.2,0.3-0.2c0.3-0.2,0.1-0.1,0.1,0c0.1-0.1,0.4-0.1,0.5-0.2c0.1,0,0.2-0.1,0.4-0.1c-0.1,0-0.3,0,0.1,0
				c0.2,0,0.5,0,0.7,0c0.2,0,0.5,0,0.7,0.1c0.1,0,0.2,0,0.4,0c0.4,0-0.1-0.1,0.1,0c0.1,0,0.2,0.1,0.3,0.1c0.3,0-0.2-0.2,0,0
				c0.2,0.1-0.1-0.1-0.1-0.1c-0.1-0.1-0.1-0.4-0.1-0.2c0.1,0.3,0-0.3,0,0c0,0.1,0,0.3,0,0.3s0,0.3,0,0.3c0,0.3,0,0.3,0,0.1
				c0,0.1,0,0.3-0.1,0.3c0,0.1-0.2,0.6,0,0.2c0,0.1-0.1,0.3-0.1,0.3c0-0.1,0.4-0.4,0.1-0.3c-0.2,0.2,0.2-0.2-0.1,0
				c-0.1,0.1,0.2,0-0.1,0s-0.6,0-1,0.1c-1.3,0-2.5-0.1-3.8-0.3c-0.9-0.2-1.9,1.1-1.8,2.1C278.8,69.5,279.6,70.2,280.6,70.4
				L280.6,70.4z"/>
		</g>
	</g>
	<g>
		<g>
			<path d="M160.7,115.9c1.6-0.5,3.5-1,4.7-2.3c1.1-1.1,1.4-2.9,1.8-4.6c0.8-3.6,1.5-7.2,1.4-11c0-3.4-0.2-6.7,0-10.1
				c0.7-13,4.7-25.6,11.1-36.1c6.8-11.2,16.1-19.4,26.9-24.2c6.3-2.8,12.7-4.5,19.3-5.7c7-1.3,14-2.1,21-2.3
				c6.9-0.3,13.9,0,20.8,0.9c3.5,0.4,7,1.1,10.4,1.9c2.9,0.7,6,1.6,8.8,3c5.3,2.8,9.3,7.6,11.6,13.9c2.2,5.9,2.9,12.5,3.4,18.9
				c0.3,3.9,0.6,7.8,0.3,11.7c-0.4,3.4-1.4,6.6-2.9,9.5c-3,5.7-7.5,10-12.3,13.5c-10.6,8.2-22.5,14.3-34.7,18.3
				c-12.2,4.1-24.9,6.3-37.7,6.1c-6.8-0.1-13.6-0.9-20.3-2.1c-6.7-1.1-13.4-2.4-20.1-2.6c-3.3-0.1-6.5,0.1-9.8,0.6
				c-0.4,0.1-0.6,0.9-0.1,0.9c14.2-2.3,28.1,2.6,42.1,3.7c12.8,1,25.8-0.3,38.3-3.6s24.6-8.8,35.8-16.1c9.2-6,20.5-14.2,22.3-27.8
				c0.5-3.9,0.1-7.9-0.1-11.8c-0.2-3.3-0.5-6.5-1-9.8c-0.9-6.2-2.7-12.5-6.1-17.4c-3.9-5.4-9.4-8.1-15.1-9.6
				c-6.7-1.8-13.6-2.8-20.4-3.3c-13.8-0.9-28,0.3-41.5,3.8c-6.5,1.6-12.9,4-18.8,7.6c-4.8,2.9-9.3,6.7-13.3,11.2
				c-7.9,8.9-13.7,20.4-16.7,32.8c-1.4,6.3-2.2,12.7-2.2,19.3c0,1.9,0.1,3.8,0.1,5.6c-0.1,2.1-0.3,4.4-0.7,6.4
				c-0.3,1.5-0.6,2.9-0.9,4.4c-0.2,0.9-0.4,1.7-0.8,2.4c-0.9,1.6-3.1,2.1-4.5,2.6C160.3,115.2,160.1,116,160.7,115.9L160.7,115.9z"
				/>
		</g>
	</g>
	<g>
		<g>
			<path d="M143.1,130.6c6.2-2.1,11.3-7.8,13.9-14.8c3.1-8.3,2.2-17.5,2.9-26.5c1.1-15,5.6-29.7,12.7-42.2
				c7-12.3,16.6-22.3,28.1-27.9c7-3.5,14.6-5.5,22.1-6.9c7.8-1.4,15.7-2.1,23.5-2.1c8.1-0.1,16,0.5,24,2c4,0.8,7.9,1.7,11.9,2.8
				c3.2,0.9,6.5,2.1,9.5,3.8s5.7,4,7.9,6.9c1.9,2.5,3.4,5.7,4.4,8.8c2.4,7.2,3.1,15,3.5,22.6c0.4,8.2,1,16.8-2.2,24.3
				c-2.8,6.5-7.4,11.8-12.4,15.9c-5.8,4.8-12.1,8.9-18.4,12.5c-6.5,3.7-13.4,6.7-20.3,9.2c-13.9,4.8-28.5,7.1-43,6.5
				c-7.6-0.3-15.2-1.5-22.8-3c-8.1-1.5-16.2-3.3-24.5-3.7c-3.9-0.2-7.8-0.1-11.7,0.4c-1.2,0.2-2.1,1-2.1,2.5c0,1.3,1,2.7,2.1,2.5
				c16.5-2.2,32.9,3.4,49.2,5.5c14.9,1.8,30,0.7,44.5-3.1c14.7-3.9,29-10.5,42.1-19.6c5.8-4,11.4-8.4,15.9-14.4
				c4.8-6.3,7.8-13.8,8.2-22.3c0.2-4.5,0-8.9-0.2-13.3c-0.2-4.1-0.5-8.2-1.1-12.2c-1.1-7.8-3.2-15.5-7.3-21.7
				c-4.5-6.7-11.2-10.1-18-12.3c-7.9-2.6-16-4.1-24.2-5c-8.2-0.9-16.5-0.9-24.7-0.3c-8,0.6-16,1.7-23.7,3.8
				c-7.4,2.2-14.7,5.2-21.3,9.8c-5.5,3.8-10.4,8.6-14.8,14c-9,11.3-15.5,25.5-18.8,40.6c-1.8,8.2-2.4,16.4-2.6,24.8
				c-0.1,4.5-0.3,9-1.5,13.3c-0.9,3.4-2.6,6.4-4.7,8.9c-2,2.3-4.5,4.1-7.1,5.1C139.4,126.6,140.5,131.5,143.1,130.6L143.1,130.6z"/>
		</g>
	</g>
</g>
<path class="st0" d="M114,173.5l0.3-1.3c0.1,0,0.3,0.1,0.4,0.2L114,173.5C114,173.5,114,173.5,114,173.5z"/>
<path class="st0" d="M114.4,173c-0.1,0-0.1-0.1-0.2-0.1C114.3,172.9,114.3,173,114.4,173L114.4,173z"/>
<polygon class="st1" points="384.5,230.7 384.5,230.7 384.5,230.7 "/>
<polygon class="st1" points="384.5,230.7 384.5,230.7 384.5,230.7 "/>
<path class="st1" d="M18.4,124.5c-0.3,0-0.7,0-1-0.1c-0.3-0.1-0.7-0.1-1-0.1c-1.1,0-1.2-0.7-1.2-1.1c0-0.6,0.3-0.9,0.5-1.1
	c0.6-0.6,1.4-0.8,2-0.9c0.2,0,0.3-0.1,0.5-0.1c0.8-0.2,1.4-0.6,2.1-1.1c0.5-0.3,1-0.6,1.5-0.9c1.2-0.6,1.6-1.6,2-2.9
	c0.1-0.2,0.1-0.4,0.2-0.7c0.2-0.7,0.5-1.3,0.9-2c1.5-2.4,3.8-4,6.1-5.4c1.2-0.7,2.4-1.2,3.7-1.6c1.4-0.5,2.8-0.9,4.1-1.3
	c0.6-0.2,1.2-0.4,1.8-0.5c1.2-0.4,2.4-0.6,3.6-0.7c2.1-0.1,4.2-0.2,6.2-0.2l0.6,0c1.7,0,3.4,0.3,5.1,0.5c0.6,0.1,1.2,0.2,1.8,0.3
	c0.5,0.1,1,0.2,1.5,0.4c0.2,0.1,0.4,0.2,0.7,0.2c0.7,0.2,1.2,1,1.1,1.8c-0.1,0.9-1,0.9-1.3,0.9l-0.2,0c-0.1,0-0.2,0-0.3,0l-0.3,0
	l-0.1,0c-1.9-0.2-3.8-0.5-5.7-0.7c-1-0.1-1.9-0.1-2.9-0.1c-1.1,0-2.3,0.1-3.4,0.2l-0.3,0c-0.3,0-0.7,0.1-1,0.1l0,0
	c-1.2,0-2.3,0.3-3.4,0.6l-0.8,0.2c-1.4,0.3-2.7,0.8-4,1.2c-0.6,0.2-1.2,0.4-1.7,0.6c-1,0.3-2.1,0.9-3.2,1.8c-0.4,0.3-0.8,0.6-1.2,1
	c-0.6,0.5-1.2,0.9-1.8,1.4c-0.1,0.1-0.2,0.3-0.3,0.5c-0.1,0.2-0.1,0.3-0.2,0.4c-0.1,0.2-0.2,0.4-0.3,0.5c-0.3,0.4-0.6,0.8-0.7,1.3
	c-0.5,1.7-1.3,3.9-3.7,5.2c-0.4,0.2-0.7,0.4-1.1,0.6c-0.7,0.4-1.5,0.9-2.3,1.2C19.8,124.3,19.1,124.5,18.4,124.5L18.4,124.5z"/>
<path class="st1" d="M16.2,123.7c0.4,0,0.8,0,1.2,0.1c1.1,0.3,2.1,0,3-0.4c1.2-0.5,2.3-1.2,3.4-1.8c2-1,2.8-2.8,3.4-4.7
	c0.2-0.8,0.7-1.4,1.1-2c0.2-0.3,0.3-0.8,0.7-1.1c1-0.7,2-1.6,3-2.3c1.1-0.8,2.2-1.5,3.4-1.9c1.9-0.6,3.8-1.3,5.8-1.8
	c1.5-0.4,2.9-0.9,4.4-0.8c0.4,0,0.8-0.1,1.2-0.1c2.1-0.2,4.3-0.2,6.4,0c1.9,0.2,3.9,0.4,5.8,0.7c0.2,0,0.4,0,0.5,0
	c0.3,0,0.8,0,0.9-0.4c0.1-0.5-0.2-1-0.7-1.1c-0.7-0.2-1.4-0.5-2-0.6c-2.3-0.3-4.5-0.8-6.8-0.8c-2.3,0-4.5,0.1-6.8,0.2
	c-1.2,0.1-2.4,0.3-3.5,0.7c-1.9,0.6-3.9,1.2-5.8,1.8c-1.2,0.4-2.5,0.9-3.6,1.6c-2.3,1.4-4.5,2.9-5.9,5.2c-0.3,0.6-0.7,1.2-0.9,1.8
	c-0.5,1.5-0.8,3.2-2.5,3.9c-1.3,0.6-2.3,1.5-3.8,1.9c-0.7,0.2-1.6,0.3-2.2,0.9c-0.2,0.2-0.3,0.3-0.3,0.6
	C15.7,123.6,15.9,123.6,16.2,123.7z"/>
<path class="st2" d="M114.4,174l0.4-0.5L114.4,174c-0.2-0.1-0.7-0.4-0.6-1l0.6-0.6l0.3,0l0.4,0.1c0.1,0,0.2,0.1,0.4,0.1
	c0.1,0,0.2,0,0.3,0c0.1,0,0.3,0,0.4,0c0.1,0,0.2,0,0.4,0l0.2,0c0.5,0,0.9,0.3,1,0.9l-0.6,0.7l-2.2,0L114.4,174z"/>
<path class="st2" d="M116.4,173.1c-0.5-0.1-1.1,0.2-1.7-0.1c-0.1,0-0.2,0-0.3,0h0c0,0.3,0.2,0.3,0.4,0.4c0.7,0,1.5,0,2.2,0
	C117,173,116.6,173.1,116.4,173.1z"/>
<path class="st1" d="M134.9,159.3c-0.7,0-1.2-0.3-1.5-0.7c-0.3-0.4-0.4-0.9-0.2-1.6c0.1-0.6,0.2-1.2,0.2-1.9l0-0.9
	c0.1-1.4,0.2-2.9-0.2-4.2c-0.1-0.4-0.2-0.8-0.4-1.3c-0.2-0.7-0.4-1.4-0.6-2.1c-0.1-0.3-0.3-0.7-0.4-1c-0.3-0.8-0.7-1.6-0.9-2.4
	c-0.2-0.7-0.7-1.4-1.2-2c-0.3-0.4-0.4-0.7-0.5-1.1c-0.1-0.2-0.1-0.3-0.2-0.5c-0.1-0.2-0.2-0.3-0.3-0.5c-0.4-0.8-0.9-1.6-0.9-2.7
	c0-0.6,0-1.2,0-1.8c0-0.6,0-1.1,0-1.7c0-0.4-0.1-0.9-0.2-1.4c-0.1-0.4-0.2-0.8-0.3-1.3c-0.1-0.7-0.4-1.4-0.7-2.1
	c-0.1-0.2-0.2-0.4-0.3-0.6c-0.2-0.4-0.3-0.9-0.5-1.3c-0.3-0.8-0.6-1.6-1-2.2c-0.3-0.5-0.4-0.9-0.3-1.2c-0.3-0.2-0.5-0.4-0.6-0.6
	c-0.3-0.9-0.9-1.6-1.5-2.4c-0.2-0.3-0.5-0.6-0.7-1c-0.1-0.1-0.1-0.2-0.1-0.2c-1.2-0.7-2.2-1.5-3.2-2.4c-0.4-0.3-0.7-0.6-1.1-0.9
	c-1.3-1-2.7-1.7-4.1-2.2c-0.9-0.3-1.8-0.5-3-0.5c-0.7,0-1.5,0.1-2.3,0.1c-0.6,0-1.1,0.1-1.7,0.1c-0.4,0-0.8,0.1-1.3,0.2
	c-0.6,0.1-1.1,0.2-1.7,0.2l-0.2,0c-0.4,0-1.1-0.1-1.5-0.6c-0.4-0.5-0.3-1.1-0.3-1.6c0.1-0.8,0.7-1,1-1c0.2,0,0.4-0.1,0.6-0.2
	c0.3-0.1,0.6-0.3,1-0.3c0.6,0,1.2-0.2,1.9-0.3c0.7-0.2,1.4-0.4,2.2-0.4c0.2,0,0.4,0,0.6,0c0.1,0,0.2,0,0.3,0c0.3,0,0.7-0.1,1-0.2
	c0.3-0.1,0.6-0.2,0.9-0.2c0.4,0,0.8,0.1,1.1,0.3c0.1,0.1,0.2,0.1,0.5,0.1l0.2,0c1,0,1.8,0.3,2.6,0.6c0.3,0.1,0.6,0.2,0.9,0.3
	c1.2,0.4,2.2,1,3.2,1.6l0.3,0.2c0.8,0.5,1.5,1.1,2.1,1.6c0.5,0.4,1,0.9,1.5,1.2c1.3,0.9,2.3,1.8,3,2.9l0.5,0.8
	c0.5,0.8,1.1,1.6,1.6,2.3c0.1,0.2,0.2,0.5,0.4,0.7c0.2,0.4,0.3,0.6,0.5,0.7c0.2,0.2,0.5,0.5,0.5,0.9c0,0.3,0.2,0.7,0.4,1
	c0.2,0.4,0.5,0.9,0.6,1.4c0.1,0.7,0.5,1.5,0.8,2.1l0.2,0.3c0.8,1.6,0.8,3.3,0.7,4.8c0,0.8-0.1,1.6,0,2.4c0,0.1,0,0.2,0,0.4
	c0,0.4,0,0.4,0.1,0.5c0.3,0.2,0.5,0.5,0.4,0.9c-0.1,0.4,0.1,0.8,0.5,1.3c0.2,0.3,0.3,0.5,0.4,0.8c0.3,0.6,0.6,1.2,0.9,1.7l0.1,0.1
	c0.4,0.6,0.8,1.2,1.1,2c0.1,0.2,0.1,0.4,0.2,0.5c0.1,0.5,0.3,0.9,0.6,1.2c0.2,0.2,0.4,0.5,0.4,1c0,0.4,0.1,0.7,0.3,1.1
	c0.1,0.2,0.2,0.5,0.2,0.7c0.7,2.6,1.3,5.6,0.8,8.6c-0.1,0.7-0.4,2.5-2.3,2.8c0,0-0.1,0.1-0.1,0.1C135.7,159,135.4,159.3,134.9,159.3
	L134.9,159.3z"/>
<path class="st1" d="M102.2,110.9c-0.2,0-0.3,0.2-0.4,0.4c-0.2,1,0.1,1.3,1.1,1.4c1.1,0.1,2.2-0.4,3.2-0.4c2.4-0.1,4.8-0.6,7.2,0.3
	c1.6,0.6,3,1.3,4.3,2.3c1.4,1.1,2.7,2.4,4.4,3.3c0,0,0.1,0.1,0.1,0.1c0,0.1,0.1,0.2,0.1,0.2c0.8,1.1,1.8,2.2,2.3,3.5
	c0.1,0.2,0.3,0.3,0.6,0.3c0,0.1,0.1,0.2,0.1,0.3c-0.2,0.4-0.1,0.7,0.1,1c0.8,1.1,1,2.4,1.6,3.6c0.4,0.9,0.9,1.8,1,2.9
	c0.1,0.9,0.5,1.8,0.5,2.8c0,1.2,0,2.3,0,3.5c-0.1,1.1,0.6,2,1.1,2.9c0.3,0.5,0.3,1,0.6,1.5c0.5,0.7,1,1.4,1.3,2.2
	c0.4,1.2,0.9,2.3,1.3,3.4c0.4,1.1,0.7,2.3,1,3.4c0.5,1.5,0.3,3.2,0.2,4.9c0,0.8,0,1.6-0.2,2.4c-0.2,0.9,0.1,1.4,1.1,1.5
	c0.5,0,0.7-0.4,1.1-0.5c1.3-0.2,1.6-1.4,1.7-2.2c0.5-2.8-0.1-5.6-0.8-8.3c-0.2-0.7-0.5-1.3-0.6-2c0-0.2-0.1-0.4-0.3-0.5
	c-0.5-0.6-0.6-1.3-0.9-1.9c-0.3-0.7-0.7-1.4-1.1-2c-0.4-0.6-0.7-1.2-1-1.8c-0.3-0.8-1.1-1.4-0.9-2.4c0-0.1-0.1-0.2-0.1-0.2
	c-0.5-0.3-0.4-0.8-0.5-1.3c-0.3-2.3,0.6-4.7-0.6-7c-0.4-0.8-0.9-1.7-1.1-2.7c-0.1-0.9-1-1.5-1-2.5c0-0.1-0.1-0.3-0.2-0.4
	c-0.6-0.4-0.6-1.1-1-1.7c-0.7-1.1-1.4-2.1-2.1-3.1c-0.7-1.1-1.7-2-2.8-2.7c-1.3-0.9-2.3-2-3.6-2.8c-1.1-0.6-2.1-1.3-3.3-1.7
	c-1.1-0.4-2.1-0.9-3.3-0.9c-0.3,0-0.6,0-0.9-0.2c-0.5-0.2-1-0.2-1.5-0.1c-0.6,0.2-1.1,0.3-1.7,0.2c-1.6-0.2-3,0.7-4.6,0.7
	C103.4,110.5,102.8,110.9,102.2,110.9z"/>
<path class="st1" d="M102.4,109.1c-0.2,0-0.4,0-0.6,0c-3.2-0.4-5.7-1.3-7.8-2.9c-1.1-0.8-2.5-1.6-4.1-2.3c-0.6-0.3-1.2-0.4-1.9-0.5
	c-0.4-0.1-0.7-0.3-0.9-0.5l-8.8,0c-0.2,0.3-0.4,0.5-0.8,0.5c-0.3,0-0.7,0-1,0.1c-0.4,0-0.8,0.1-1.2,0.1c-0.4,0-0.9,0-1.2-0.1l-0.2,0
	c-0.4,0.4-1,0.5-1.4,0.6l-0.3,0.1c-1.4,0.3-3.3,0.9-5,1.8l-0.2,0.1c-0.6,0.4-1.3,0.8-2.2,0.8l0,0c-0.2,0-0.4,0-0.7-0.1l-0.1,0
	c-0.3,0-1-0.2-1.1-1c-0.1-0.6,0.2-1.2,0.7-1.5c0.4-0.3,0.8-0.5,1.3-0.8c1.2-0.8,2.4-1.6,3.9-2c0.8-0.3,1.8-0.6,2.7-0.9
	c0.2-0.1,0.4-0.1,0.5-0.1c0.2,0,0.4,0.1,0.6,0.2l0.2,0c0.4-0.6,1.2-0.6,1.5-0.6c0.2,0,0.3,0,0.5,0c0.2,0,0.4,0,0.6,0
	c0.3,0,0.6,0.1,0.9,0.2l0.2,0c0.5-0.6,1.1-0.6,1.4-0.6c1.9-0.1,3.9-0.1,5.3-0.1l4.4,0c1.1,0,2.1,0.4,3.1,0.7
	c0.3,0.1,0.6,0.2,0.8,0.3c1.9,0.6,3.5,1.4,4.8,2.4c1.4,1,2.7,1.8,4.1,2.3c0.6,0.2,1.3,0.2,2,0.3c0.2,0,0.5,0,0.7,0
	c0.2,0,0.4,0,0.7,0c0.7,0,1.5,0,2.3,0.3c1.1,0.4,1,1.3,0.9,1.6c0,0.1,0,0.2,0,0.2c0,0.5-0.1,0.8-0.3,1c-0.2,0.3-0.6,0.4-1.1,0.4
	c-0.5,0-0.9,0.1-1.5,0.2C103.7,109,103.1,109.1,102.4,109.1z"/>
<path class="st1" d="M64.3,106c1,0.2,1.8-0.3,2.6-0.7c1.6-0.9,3.4-1.5,5.2-1.9c0.6-0.1,1.2-0.2,1.6-0.7c0.2,0,0.3,0,0.5,0
	c1.1,0.3,2.2,0,3.4,0c0.2,0,0.3-0.3,0.4-0.5c3.2,0,6.4,0,9.6,0c0.1,0.3,0.3,0.5,0.6,0.6c0.7,0.1,1.4,0.2,2,0.5
	c1.5,0.7,3,1.4,4.3,2.4c2.2,1.7,4.8,2.4,7.5,2.8c1.3,0.2,2.5-0.3,3.8-0.4c0.5,0,0.8-0.2,0.7-0.7c0-0.5,0.3-1-0.5-1.3
	c-0.9-0.3-1.9-0.3-2.8-0.3c-1-0.1-2,0-2.9-0.3c-1.5-0.5-2.9-1.4-4.3-2.3c-1.4-1-3-1.7-4.6-2.3c-1.2-0.4-2.4-1-3.7-1
	c-3.2,0-6.5-0.1-9.7,0.1c-0.5,0-0.9,0.1-1.1,0.6c-0.2,0-0.5,0-0.7,0c-0.6-0.3-1.2-0.1-1.8-0.1c-0.5,0-0.9,0.1-1.1,0.6
	c-0.3,0-0.6,0-0.9,0c-0.2-0.2-0.5-0.2-0.7-0.1c-0.9,0.4-1.8,0.7-2.7,1c-1.9,0.6-3.4,1.8-5,2.8c-0.3,0.2-0.5,0.5-0.4,0.9
	C63.6,105.9,64,105.9,64.3,106z"/>
<path class="st1" d="M90.1,173.9c-1.5,0-2.8-0.2-4-0.5c-1.3-0.3-2.3-0.9-3.2-1.9l-0.1-0.1c-0.5-0.6-1.4-1.5-0.9-2.8l-0.1-1.6
	c-0.1,0-0.1-0.1-0.2-0.1c-0.3-0.3-0.3-0.7-0.3-0.9c0-1.4,0-6.3,0-6.3c0-0.5,0.2-0.8,0.4-1l0-2.9c-0.2-0.2-0.3-0.4-0.3-0.5l-0.1-0.6
	c-0.2-1-0.4-2-0.2-3.1c-0.4-0.3-0.6-0.7-0.6-1.1c0-0.5-0.2-0.9-0.5-1.4c-0.1-0.2-0.2-0.4-0.3-0.6c-0.7-1.4-1.7-2.4-2.8-3
	c-0.1,0-0.3-0.1-0.5-0.1c-0.2,0-0.4,0-0.5,0c-0.2,0-0.4,0-0.6,0c-0.1,0-0.2,0-0.2,0l-0.4,0c-0.7,0-1.1-0.4-1.2-1.1
	c-0.1-1.4,0.7-1.9,1.3-2c0.7-0.1,1.2-0.2,1.8-0.2c1.4,0,2.6,0.3,3.6,1.1c1,0.6,2,1.7,2.4,2.8c0.2,0.1,0.5,0.2,0.5,0.5
	c0,0.2,0.2,0.4,0.4,0.6c0.2,0.3,0.5,0.6,0.6,1.2c0.2,0.7,0.5,1.4,0.8,2.1L85,151c0.2,0.5,0.4,1,0.4,1.7c0,1.3,0,2.5,0,3.8
	c0,2.7,0,5.3,0,8c0,0.9,0.1,1.9,0.5,2.9c0.1,0.3,0.2,0.6,0.2,0.9c0.1,0.4,0.1,0.7,0.3,1c0.5,0.9,1.4,1.2,2.4,1.5
	c0.3,0.1,0.6,0.2,0.8,0.3c0.3,0.1,0.5,0.3,0.8,0.3c0.7,0.1,1,0.5,1.1,1.3c0,0.6-0.1,0.8-0.3,1C90.7,173.9,90.2,173.9,90.1,173.9
	L90.1,173.9z"/>
<path class="st1" d="M90.2,171.9c-0.6-0.1-1.1-0.5-1.7-0.6c-1.1-0.3-2.2-0.6-2.8-1.8c-0.3-0.6-0.3-1.3-0.5-1.9c-0.3-1-0.5-2-0.5-3.1
	c0.1-3.9,0-7.9,0-11.8c0-0.5-0.1-0.9-0.3-1.4c-0.4-0.9-0.8-1.8-1-2.7c-0.2-0.7-0.8-1.1-1-1.7c0,0-0.3,0-0.4,0l0,0
	c-0.1-0.9-1.1-2.1-2.2-2.9c-1.5-1-3.2-1.1-4.9-0.8c-0.7,0.1-0.8,0.7-0.8,1.3c0,0.7,0.6,0.5,0.9,0.5c0.7,0,1.5-0.2,2.1,0.1
	c1.4,0.6,2.4,1.9,3.1,3.3c0.4,0.7,1,1.4,0.9,2.3c0,0.2,0.3,0.6,0.7,0.6c0,0.1,0,0.2,0,0.3c-0.3,1.3,0,2.5,0.3,3.7
	c0,0.2,0.2,0.2,0.4,0.2c0,1.3,0,2.5,0,3.8c-0.4,0-0.4,0.3-0.4,0.6c0,2.1,0,4.1,0,6.2c0,0.3-0.1,0.6,0.4,0.6c0,0.7,0.1,1.4,0.1,2.1
	c-0.4,1.1,0.3,1.8,0.9,2.4c0.7,0.9,1.6,1.4,2.9,1.7c1.3,0.3,2.6,0.4,3.9,0.4c0.4,0,0.7-0.1,0.6-0.5C90.7,172.4,90.8,172,90.2,171.9z
	"/>
<path class="st1" d="M65.8,174.4c-0.9,0-1.9-0.7-2-1.7c0-0.5,0.1-0.8,0.3-1c0.1-0.1,0.2-0.2,0.4-0.3c0-0.3,0-0.5,0-0.7
	c0-0.2,0-0.3,0-0.5c0-1.9-0.1-3.8-0.1-5.7c0-0.1,0-0.1,0-0.2c0-0.2-0.1-0.6,0.1-1l0-1c-0.8-0.7-1-1.4-0.7-2.6l0-0.2
	c-0.5-0.4-0.8-0.9-0.9-1.7c0-0.4-0.3-0.7-0.5-1.1c-0.1-0.2-0.2-0.4-0.3-0.6c-0.4-0.9-0.9-1.8-1.1-2.9c0-0.2-0.1-0.4-0.2-0.7
	c-0.2-0.6-0.5-1.4-0.2-2.1c0.2-0.5,0.3-1.1,0.3-1.8c0.1-1,0.2-2,0.9-2.9c0.2-0.2,0.3-0.4,0.5-0.6c0.9-1.1,1.8-2.3,3.6-2.7
	c0,0,0.1-0.1,0.2-0.1c0.2-0.2,0.5-0.4,0.9-0.4c0.2,0,0.4,0,0.6,0.1l0.2,0l0,0c0.2,0,0.4-0.1,0.6-0.1c0.2,0,1,0.1,1.1,1.2
	c0,0.3,0,0.8-0.3,1.1c-0.1,0.1-0.3,0.3-0.5,0.3c-0.1,0.2-0.3,0.4-0.6,0.5c-1.2,0.6-2.1,1.5-2.6,2.5c-0.8,1.8-1,3.3-0.6,4.4l0.1,0.4
	c0.2,0.6,0.4,1.1,0.7,1.6c0.4,0.5,1.1,1.4,0.8,2.4c0.3,0.2,0.6,0.4,0.7,0.8c0.1,0.3,0.1,0.6-0.1,1l0,0.1c0.6,0.4,1.1,1,0.7,2.3
	l0,0.8c0.8,0.6,1.1,1.8,0.7,3.1l0,2.3c0.5,0.5,0.8,1.2,0.8,2c0,0.8-0.3,1.6-0.8,2.1l0,0.5c0.2,0.9-0.6,2.2-1.5,2.5
	c-0.2,0.1-0.3,0.1-0.5,0.2c-0.1,0.1-0.3,0.1-0.4,0.2C66.3,174.3,66.1,174.4,65.8,174.4L65.8,174.4z"/>
<path class="st1" d="M68.2,167.1c0-0.9,0-1.8,0-2.7c0.4-1.3,0.1-2.2-0.7-2.7c0-0.4,0-0.8,0-1.2c0.3-0.8,0.2-1.5-0.7-1.8
	c0,0.1-0.1,0.2-0.1,0.3c0-0.1,0-0.2,0.1-0.3c0-0.2,0-0.5,0-0.7c0.4-0.7-0.1-1-0.7-1.3c0-0.1,0-0.2,0-0.3c0.3-0.9-0.3-1.6-0.6-2.1
	c-0.5-0.7-0.7-1.5-1-2.2c-0.6-1.6,0-3.4,0.7-4.9c0.6-1.2,1.6-2.2,2.9-2.8c0.3-0.1,0.4-0.3,0.3-0.5l0-0.1c0.6,0.2,0.8-0.2,0.7-0.7
	c-0.1-0.8-0.6-0.6-1.1-0.5c-0.1,0-0.3,0-0.4,0c-0.6-0.5-0.9,0.3-1.4,0.4c-1.8,0.3-2.7,1.8-3.7,3c-1,1.2-0.5,3-1.1,4.5
	c-0.3,0.8,0.2,1.6,0.4,2.4c0.2,1,0.6,1.9,1,2.8c0.3,0.6,0.9,1.2,0.9,2c0,0.7,0.3,1.1,0.9,1.4v0c0,0.2,0,0.5,0,0.7
	c-0.3,1.1-0.2,1.6,0.7,2.2c0,0.5,0,1.1,0,1.6c-0.3,0.3-0.1,0.6-0.1,0.9c0,1.9,0,3.8,0.1,5.7c0,0.6-0.2,1.1,0,1.7
	c0,0.1-0.1,0.1-0.1,0.2c-0.5-0.1-0.8,0.1-0.7,0.7c0,0.7,1,1.3,1.7,1c0.3-0.1,0.6-0.3,1-0.4c0.6-0.2,1.1-1.3,1-1.8c0-0.3,0-0.6,0-0.9
	C69.3,169.7,69.3,167.8,68.2,167.1z"/>
<path class="st3" d="M379.9,198l-0.4-0.7c0,0,0-0.1,0-0.1c0.1-0.2,0.2-0.7,0.7-0.7c0.1,0,0.3,0,0.5,0.1l0.2,0.6
	C380.8,197.7,380.4,198,379.9,198L379.9,198z"/>
<path class="st3" d="M379.9,197.5c0.3,0,0.5-0.1,0.6-0.4C380,196.8,380,197.3,379.9,197.5z"/>
<path class="st3" d="M382.8,232c-0.1-0.2-0.1-0.4-0.1-0.6c0.1-0.2,0.2-0.3,0.4-0.4l0.3-0.1c0.2,0,0.3,0.1,0.4,0.2
	c0.1,0.1,0.2,0.3,0.2,0.5c0,0.4-0.2,0.6-0.6,0.6L382.8,232z"/>
<path class="st3" d="M383.3,231.4c-0.2,0.1-0.1,0.2-0.1,0.3c0.1,0,0.3,0,0.3-0.2C383.5,231.4,383.4,231.3,383.3,231.4z"/>
<path class="st3" d="M382.2,232.2c0-0.2-0.1-0.5,0.1-0.7l0.5-0.2c0.2,0,0.3,0.1,0.5,0.2l0.2,0.5c-0.1,0.5-0.6,0.6-0.7,0.7
	L382.2,232.2z"/>
<path class="st3" d="M103.8,195.9c0.2,0,0.4-0.1,0.5-0.3C103.9,195.3,103.8,195.5,103.8,195.9z"/>
<path class="st3" d="M383.9,231.7c-0.3,0-0.6-0.2-0.6-0.5l0.1-0.5c0.1-0.1,0.2-0.2,0.4-0.2l0.1,0c0.2,0,0.4,0.1,0.5,0.2
	c0.1,0.1,0.2,0.3,0.1,0.5l0,0.1l-0.4,0.3C384,231.7,384,231.7,383.9,231.7z"/>
<path class="st3" d="M383.8,231.1c0,0.1,0.1,0.1,0.2,0.1c0,0,0,0,0,0l0,0c0-0.1-0.1-0.2-0.2-0.2C383.8,231,383.8,231.1,383.8,231.1z
	"/>
<path class="st3" d="M382.7,231.9c-0.3-0.8-0.2-1.4,0.1-2c0.3-0.5,0.9-0.7,1.5-0.7c0.3,0,0.6,0.1,0.9,0.1l1,1.6
	c-0.1,0.5-0.4,1.6-2,1.9L382.7,231.9z"/>
<path class="st3" d="M384.8,230.7c-0.6-0.2-1.1-0.2-0.8,0.7C384.4,231.3,384.8,231.2,384.8,230.7z"/>
<path class="st3" d="M382.5,233.9c-0.9,0-1.6-0.7-1.6-1.7l0.5-1.2c0.3-0.3,0.7-0.5,1.2-0.5l1.4,0.8c0.3,0.5,0.3,1,0.1,1.5l-0.3,0.5
	l-0.6,0.4L382.5,233.9z"/>
<path class="st3" d="M380.3,197c0,0.2,0.1,0.3,0.4,0.2l0.1-0.1c0.1-0.2,0-0.4-0.2-0.4C380.5,196.8,380.3,196.9,380.3,197z"/>
<polygon class="st3" points="384.5,230.7 384.5,230.7 384.5,230.7 "/>
<polygon class="st3" points="384.5,230.7 384.5,230.7 384.5,230.7 "/>
<path class="st3" d="M384.4,231.2c-0.3,0-0.5-0.2-0.6-0.5l0.1-0.4l0.4-0.2l0.1,0c0.2,0,0.4,0.2,0.4,0.3l0,0.5l-0.2,0.2
	C384.6,231.2,384.5,231.2,384.4,231.2z"/>
<path class="st3" d="M384.4,230.6C384.4,230.6,384.3,230.6,384.4,230.6c-0.1,0.1,0,0.2,0.1,0.1C384.5,230.6,384.5,230.6,384.4,230.6
	z"/>
<path class="st0" d="M40.6,198.9c-0.4,0-0.7-0.3-0.8-0.5c-0.5-0.3-0.8-0.8-1.1-1.2c-0.2-0.3-0.5-0.6-0.8-0.8
	c-0.4-0.2-0.5-0.6-0.5-0.9c0-0.2-0.1-0.3-0.1-0.3l-0.4-0.8c0.1-0.5,0.6-0.7,0.9-0.8c0.3,0,0.6-0.1,0.8-0.1c0,0,0.3,0,0.3,0
	c1.1,0,2.1,1.1,2.2,2.3c0,0.5,0.1,0.8,0.3,1.1c0.1,0.1,0.4,0.5,0.4,0.9c0,0.3-0.2,0.6-0.5,0.8C41.1,198.8,40.8,198.9,40.6,198.9
	L40.6,198.9z"/>
<path class="st0" d="M40.4,195.9c0-0.8-0.8-1.7-1.4-1.7c-0.3,0.1-0.7,0.1-1.1,0.2c-0.2,0-0.4,0.2-0.3,0.3c0.5,0.3,0.4,1,0.7,1.2
	c0.8,0.5,1.1,1.5,1.9,2c0.2,0.1,0.2,0.6,0.6,0.2c0.3-0.3,0.3-0.5,0-0.8C40.5,196.9,40.4,196.4,40.4,195.9z"/>
<path class="st1" d="M82.6,226c-0.7,0-1.4-0.1-2-0.2c-0.3-0.1-0.6-0.1-0.9-0.1c-0.3,0-0.6,0-0.8,0.1l-0.2,0l-1.5,0
	c-0.2,0.1-0.4,0.1-0.6,0.1c-0.1,0-0.3,0-0.4-0.1c-0.5-0.1-1-0.2-1.6-0.2c-0.9-0.1-1.8-0.2-2.8-0.6c-0.2,0-0.3,0-0.5,0
	c-0.8,0-1.6-0.2-2.3-0.4c-0.4-0.1-0.8-0.2-1.3-0.3c-0.5-0.1-0.9-0.1-1.4-0.2c-1.2-0.1-2.5-0.3-3.7-0.8c0,0,0,0,0,0
	c-0.1,0-0.2,0-0.3,0c-0.1,0-0.2,0-0.4,0c-0.2,0-0.5,0-0.6-0.1c-0.4-0.2-0.8-0.3-1.2-0.3c-0.6-0.1-1.3-0.2-1.9-0.6
	c-1.5-0.2-2.9-0.6-4.2-1c-0.6-0.2-1.1-0.4-1.7-0.5c-1.8-0.5-3.6-1.1-5.2-1.7c-3.5-1.3-6.8-3.2-9.9-5.5c-2.6-2-4.7-4.2-6.5-6.6
	c-1.2-1.6-2.1-3-2.7-4.4c-0.1-0.2-0.2-0.4-0.2-0.6c-0.2-0.5-0.3-0.8-0.6-0.9c-0.4-0.2-0.5-0.8-0.5-1c0-0.4-0.2-0.6-0.8-1
	c-1.1-0.7-2.3-1.6-3.3-3c-0.4-0.6-0.9-1.2-1.5-1.9c-0.3-0.3-0.4-0.7-0.5-1c0-0.1,0-0.3-0.1-0.4c-0.1-0.4-0.1-0.4-0.2-0.5
	c-0.3-0.1-0.6-0.4-0.6-0.8c0-0.7-0.3-0.8-1.1-1c-0.3-0.1-0.7-0.2-1-0.3c-0.3-0.2-0.7-0.3-1-0.5c-1.4-0.7-2.9-1.3-4.1-2.4
	c-0.2-0.2-0.4-0.3-0.6-0.5c-0.4-0.3-0.8-0.6-1.1-1l-0.3-0.4c-0.7-0.7-1.4-1.5-1.7-2.7c-0.1-0.2-0.2-0.4-0.3-0.6
	c-0.2-0.4-0.5-1-0.4-1.6c0.1-1.5,0.7-2.7,1.3-3.8c1.1-1.8,2.8-2.7,4.6-3.2c-0.8-0.4-1.4-1.2-1.9-1.9l-0.3-0.4
	c-0.5-0.6-0.9-1.4-1.3-2.4c-0.1-0.3-0.2-0.5-0.4-0.8c-0.3-0.6-0.7-1.4-0.6-2.3c-0.5-0.7-0.6-1.6-0.7-2.4c-0.1-0.6-0.1-1.2-0.4-1.7
	C8,161.4,8,161,8,160.7c0-2.2,0-4.4,0-6.5c0-0.4,0.1-0.8,0.3-1.2c0.2-0.5,0.5-1,0.4-1.6c-0.1-0.8,0.3-1.3,0.6-1.5c0,0,0-0.2,0-0.3
	c0-0.1,0-0.2,0-0.3c0.2-1.3,0.1-2.6,0-3.9c0-1-0.1-2,0-3c0-0.4,0-0.9,0-1.3l0-0.9c0-0.4,0-1.1,0.7-1.6l0-0.2c0-0.7,0.1-1.5,0.8-2.2
	c0.1-0.1,0.2-0.3,0.2-0.5c0.1-0.3,0.2-0.6,0.4-0.9c0.9-1.4,1.9-2.8,3.3-3.8c0.1-0.1,0.2-0.2,0.3-0.4c0.2-0.3,0.3-0.6,0.7-0.9
	c0.2-0.1,0.3-0.2,0.5-0.3c0-0.2,0.1-0.4,0.2-0.5c1.1-1.3,1.9-2.4,2.5-3.6c0.2-0.3,0.6-0.8,1.4-0.8c0.2,0,0.4,0,0.6,0
	c0.7,0.1,1.1,0.6,1.2,1.4c0,0.9,0,1.7-0.6,2.7c-0.5,0.9-1.1,1.8-1.7,2.7c-0.3,0.5-0.7,0.9-1,1.3c-0.2,0.2-0.4,0.4-0.5,0.6
	c-0.3,0.4-0.6,0.7-0.9,1c-0.7,0.7-1.3,1.4-1.6,2.3c-0.1,0.3-0.4,0.5-0.6,0.6c0,0.1,0.1,0.3,0.1,0.4c0,0.3-0.1,0.7-0.4,0.8
	c-0.4,0.3-0.4,0.7-0.4,1.4c0,0.3,0,0.7-0.1,1c-0.1,0.4-0.2,1.1-0.7,1.5l0,1.5c0.4,0.2,0.7,0.7,0.7,1.5c0,1.1,0,2.2,0,3.3l0,0.3
	c0,0.8-0.3,1.3-0.7,1.6c0.2,0.9-0.1,1.7-0.7,2.3l0,0.3l0,0.1c0.1,1.1,0.1,2.3-0.3,3.4c-0.2,0.6-0.2,1.3,0,2c0.3,1,0.4,2,0.2,3.2
	l0,0.1c0.7,0.7,0.9,1.7,0.7,2.7c0.5,0.2,0.7,0.6,0.7,1c0,0.5,0.2,1,0.4,1.6c0.2,0.3,0.3,0.7,0.4,1c0.1,0.4,0.4,0.9,0.7,1.3l0.2,0.2
	c0.1,0.2,0.2,0.4,0.3,0.5c0.3,0.6,0.6,1.1,1.1,1.3c0.4,0.2,0.6,0.5,0.6,1.1l0,0.2c0.2,0,0.3,0,0.5,0.1c0.1,0,0.2,0,0.3,0
	c0,0,0-0.1,0.1-0.2c0.2-0.8,1-1.3,1.9-1.3c0.1,0,0.2,0,0.3,0c1.1,0.1,1.7,0.8,1.7,1.7c0,0.3,0.1,0.7,0.3,0.9
	c0.3,0.4,0.3,0.8,0.4,1.1c0,0.1,0,0.2,0,0.3c0.1,0.4,0.2,0.9,0.2,1.4c0.1,1,0.3,1.9,0.7,2.6l0.1,0.4c0,0.9,0.3,1.7,0.6,2.6
	c0.1,0.4,0.3,0.8,0.4,1.1c0.1,0.3,0.2,0.7,0.2,1c0.2,0.8,0.3,1.5,0.7,2.1c0.4,0.7,0.6,1.5,0.7,2.3c0,0,0.1,0.7,0.1,0.8
	c0,0.3,0.1,0.4,0.2,0.5c0.1,0.1,0.4,0.3,0.4,0.7c0,0.3,0.1,0.6,0.4,1.1c0.3,0.5,0.6,1,0.5,1.7c0,0,0,0.1,0,0.1
	c0.3,0.1,0.7,0.5,0.6,0.9c-0.1,0.4,0.1,0.8,0.5,1.4c0.1,0.2,0.3,0.5,0.4,0.7c0.1,0.2,0.2,0.5,0.3,0.7c0.2,0.5,0.3,1,0.7,1.3
	c0.3,0.3,0.5,0.7,0.6,1.1c0.1,0.2,0.2,0.5,0.3,0.6c0.4,0.5,0.7,1.1,1,1.7c0.3,0.4,0.5,0.9,0.8,1.3c0.9,1.3,1.9,2.5,3,3.6
	c1.8,1.8,3.4,3.4,5.4,4.6l0.9,0.5c1,0.6,2,1.2,3,1.7c0.9,0.4,1.8,0.8,2.7,1.1c0.6,0.2,1.2,0.5,1.9,0.7c0.2,0.1,0.5,0.2,0.7,0.2
	c0.5,0.1,1,0.3,1.5,0.7c0.2,0.1,0.6,0.2,0.9,0.2c0.3,0,0.6,0.1,0.8,0.2l0.6,0.2c0.7,0.2,1.4,0.4,2.1,0.7c0.3,0.1,0.7,0.2,1.1,0.3
	c0.6,0.1,1.2,0.2,1.8,0.6l0,0c0.1,0,0.2,0,0.2,0c0.7,0,1.3,0.2,1.9,0.4c0.4,0.1,0.8,0.3,1.2,0.3c0.3,0,0.7,0.1,1.1,0.1
	c1.3,0.2,2.7,0.3,4,0.8c0.1,0,0.2,0.1,0.3,0.1c0.2,0,0.5,0,0.7,0c0.9,0,1.8,0.2,2.6,0.5c0.3,0.1,0.7,0.2,1,0.3c3,0.7,6,1,8.9,1
	c1,0,1.9,0,2.9-0.1c1-0.1,1.9-0.4,2.8-0.8c0.4-0.2,0.9-0.3,1.3-0.5l0.5-0.2c1.6-0.5,3.3-1.2,5.3-2c0.7-0.3,1.4-0.6,2.1-0.9l1.1-0.5
	c0.9-0.4,1.9-0.8,2.8-1.3l0.7-0.3c1.2-0.6,2.4-1.3,3.5-2c0.8-0.5,1.6-1,2.5-1.5c0.7-0.4,1.3-0.8,2-1.2l0.6-0.4
	c0.3-0.2,0.6-0.3,1-0.3c0.1,0,0.1,0,0.2,0l0.4-0.4l0.1-0.1l0.3-0.2l0.1,0l0.1-0.2l0.3-0.2l0.1-0.1l0.1,0l0.1-0.1l0.6-0.4l0,0
	l0.5-0.5l0.3-0.2c0.2-0.1,0.2-0.1,0.3-0.2l0.1-0.2l0.3-0.2c0.1,0,0.2-0.1,0.2-0.1l0.3-0.3c0-0.8,0.6-1.3,0.9-1.5
	c0.1,0,0.1-0.1,0.2-0.1c1.4-1.3,2.5-3,3.5-5.1c0.1-0.2,0.2-0.4,0.3-0.6c0.3-0.6,0.6-1.3,0.6-1.9c0-0.4,0.1-0.8,0.3-1.2
	c0.1-0.2,0.3-0.3,0.5-0.4c-0.3-1.1-0.1-2,0.7-2.6l0.1-0.6c-0.2-0.5-0.3-1.1-0.1-1.6c0.1-0.4,0.4-0.8,0.7-1l0-0.8
	c-0.4-1.1-0.1-2.1,0.7-2.6l0-1c-0.4-1.2-0.1-2.5,0.7-3.1l0-1.9c-0.1-0.2-0.2-0.4-0.2-0.7c0-0.4,0-0.8,0-1.2c0-1-0.1-1.9,0.2-2.9
	c0.4-1.6,0.4-3.2,0.4-4.8c0-0.7,0-1.5,0-2.2c0-0.6-0.1-1.2-0.2-1.9c-0.2-0.8-0.4-1.7-0.2-2.7c0-0.1,0-0.3,0-0.4
	c-0.1-0.4-0.2-1.4,0.7-1.7c0.2-0.1,0.4-0.2,0.6-0.3c0.4-0.2,1-0.5,1.6-0.5c0.3,0,0.5,0.1,0.8,0.2c0.7,0,1.4-0.1,2.1-0.1
	c0.7,0,1.3,0,2,0.1l0.5,0.3c0.1,0.1,0.2,0.2,0.6,0.3l0.2,0.1c0.7,0.2,1.3,0.5,1.8,1.1c0.8,0.7,1.3,1.6,1.7,2.8
	c0.4,1.1,0.5,2.2,0.2,3.2c-0.5,1.9-1.3,3.5-2.5,5c-0.6,0.8-1.6,1.9-2.9,2.7c0.1,0.1,0.2,0.1,0.4,0.2c0.6,0.5,0.5,1.5,0.2,2
	c-0.3,0.4-0.5,0.9-0.7,1.5c-0.4,1-0.9,2-1.8,2.9c0,0-0.1,0.1-0.1,0.1c-0.1,0.2-0.4,0.6-1,0.7c-0.7,0.1-0.8,0.1-0.8,1
	c0,1.8-0.4,3.5-0.8,5.2l-0.1,0.6c-0.1,0.4-0.2,0.8-0.2,1.2c-0.1,0.4-0.1,0.8-0.2,1.1c-0.1,0.4-0.2,0.9-0.3,1.3
	c-0.2,0.7-0.4,1.3-0.4,2c0,0.3-0.2,0.5-0.4,0.7c-0.2,0.1-0.2,0.2-0.2,0.7l0,0.2c0,0.4,0,0.9-0.5,1.2c-0.1,0.1-0.2,0.1-0.2,0.5
	c0,0.4-0.1,0.8-0.4,1.2c-0.5,0.8-1.1,1.7-1.7,2.8c-1.1,1.9-2.5,3.3-4.1,4.8c-2,2-4.4,3.5-6.5,4.7c-0.7,0.4-1.5,0.9-2.2,1.3
	c-1.8,1.1-3.7,2.3-5.7,3.3c-1.9,1-3.9,1.8-5.8,2.7l-1.3,0.6c-2.3,1-4.3,1.8-6.3,2.4l-0.4,0.1c-0.5,0.1-0.9,0.3-1.4,0.5
	c-1,0.4-1.9,0.8-2.9,0.9c-0.4,0-0.7,0.1-1.1,0.1C84.4,225.9,83.5,226,82.6,226z M18.4,176.6c-1.7,0-3,0.4-4.3,1.3
	c-1.1,0.8-1.3,1.7-1.1,3.3c0.1,1.2,1,1.9,2,2.7l0.3,0.3c1.1,0.9,2.3,1.7,3.7,2.3c0.5,0.2,1.1,0.5,1.7,0.7c0.5,0.2,1,0.4,1.5,0.6
	c-0.2-0.4-0.2-0.7-0.2-1c0-0.2-0.1-0.5-0.1-0.6c-0.5-0.7-0.5-1.4-0.6-2c-0.1-0.6-0.1-1.1-0.5-1.5c-0.4-0.4-0.4-1.1-0.2-1.7l0-0.5
	c-0.6-0.8-0.9-1.8-0.8-2.9c0-0.3,0-0.8,0-0.9c0,0-0.1,0-0.3,0C19.2,176.6,18.4,176.6,18.4,176.6z M130.2,178.5
	c-1,0.6-1.3,1.4-1.1,2.6c0,0,0-0.1,0.1-0.1c0.2-0.5,0.4-0.9,0.6-1.3C130.1,179.2,130.3,178.9,130.2,178.5z M130.2,165.4
	c0.1,0.4,0.1,0.8,0.1,1.1c0,0.1,0,0.2,0,0.3c0,2.2,0,4.3,0,6.5l0,0.9c0.7-0.5,1.3-1.1,1.8-1.8c0.1-0.2,0.3-0.5,0.4-0.7
	c0.4-0.6,0.8-1.2,1-1.9c0.1-0.4,0.4-0.6,0.7-0.9c0,0,0,0,0,0l0-0.2c0-0.7-0.3-1.4-0.6-2.1l-0.2-0.4c-0.2-0.4-0.5-0.6-0.6-0.6
	c-0.6-0.1-1.2-0.3-1.9-0.3C130.6,165.3,130.4,165.4,130.2,165.4z M18.9,172.9C18.9,172.9,18.9,172.9,18.9,172.9z"/>
<path class="st1" d="M137,166.7c-0.3-1-0.8-1.8-1.5-2.5c-0.5-0.4-1-0.7-1.6-0.9c-0.4-0.1-0.9-0.2-1.2-0.6c-1.4-0.1-2.7-0.1-4.1,0
	c-1-0.5-1.8,0.2-2.6,0.5c-0.6,0.2-0.2,1-0.2,1.6c-0.2,1.5,0.5,3,0.5,4.5c-0.1,2.4,0.2,4.8-0.4,7.2c-0.3,1.2-0.1,2.6-0.1,3.9
	c0,0.2,0,0.3,0.2,0.4c0,0.8,0,1.7-0.1,2.5c-0.8,0.3-1.1,1.6-0.7,2.6c0,0.5,0,1,0,1.5c-0.7,0.3-1,1.2-0.7,2.1c0,0.4,0,0.9,0,1.3
	c-0.8,0.4-1.1,1.3-0.6,2.1c0,0.4-0.1,0.7-0.1,1.1c-0.8,0.4-1,1.1-0.7,2.1c0,0.2,0,0.4,0,0.6c-0.6,0-0.9,0.5-0.8,1
	c0.1,1.1-0.5,2-0.9,2.9c-0.9,2-2,3.8-3.6,5.4c-0.3,0.3-1,0.6-0.8,1.3c0,0-0.1,0-0.1,0c0,0.2-0.2,0.3-0.4,0.3
	c-0.1,0.3-0.3,0.4-0.6,0.4l0,0c-0.1,0.3-0.4,0.5-0.7,0.5c-0.2,0.2-0.4,0.4-0.5,0.5l0,0.1c0,0-0.1,0-0.1,0c-0.2,0.1-0.4,0.3-0.6,0.4
	c0,0.2-0.2,0.2-0.4,0.3c-0.1,0.1-0.2,0.1-0.3,0.2c0,0.3-0.3,0.3-0.5,0.3c-0.1,0.1-0.2,0.1-0.2,0.2c-0.1,0.4-0.4,0.6-0.7,0.6
	c-0.1,0-0.1,0-0.2,0c-0.2,0-0.5,0.1-0.7,0.2c-0.9,0.6-1.7,1.2-2.6,1.7c-2,1.1-3.9,2.5-6,3.5c-1.2,0.6-2.3,1.2-3.5,1.7
	c-1.1,0.4-2.2,0.9-3.3,1.3c-1.8,0.8-3.5,1.5-5.3,2.1c-0.6,0.2-1.2,0.3-1.8,0.6c-1,0.4-2,0.8-3,0.9c-4,0.3-8,0-12-0.9
	c-1.3-0.3-2.6-0.9-4.1-0.7c-0.2,0-0.4,0-0.6-0.1c-1.6-0.6-3.3-0.7-4.9-0.9c-1.2-0.2-2.2-0.8-3.4-0.7c-0.1,0-0.2-0.1-0.2-0.1
	c-0.9-0.5-1.9-0.4-2.8-0.8c-0.8-0.3-1.8-0.6-2.7-0.8c-0.7-0.2-1.4-0.1-1.9-0.5c-0.7-0.5-1.4-0.5-2.1-0.8c-1.5-0.6-3.1-1.2-4.6-1.9
	c-1.4-0.7-2.6-1.5-4-2.2c-2.1-1.2-3.8-3-5.5-4.7c-1.1-1.1-2.2-2.3-3.1-3.7c-0.6-1-1.1-2-1.8-3c-0.4-0.5-0.5-1.2-0.9-1.7
	c-0.6-0.6-0.8-1.5-1.1-2.2c-0.3-0.8-1.1-1.5-0.9-2.5c0-0.1-0.1-0.2-0.2-0.2c-0.4-0.1-0.4-0.4-0.4-0.7c0.1-1.1-1-1.8-0.9-2.8
	c0,0-0.1-0.1-0.1-0.1c-0.4-0.3-0.4-0.7-0.5-1.2c-0.2-0.9-0.3-1.9-0.7-2.6c-0.6-1-0.7-2.2-1-3.3c-0.4-1.3-1-2.5-1-3.9
	c0,0,0-0.1,0-0.1c-0.8-1.3-0.7-2.8-1-4.2c-0.1-0.4,0-0.8-0.3-1.2c-0.3-0.4-0.4-0.8-0.4-1.3c0-0.7-0.5-1-1.2-1.1
	c-0.6-0.1-1.3,0.2-1.5,0.8c-0.3,1.2-1.1,0.5-1.7,0.6c-0.6,0.1-0.5-0.4-0.5-0.8c0-0.2,0.1-0.5-0.2-0.6c-1-0.4-1.3-1.3-1.7-2.1
	c-0.3-0.5-0.7-1.1-0.9-1.7c-0.3-1-1-1.8-0.9-2.8c0-0.3-0.4-0.4-0.7-0.5c0-0.2,0-0.3,0-0.5c0.2-0.9,0-1.7-0.7-2.4c0-0.2,0-0.3,0-0.5
	c0.1-1,0.1-2-0.2-2.9c-0.3-0.8-0.3-1.7,0-2.4c0.4-1.1,0.3-2.2,0.2-3.4c0-0.2,0-0.4,0-0.6c0.7-0.5,1-1.2,0.7-2c0-0.1,0-0.2,0-0.3
	c0.6-0.2,0.7-0.7,0.7-1.3c0-1.2,0-2.4,0-3.6c0-0.6-0.2-0.9-0.7-1c0-0.8,0-1.5,0-2.3c0.6-0.2,0.6-0.7,0.7-1.2c0.2-0.9-0.2-2,0.7-2.8
	c0.1-0.1,0.2-0.5,0-0.8c0-0.1,0-0.2,0-0.3c0.2-0.1,0.6-0.2,0.7-0.5c0.6-1.4,1.7-2.3,2.6-3.5c0.5-0.6,1.1-1.2,1.5-1.9
	c0.6-0.9,1.1-1.8,1.7-2.6c0.5-0.8,0.5-1.5,0.5-2.3c0-0.5-0.2-0.7-0.6-0.7c-0.5-0.1-1-0.1-1.3,0.4c-0.7,1.3-1.6,2.6-2.6,3.7
	c-0.1,0.1-0.1,0.3,0,0.5c0,0.1-0.1,0.1-0.1,0.2c-0.3,0-0.5,0.1-0.8,0.3c-0.5,0.3-0.6,0.9-1,1.3c-1.3,1-2.2,2.3-3.2,3.6
	c-0.3,0.5-0.4,1.2-0.7,1.5c-0.6,0.7-0.6,1.4-0.6,2.1c0,0.2-0.1,0.4-0.2,0.5c-0.4,0.2-0.4,0.6-0.4,1c0,0.7,0,1.5,0,2.2
	c-0.1,2.3,0.3,4.7,0,7c0,0.4,0,0.8-0.3,1.1c-0.3,0.2-0.4,0.6-0.4,0.9c0.1,0.7-0.2,1.4-0.5,2c-0.2,0.3-0.2,0.6-0.2,0.9
	c0,2.1,0,4.3,0,6.4c0,0.3,0,0.5,0.1,0.8c0.8,1.3,0.3,2.9,1.2,4.2c0,0.1,0,0.2,0,0.3c-0.2,1.1,0.6,1.9,0.9,2.8
	c0.2,0.7,0.6,1.5,1.2,2.2c1,1.2,1.8,2.6,3.7,2.4c0.3,0,0.7-0.1,1.2,0.2c-0.9,0-1.4,0.3-2,0.4c-2.1,0.5-4,1.2-5.2,3.1
	c-0.6,1.1-1.2,2.2-1.2,3.5c0,0.8,0.5,1.4,0.7,2c0.3,1.2,1.2,2,1.9,2.8c0.5,0.5,1.2,0.9,1.7,1.4c1.5,1.3,3.2,2,4.9,2.8
	c0.9,0.4,2.5,0.2,2.4,1.9c0,0,0.1,0.1,0.1,0.1c0.7,0.2,0.6,0.9,0.7,1.4c0.1,0.3,0.1,0.5,0.3,0.7c0.5,0.6,1.1,1.3,1.5,2
	c0.8,1.2,1.9,2,3.1,2.8c0.6,0.4,1.2,0.8,1.1,1.6c0,0.1,0.1,0.4,0.1,0.4c0.8,0.4,0.8,1.3,1.1,1.8c0.7,1.5,1.6,2.9,2.7,4.3
	c1.8,2.5,4,4.6,6.4,6.5c3,2.3,6.2,4.2,9.7,5.5c1.7,0.6,3.4,1.2,5.2,1.7c1.9,0.5,3.8,1.3,5.8,1.5c0.1,0,0.2,0,0.3,0.1
	c0.9,0.7,2.1,0.5,3.1,1c0.4,0.2,0.9-0.1,1.3,0.1c1.6,0.7,3.3,0.7,4.9,0.9c1.4,0.2,2.7,0.9,4.1,0.6c0.1,0,0.2,0,0.2,0.1
	c1.3,0.7,2.8,0.5,4.2,0.8c0.2,0.1,0.5,0.1,0.7-0.1c0.6,0,1.1,0,1.7,0c0.7-0.2,1.4-0.2,2,0c1.9,0.4,3.7,0,5.6-0.1
	c0.9-0.1,1.8-0.5,2.7-0.8c0.6-0.3,1.3-0.4,1.9-0.6c2.1-0.6,4.2-1.4,6.3-2.3c2.4-1.1,4.8-2.1,7.1-3.3c2.7-1.4,5.3-3.1,7.9-4.6
	c2.2-1.3,4.5-2.8,6.4-4.6c1.5-1.4,2.9-2.9,4-4.7c0.5-1,1.1-1.9,1.7-2.8c0.2-0.3,0.3-0.5,0.3-0.8c0-0.4,0.1-0.8,0.5-1.1
	c0.2-0.2,0.2-0.5,0.2-0.7c0-0.5,0-1.1,0.5-1.4c0,0,0.1-0.1,0.1-0.2c0-1.2,0.5-2.3,0.8-3.4c0.2-0.8,0.3-1.6,0.4-2.3
	c0.4-1.9,0.8-3.7,0.9-5.7c0-1.1,0.3-1.5,1.4-1.6c0.5,0,0.5-0.4,0.7-0.6c1.3-1.1,1.6-2.8,2.4-4.2c0.2-0.3,0.3-0.9,0-1.2
	c-0.3-0.2-0.9-0.2-1.3-0.3c-0.3,0-0.3,0.3-0.2,0.5c0.3,1.1-0.7,1.8-0.9,2.7c0,0.2-0.3,0.4-0.3,0.7c0,0.3-0.3,0.5-0.6,0.5
	c-0.4,0-0.5-0.3-0.5-0.6c0-0.1,0-0.2,0-0.3c-0.4-2.1,0.6-3.2,2.5-3.9c1.6-0.6,2.8-1.8,3.8-3.1c1.1-1.5,1.9-3.1,2.4-4.8
	C137.5,168.6,137.4,167.6,137,166.7z M18.7,187c-1.4-0.6-2.7-1.4-3.9-2.4c-1.1-0.9-2.3-1.8-2.5-3.4c-0.2-1.5-0.2-2.9,1.4-3.9
	c1.6-1,3.2-1.4,5.1-1.4c1.5,0,1.6,0,1.5,1.6c0,1,0.2,1.9,0.8,2.7c0,0.3,0,0.6,0,0.9c-0.2,0.4-0.2,0.8,0,1.1c0.9,1,0.4,2.5,1.1,3.6
	c0.4,0.5,0.1,1.5,0.7,2.1c0.2,0.2,0.1,0.5,0,0.8c-0.1,0.1-0.2,0.1-0.3,0C21.4,188,20,187.6,18.7,187z M25.2,194.2
	c-0.4,0.3-0.4-0.1-0.6-0.2c-0.8-0.5-1.1-1.5-1.9-2c-0.4-0.2-0.2-0.9-0.7-1.2c-0.1-0.1,0.1-0.3,0.3-0.3c0.4-0.1,0.8-0.1,1.1-0.2
	c0.7,0,1.4,0.8,1.4,1.7c0,0.6,0.1,1.1,0.5,1.5C25.5,193.7,25.6,194,25.2,194.2z M134.8,169.2c-0.2,0.3-0.6,0.5-0.7,0.8
	c-0.3,1-0.9,1.9-1.4,2.8c-0.7,1.2-1.8,2-3,2.7c0-3,0-5.8,0-8.7c0-0.4,0.1-0.9-0.1-1.3c-0.3-0.5,0-0.6,0.3-0.6c1-0.3,2.1-0.1,3.1,0.2
	c0.4,0.1,0.8,0.5,1,1c0.4,0.9,0.8,1.7,0.8,2.7C134.8,168.8,134.8,169,134.8,169.2z"/>
<path class="st0" d="M46.5,198c-0.1,0-0.2,0-0.4-0.1c-0.6-0.3-1.2-0.5-1.8-0.7c-0.5-0.2-0.9-0.4-1.4-0.6c-1.2-0.5-2.3-1.2-3.2-2
	l-0.3-0.2c-0.8-0.7-1.8-1.5-1.9-2.8c-0.1-1.2-0.2-2.6,1.3-3.6c1.2-0.8,2.5-1.2,4-1.2l0.3,0c1.5,0,1.8,0.3,1.7,1.8
	c0,0.7,0.2,1.3,0.6,1.8l0.1,0.3l0,0.7l-0.1,0.3c-0.1,0.1,0,0.2,0,0.3c0.5,0.6,0.5,1.2,0.6,1.7c0.1,0.4,0.1,0.8,0.3,1.2
	c0.2,0.3,0.2,0.6,0.3,0.9c0,0.3,0.1,0.5,0.2,0.7c0.3,0.3,0.3,0.9,0.1,1.2C47,197.9,46.8,198,46.5,198z"/>
<path class="st0" d="M46.7,197.4c0.1-0.2,0.1-0.5,0-0.6c-0.5-0.5-0.3-1.2-0.6-1.7c-0.6-0.9-0.2-2-0.9-2.9c-0.2-0.2-0.2-0.6,0-0.9
	c0-0.2,0-0.5,0-0.7c-0.5-0.6-0.7-1.3-0.7-2.1c0-1.2,0-1.2-1.2-1.2c-1.5,0-2.8,0.2-4,1.1c-1.2,0.8-1.2,1.9-1.1,3.1
	c0.1,1.3,1.1,2,2,2.7c0.9,0.8,2,1.4,3.1,1.9c1,0.5,2.1,0.8,3.2,1.3C46.5,197.5,46.6,197.5,46.7,197.4z"/>
<path class="st1" d="M100.7,185.1c-0.2,0-0.4,0-0.6,0c-2.1-0.2-4.1-1.8-4.6-3.7c-0.1-0.4-0.1-0.7-0.1-1c-0.5,0.3-1,0.6-1.6,0.6
	c-0.3,0-0.7-0.1-1-0.2c-0.5-0.3-0.9-0.8-1-1.3c-0.1-0.5,0.1-1.1,0.5-1.5c0.9-0.8,2-1.6,3.4-2.4c2-1.1,4.2-1.9,6.3-2.6c0,0,0,0,0,0
	c0-0.6,0.3-1,0.9-1.3c1-0.4,1.9-0.8,3-0.9l0.5,0c0.2-0.5,0.6-0.6,0.9-0.6c0.2,0,0.2,0,0.3,0c0.5,0,1.1-0.1,1.6-0.3
	c0.6-0.2,1.3-0.3,2-0.3c0.2,0,0.4,0,0.6,0.1l0.2,0c0.4,0,1,0.1,1.4,0.7c0.2,0.3,0.7,0.5,1.3,0.5c0.3,0,0.6,0.2,0.8,0.4l0,0
	c0.1,0,0.2,0,0.3,0c0.8,0,1.2,0.7,1.3,1.1c0.4,1-0.3,1.6-0.6,1.8c-0.6,0.5-1.2,0.7-1.9,0.7c0,0-0.3,0-0.4,0l-0.7,0l-0.3,0
	c-1.5,0-3,0.4-4.6,0.8l-0.5,0.1c-0.1,0-0.2,0.1-0.4,0.1c-0.2,0-0.3,0-0.4,0c-0.5,0-1,0.2-1.5,0.4c-0.1,0-0.3,0.1-0.4,0.1
	c0.1,0.1,0.2,0.3,0.3,0.4c1.2,1.8,1.2,3.9,0,5.9c-0.2,0.3-0.6,1-1.4,1.2c-0.1,0.2-0.3,0.3-0.5,0.4
	C102.8,184.8,101.8,185.1,100.7,185.1z M100.6,178.4c-0.2,0-0.5,0-0.5,0.8l0,0.7c0,0.3,0,0.6,0,0.9l0.2,0.2c0.2,0.1,0.5,0.3,0.6,0.3
	c0.2-0.1,0.4-0.2,0.5-0.3c0.7-0.4,0.9-0.6,0.9-1.1c0-0.6-0.7-1.3-1.2-1.5C100.9,178.5,100.7,178.4,100.6,178.4z"/>
<path class="st1" d="M116.5,172.8c-0.2-0.4-0.4-0.9-1-0.7c-0.2,0-0.3,0-0.5,0c-0.1-0.3-0.3-0.4-0.5-0.4c-0.7-0.1-1.3-0.2-1.7-0.8
	c-0.3-0.5-0.7-0.4-1.1-0.5c-1.5-0.2-2.9,0.7-4.4,0.6c-0.4,0-0.4,0.3-0.4,0.6c-0.3,0-0.7,0-1,0.1c-1,0-1.9,0.4-2.8,0.8
	c-0.3,0.1-0.5,0.3-0.5,0.8c0,0.3-0.2,0.4-0.5,0.5c-2.1,0.7-4.2,1.4-6.2,2.5c-1.2,0.6-2.3,1.4-3.2,2.3c-0.6,0.5-0.3,1.4,0.3,1.7
	c0.8,0.4,1.4,0.1,2.1-0.3c0.2-0.1,0.5-0.3,0.7-0.3c0.2,0,0.3-0.2,0.5,0c0.1,0.2,0.1,0.4,0,0.5c-0.3,0.4-0.3,0.8-0.2,1.2
	c0.5,1.7,2.3,3.1,4.1,3.2c1.2,0.1,2.3-0.1,3.3-0.6c0.2-0.1,0.3-0.3,0.2-0.5l0,0c0.7,0.2,1.2-0.5,1.4-0.8c1-1.7,1.1-3.5,0-5.2
	c-0.3-0.4-0.8-0.7-1.2-1.1c1.4-0.1,2.4-1,3.7-0.8c0.1,0,0.2-0.1,0.3-0.1c1.8-0.4,3.5-0.9,5.4-0.9c0.4,0,0.8,0,1.2,0
	c0.6,0,1.1-0.2,1.6-0.6C116.4,173.5,116.7,173.2,116.5,172.8z M112.7,172c-0.7,0-1.5,0-2.2,0c-0.2-0.1-0.4-0.2-0.4-0.4
	c-0.1,0-0.1-0.1-0.2-0.1c0.1,0,0.1,0.1,0.2,0.1c0.1,0,0.2,0,0.3,0c0.5,0.3,1.1,0.1,1.7,0.1C112.3,171.7,112.6,171.6,112.7,172z
	 M99.4,180.8c0-0.5,0-1.1,0-1.6c0-1.2,0.6-1.6,1.8-1.3c0.8,0.2,1.7,1.2,1.7,2c0.2,1.2-0.9,1.5-1.6,2c-0.6,0.4-1.1-0.1-1.6-0.4
	C99.5,181.3,99.4,181.1,99.4,180.8z"/>
<path class="st1" d="M49.3,186.6c-0.2,0-0.4,0-0.6-0.1c-0.3-0.1-0.6-0.2-1-0.3c-1-0.2-2.1-0.5-3-1.4c-1.3-1.3-1.6-3.2-0.7-4.8
	c0.1-0.1,0.1-0.3,0.1-0.5c0-0.1,0-0.2,0.1-0.3c-0.1,0-0.2,0-0.3,0l-1,0l-0.2,0c-0.3,0-0.7,0-1,0c-0.4,0-2.1,0-2.1,0
	c-1.2,0-2.4,0-3.5,0.4c-0.4,0.1-0.8,0.2-1.2,0.2c-0.8,0-1.4-0.3-1.9-0.9c-0.7-0.8-0.4-1.4,0-1.8c0,0,0.2-0.2,0.2-0.2
	c-0.4-0.1-0.7-0.4-0.7-1.1c0-0.7,0.3-1.2,1-1.4c1.6-0.5,3.1-0.6,4.3-0.6c0.6,0,1.2,0,1.8,0c0.6,0,1.2,0,1.7,0c0.4,0,0.7,0,1.1,0
	l0.5,0.2c0.4,0.3,0.8,0.4,1.4,0.4c0.4,0.1,0.9,0.1,1.4,0.3c0.8,0.3,1.6,0.7,2.4,0.7c1.2,0.1,2.3,0.4,3.4,0.7l0.6,0.2
	c0.7,0.2,1.6,0.4,2.4,0.8c0.1,0.1,0.3,0.1,0.6,0.2c0.5,0.1,1.3,0.3,1.7,1.1c0.1,0.1,0.2,0.1,0.3,0.2c0.4,0.1,1.2,0.3,1.1,1.4
	c0,0.5-0.3,1.1-1.1,1.2c-0.3,0.5-0.7,0.7-1.2,0.7c-0.3,0-0.6-0.1-0.8-0.1c-0.1,0-0.1,0-0.2-0.1c-0.1,0-0.1,0-0.2,0c0,0,0,0.1,0,0.1
	c0,0.8-0.4,1.3-0.7,1.7c-0.1,0.2-0.2,0.3-0.3,0.5c-0.6,1.1-1.6,1.8-2.9,2.2l-0.3,0.1C50.1,186.5,49.7,186.6,49.3,186.6z M48.8,182.4
	c0.1,0,0.2,0,0.4,0c0.3,0,0.3-0.1,0.4-0.1c0.2-0.5,0.3-1,0.2-1.5c0,0-0.1-0.1-0.2-0.1c-0.1,0-0.3,0-0.5-0.1
	c-0.2-0.1-0.4-0.1-0.5-0.2c0,0.2,0,0.4-0.1,0.6c0,0.1,0,0.5,0,0.5l0,0.1c0,0.1,0,0.3,0,0.4c0,0.1,0.1,0.3,0.1,0.3L48.8,182.4z"/>
<path class="st1" d="M56.6,179.2c-0.1-0.2-0.2-0.3-0.3-0.3c-0.3-1-1.4-0.8-2.1-1.2c-0.7-0.3-1.5-0.6-2.3-0.8
	c-1.3-0.3-2.6-0.7-3.8-0.8c-1-0.1-1.8-0.4-2.6-0.8c-1-0.4-2.1-0.1-3-0.9c-2.9,0.2-5.9-0.5-8.8,0.5c-0.4,0.1-0.6,0.3-0.6,0.8
	c0,0.5,0.2,0.6,0.7,0.5c0.2,0,0.4,0,0.6,0c0.1,0,0.2,0.1,0.3,0c1-0.4,1.4-0.5,2.4-0.2c-0.4,0.3-0.9,0.2-1.2,0.7
	c-0.3,0-0.7,0.1-1,0.1c-0.7-0.2-1.1,0.3-1.6,0.8c-0.3,0.3-0.2,0.6,0,0.9c0.7,0.8,1.7,0.8,2.5,0.5c1.5-0.5,3-0.4,4.5-0.4
	c0.8,0,1.5,0,2.3,0c0.8,0,1.6-0.1,2.5,0.1c-0.5,0.5-0.4,1.2-0.6,1.7c-0.8,1.3-0.5,3,0.6,4c1.1,1,2.5,1.1,3.7,1.5
	c0.5,0.2,1.1-0.1,1.6-0.2c1.1-0.3,2-1,2.5-1.9c0.3-0.6,1-1.1,0.9-1.8c0-0.7,0.1-0.9,0.9-0.8c0.4,0.1,1.3,0.5,1.6-0.4
	c0-0.1,0-0.1,0.1-0.1c0.4,0,0.8,0,0.9-0.6C57.5,179.3,57,179.4,56.6,179.2z M50.1,182.5c-0.3,0.6-1,0.5-1.6,0.5
	c-0.6,0-0.6-0.4-0.7-0.8c-0.1-0.3,0-0.5,0-0.7c0-0.2,0-0.4,0-0.5c0.2-1.4,0.2-1.4,1.5-0.9c0.4,0.1,1,0,1.1,0.7
	C50.5,181.3,50.4,182,50.1,182.5z"/>
<text transform="matrix(1 0 0 1 135.3828 198.6382)" class="st4 st5 st6">          </text>
</svg>
